<ttFont>
    <TTGlyph name=".notdef" xMin="32" yMin="0" xMax="440" yMax="780">
      <contour>
        <pt x="32" y="0" on="1"/>
        <pt x="32" y="780" on="1"/>
        <pt x="440" y="780" on="1"/>
        <pt x="440" y="0" on="1"/>
      </contour>
      <contour>
        <pt x="92" y="60" on="1"/>
        <pt x="380" y="60" on="1"/>
        <pt x="380" y="720" on="1"/>
        <pt x="92" y="720" on="1"/>
      </contour>
    </TTGlyph>
    <TTGlyph name="A" xMin="23" yMin="0" xMax="618" yMax="698">
      <contour>
        <pt x="530" y="0" on="1"/>
        <pt x="460" y="206" on="1"/>
        <pt x="178" y="206" on="1"/>
        <pt x="108" y="0" on="1"/>
        <pt x="23" y="0" on="1"/>
        <pt x="267" y="698" on="1"/>
        <pt x="374" y="698" on="1"/>
        <pt x="618" y="0" on="1"/>
      </contour>
      <contour>
        <pt x="321" y="620" on="1"/>
        <pt x="316" y="620" on="1"/>
        <pt x="198" y="280" on="1"/>
        <pt x="439" y="280" on="1"/>
      </contour>
    </TTGlyph>
    <TTGlyph name="AE" xMin="4" yMin="0" xMax="843" yMax="698">
      <contour>
        <pt x="417" y="205" on="1"/>
        <pt x="192" y="205" on="1"/>
        <pt x="90" y="0" on="1"/>
        <pt x="4" y="0" on="1"/>
        <pt x="361" y="698" on="1"/>
        <pt x="843" y="698" on="1"/>
        <pt x="843" y="624" on="1"/>
        <pt x="500" y="624" on="1"/>
        <pt x="500" y="390" on="1"/>
        <pt x="823" y="390" on="1"/>
        <pt x="823" y="316" on="1"/>
        <pt x="500" y="316" on="1"/>
        <pt x="500" y="74" on="1"/>
        <pt x="843" y="74" on="1"/>
        <pt x="843" y="0" on="1"/>
        <pt x="417" y="0" on="1"/>
      </contour>
      <contour>
        <pt x="404" y="624" on="1"/>
        <pt x="227" y="279" on="1"/>
        <pt x="417" y="279" on="1"/>
        <pt x="417" y="624" on="1"/>
      </contour>
    </TTGlyph>
    <TTGlyph name="AEacute" xMin="4" yMin="0" xMax="843" yMax="949">
      <component glyphName="AE" x="0" y="0" flags="0x204"/>
      <component glyphName="acute.case" x="291" y="0" flags="0x4"/>
    </TTGlyph>
    <TTGlyph name="Aacute" xMin="23" yMin="0" xMax="618" yMax="949">
      <component glyphName="A" x="0" y="0" flags="0x204"/>
      <component glyphName="acute.case" x="22" y="0" flags="0x4"/>
    </TTGlyph>
    <TTGlyph name="Abreve" xMin="23" yMin="0" xMax="618" yMax="913">
      <component glyphName="A" x="0" y="0" flags="0x204"/>
      <component glyphName="breve.case" x="22" y="0" flags="0x4"/>
    </TTGlyph>
    <TTGlyph name="Acircumflex" xMin="23" yMin="0" xMax="618" yMax="935">
      <component glyphName="A" x="0" y="0" flags="0x204"/>
      <component glyphName="circumflex.case" x="22" y="0" flags="0x4"/>
    </TTGlyph>
    <TTGlyph name="Adieresis" xMin="23" yMin="0" xMax="618" yMax="894">
      <component glyphName="A" x="0" y="0" flags="0x204"/>
      <component glyphName="dieresis.case" x="22" y="0" flags="0x4"/>
    </TTGlyph>
    <TTGlyph name="Agrave" xMin="23" yMin="0" xMax="618" yMax="949">
      <component glyphName="A" x="0" y="0" flags="0x204"/>
      <component glyphName="grave.case" x="22" y="0" flags="0x4"/>
    </TTGlyph>
    <TTGlyph name="Alpha" xMin="23" yMin="0" xMax="618" yMax="698">
      <component glyphName="A" x="0" y="0" flags="0x204"/>
    </TTGlyph>
    <TTGlyph name="Alphatonos" xMin="23" yMin="0" xMax="618" yMax="780">
      <component glyphName="A" x="0" y="0" flags="0x204"/>
      <component glyphName="tonos.case" x="-245" y="0" flags="0x4"/>
    </TTGlyph>
    <TTGlyph name="Amacron" xMin="23" yMin="0" xMax="618" yMax="875">
      <component glyphName="A" x="0" y="0" flags="0x204"/>
      <component glyphName="macron.case" x="22" y="0" flags="0x4"/>
    </TTGlyph>
    <TTGlyph name="Aogonek" xMin="23" yMin="-207" xMax="639" yMax="698">
      <contour>
        <pt x="267" y="698" on="1"/>
        <pt x="374" y="698" on="1"/>
        <pt x="618" y="0" on="1"/>
        <pt x="586" y="-29" on="0"/>
        <pt x="548" y="-69" on="0"/>
        <pt x="527" y="-96" on="0"/>
        <pt x="520" y="-115" on="0"/>
        <pt x="520" y="-123" on="1"/>
        <pt x="520" y="-140" on="0"/>
        <pt x="537" y="-153" on="0"/>
        <pt x="551" y="-153" on="1"/>
        <pt x="580" y="-153" on="0"/>
        <pt x="599" y="-129" on="1"/>
        <pt x="639" y="-168" on="1"/>
        <pt x="630" y="-184" on="0"/>
        <pt x="586" y="-207" on="0"/>
        <pt x="551" y="-207" on="1"/>
        <pt x="512" y="-207" on="0"/>
        <pt x="456" y="-171" on="0"/>
        <pt x="456" y="-131" on="1"/>
        <pt x="456" y="-112" on="0"/>
        <pt x="472" y="-78" on="0"/>
        <pt x="500" y="-48" on="0"/>
        <pt x="537" y="-19" on="0"/>
        <pt x="557" y="-4" on="1"/>
        <pt x="556" y="0" on="1"/>
        <pt x="530" y="0" on="1"/>
        <pt x="460" y="206" on="1"/>
        <pt x="178" y="206" on="1"/>
        <pt x="108" y="0" on="1"/>
        <pt x="23" y="0" on="1"/>
      </contour>
      <contour>
        <pt x="321" y="620" on="1"/>
        <pt x="316" y="620" on="1"/>
        <pt x="198" y="280" on="1"/>
        <pt x="439" y="280" on="1"/>
      </contour>
    </TTGlyph>
    <TTGlyph name="Aring" xMin="23" yMin="0" xMax="618" yMax="976">
      <component glyphName="A" x="0" y="0" flags="0x204"/>
      <component glyphName="ring.case" x="22" y="0" flags="0x4"/>
    </TTGlyph>
    <TTGlyph name="Aringacute" xMin="23" yMin="0" xMax="618" yMax="1119">
      <component glyphName="A" x="0" y="0" flags="0x204"/>
      <component glyphName="ringacute.case" x="22" y="0" flags="0x4"/>
    </TTGlyph>
    <TTGlyph name="Atilde" xMin="23" yMin="0" xMax="618" yMax="898">
      <component glyphName="A" x="0" y="0" flags="0x204"/>
      <component glyphName="tilde.case" x="22" y="0" flags="0x4"/>
    </TTGlyph>
    <TTGlyph name="B" xMin="93" yMin="0" xMax="590" yMax="698">
      <contour>
        <pt x="93" y="698" on="1"/>
        <pt x="380" y="698" on="1"/>
        <pt x="467" y="698" on="0"/>
        <pt x="566" y="600" on="0"/>
        <pt x="566" y="518" on="1"/>
        <pt x="566" y="479" on="0"/>
        <pt x="544" y="425" on="0"/>
        <pt x="510" y="390" on="0"/>
        <pt x="470" y="373" on="0"/>
        <pt x="453" y="370" on="1"/>
        <pt x="453" y="364" on="1"/>
        <pt x="472" y="363" on="0"/>
        <pt x="519" y="345" on="0"/>
        <pt x="561" y="306" on="0"/>
        <pt x="590" y="245" on="0"/>
        <pt x="590" y="202" on="1"/>
        <pt x="590" y="159" on="0"/>
        <pt x="563" y="85" on="0"/>
        <pt x="515" y="31" on="0"/>
        <pt x="449" y="0" on="0"/>
        <pt x="410" y="0" on="1"/>
        <pt x="93" y="0" on="1"/>
      </contour>
      <contour>
        <pt x="177" y="74" on="1"/>
        <pt x="384" y="74" on="1"/>
        <pt x="438" y="74" on="0"/>
        <pt x="500" y="129" on="0"/>
        <pt x="500" y="182" on="1"/>
        <pt x="500" y="216" on="1"/>
        <pt x="500" y="269" on="0"/>
        <pt x="438" y="324" on="0"/>
        <pt x="384" y="324" on="1"/>
        <pt x="177" y="324" on="1"/>
      </contour>
      <contour>
        <pt x="177" y="396" on="1"/>
        <pt x="370" y="396" on="1"/>
        <pt x="420" y="396" on="0"/>
        <pt x="476" y="446" on="0"/>
        <pt x="476" y="493" on="1"/>
        <pt x="476" y="527" on="1"/>
        <pt x="476" y="574" on="0"/>
        <pt x="420" y="624" on="0"/>
        <pt x="370" y="624" on="1"/>
        <pt x="177" y="624" on="1"/>
      </contour>
    </TTGlyph>
    <TTGlyph name="Beta" xMin="93" yMin="0" xMax="590" yMax="698">
      <component glyphName="B" x="0" y="0" flags="0x204"/>
    </TTGlyph>
    <TTGlyph name="C" xMin="58" yMin="-12" xMax="584" yMax="710">
      <contour>
        <pt x="339" y="-12" on="1"/>
        <pt x="206" y="-12" on="0"/>
        <pt x="58" y="169" on="0"/>
        <pt x="58" y="345" on="1"/>
        <pt x="58" y="521" on="0"/>
        <pt x="206" y="710" on="0"/>
        <pt x="339" y="710" on="1"/>
        <pt x="427" y="710" on="0"/>
        <pt x="546" y="630" on="0"/>
        <pt x="579" y="557" on="1"/>
        <pt x="511" y="516" on="1"/>
        <pt x="490" y="570" on="0"/>
        <pt x="404" y="635" on="0"/>
        <pt x="339" y="635" on="1"/>
        <pt x="294" y="635" on="0"/>
        <pt x="223" y="601" on="0"/>
        <pt x="174" y="538" on="0"/>
        <pt x="148" y="451" on="0"/>
        <pt x="148" y="397" on="1"/>
        <pt x="148" y="293" on="1"/>
        <pt x="148" y="185" on="0"/>
        <pt x="248" y="63" on="0"/>
        <pt x="339" y="63" on="1"/>
        <pt x="406" y="63" on="0"/>
        <pt x="496" y="132" on="0"/>
        <pt x="517" y="189" on="1"/>
        <pt x="584" y="147" on="1"/>
        <pt x="551" y="73" on="0"/>
        <pt x="427" y="-12" on="0"/>
      </contour>
    </TTGlyph>
    <TTGlyph name="Cacute" xMin="58" yMin="-12" xMax="584" yMax="949">
      <component glyphName="C" x="0" y="0" flags="0x204"/>
      <component glyphName="acute.case" x="38" y="0" flags="0x4"/>
    </TTGlyph>
    <TTGlyph name="Ccaron" xMin="58" yMin="-12" xMax="584" yMax="943">
      <component glyphName="C" x="0" y="0" flags="0x204"/>
      <component glyphName="caron.case" x="38" y="0" flags="0x4"/>
    </TTGlyph>
    <TTGlyph name="Ccedilla" xMin="58" yMin="-207" xMax="584" yMax="710">
      <contour>
        <pt x="339" y="635" on="1"/>
        <pt x="294" y="635" on="0"/>
        <pt x="223" y="601" on="0"/>
        <pt x="174" y="538" on="0"/>
        <pt x="148" y="451" on="0"/>
        <pt x="148" y="397" on="1"/>
        <pt x="148" y="293" on="1"/>
        <pt x="148" y="185" on="0"/>
        <pt x="248" y="63" on="0"/>
        <pt x="339" y="63" on="1"/>
        <pt x="406" y="63" on="0"/>
        <pt x="496" y="132" on="0"/>
        <pt x="517" y="189" on="1"/>
        <pt x="584" y="147" on="1"/>
        <pt x="553" y="78" on="0"/>
        <pt x="440" y="-6" on="0"/>
        <pt x="361" y="-11" on="1"/>
        <pt x="351" y="-61" on="1"/>
        <pt x="354" y="-64" on="1"/>
        <pt x="373" y="-58" on="0"/>
        <pt x="393" y="-58" on="1"/>
        <pt x="422" y="-58" on="0"/>
        <pt x="461" y="-92" on="0"/>
        <pt x="461" y="-124" on="1"/>
        <pt x="461" y="-145" on="0"/>
        <pt x="443" y="-177" on="0"/>
        <pt x="412" y="-197" on="0"/>
        <pt x="372" y="-207" on="0"/>
        <pt x="350" y="-207" on="1"/>
        <pt x="309" y="-207" on="0"/>
        <pt x="262" y="-180" on="0"/>
        <pt x="251" y="-166" on="1"/>
        <pt x="289" y="-125" on="1"/>
        <pt x="298" y="-136" on="0"/>
        <pt x="328" y="-153" on="0"/>
        <pt x="350" y="-153" on="1"/>
        <pt x="369" y="-153" on="0"/>
        <pt x="394" y="-138" on="0"/>
        <pt x="394" y="-122" on="1"/>
        <pt x="394" y="-108" on="0"/>
        <pt x="368" y="-87" on="0"/>
        <pt x="326" y="-81" on="1"/>
        <pt x="298" y="-77" on="1"/>
        <pt x="311" y="-11" on="1"/>
        <pt x="191" y="-2" on="0"/>
        <pt x="58" y="178" on="0"/>
        <pt x="58" y="345" on="1"/>
        <pt x="58" y="521" on="0"/>
        <pt x="206" y="710" on="0"/>
        <pt x="339" y="710" on="1"/>
        <pt x="427" y="710" on="0"/>
        <pt x="546" y="630" on="0"/>
        <pt x="579" y="557" on="1"/>
        <pt x="511" y="516" on="1"/>
        <pt x="490" y="570" on="0"/>
        <pt x="404" y="635" on="0"/>
      </contour>
    </TTGlyph>
    <TTGlyph name="Ccircumflex" xMin="58" yMin="-12" xMax="584" yMax="935">
      <component glyphName="C" x="0" y="0" flags="0x204"/>
      <component glyphName="circumflex.case" x="38" y="0" flags="0x4"/>
    </TTGlyph>
    <TTGlyph name="Cdotaccent" xMin="58" yMin="-12" xMax="584" yMax="900">
      <component glyphName="C" x="0" y="0" flags="0x204"/>
      <component glyphName="dotaccent.case" x="38" y="0" flags="0x4"/>
    </TTGlyph>
    <TTGlyph name="Chi" xMin="24" yMin="0" xMax="589" yMax="698">
      <component glyphName="X" x="0" y="0" flags="0x204"/>
    </TTGlyph>
    <TTGlyph name="D" xMin="93" yMin="0" xMax="613" yMax="698">
      <contour>
        <pt x="93" y="698" on="1"/>
        <pt x="327" y="698" on="1"/>
        <pt x="392" y="698" on="0"/>
        <pt x="498" y="654" on="0"/>
        <pt x="573" y="567" on="0"/>
        <pt x="613" y="436" on="0"/>
        <pt x="613" y="349" on="1"/>
        <pt x="613" y="262" on="0"/>
        <pt x="573" y="131" on="0"/>
        <pt x="498" y="44" on="0"/>
        <pt x="392" y="0" on="0"/>
        <pt x="327" y="0" on="1"/>
        <pt x="93" y="0" on="1"/>
      </contour>
      <contour>
        <pt x="327" y="74" on="1"/>
        <pt x="370" y="74" on="0"/>
        <pt x="442" y="103" on="0"/>
        <pt x="494" y="159" on="0"/>
        <pt x="523" y="240" on="0"/>
        <pt x="523" y="292" on="1"/>
        <pt x="523" y="406" on="1"/>
        <pt x="523" y="458" on="0"/>
        <pt x="494" y="539" on="0"/>
        <pt x="442" y="595" on="0"/>
        <pt x="370" y="624" on="0"/>
        <pt x="327" y="624" on="1"/>
        <pt x="177" y="624" on="1"/>
        <pt x="177" y="74" on="1"/>
      </contour>
    </TTGlyph>
    <TTGlyph name="Dcaron" xMin="93" yMin="0" xMax="613" yMax="943">
      <component glyphName="D" x="0" y="0" flags="0x204"/>
      <component glyphName="caron.case" x="7" y="0" flags="0x4"/>
    </TTGlyph>
    <TTGlyph name="Dcroat" xMin="17" yMin="0" xMax="616" yMax="698">
      <contour>
        <pt x="96" y="337" on="1"/>
        <pt x="17" y="337" on="1"/>
        <pt x="17" y="401" on="1"/>
        <pt x="96" y="401" on="1"/>
        <pt x="96" y="698" on="1"/>
        <pt x="330" y="698" on="1"/>
        <pt x="395" y="698" on="0"/>
        <pt x="501" y="654" on="0"/>
        <pt x="576" y="567" on="0"/>
        <pt x="616" y="436" on="0"/>
        <pt x="616" y="349" on="1"/>
        <pt x="616" y="262" on="0"/>
        <pt x="576" y="131" on="0"/>
        <pt x="501" y="44" on="0"/>
        <pt x="395" y="0" on="0"/>
        <pt x="330" y="0" on="1"/>
        <pt x="96" y="0" on="1"/>
      </contour>
      <contour>
        <pt x="330" y="74" on="1"/>
        <pt x="373" y="74" on="0"/>
        <pt x="445" y="103" on="0"/>
        <pt x="497" y="159" on="0"/>
        <pt x="526" y="240" on="0"/>
        <pt x="526" y="292" on="1"/>
        <pt x="526" y="406" on="1"/>
        <pt x="526" y="458" on="0"/>
        <pt x="497" y="539" on="0"/>
        <pt x="445" y="595" on="0"/>
        <pt x="373" y="624" on="0"/>
        <pt x="330" y="624" on="1"/>
        <pt x="180" y="624" on="1"/>
        <pt x="180" y="401" on="1"/>
        <pt x="317" y="401" on="1"/>
        <pt x="317" y="337" on="1"/>
        <pt x="180" y="337" on="1"/>
        <pt x="180" y="74" on="1"/>
      </contour>
    </TTGlyph>
    <TTGlyph name="Delta" xMin="44" yMin="0" xMax="599" yMax="698">
      <contour>
        <pt x="44" y="75" on="1"/>
        <pt x="268" y="698" on="1"/>
        <pt x="375" y="698" on="1"/>
        <pt x="599" y="75" on="1"/>
        <pt x="599" y="0" on="1"/>
        <pt x="44" y="0" on="1"/>
      </contour>
      <contour>
        <pt x="322" y="620" on="1"/>
        <pt x="317" y="620" on="1"/>
        <pt x="129" y="74" on="1"/>
        <pt x="510" y="74" on="1"/>
      </contour>
    </TTGlyph>
    <TTGlyph name="E" xMin="93" yMin="0" xMax="519" yMax="698">
      <contour>
        <pt x="93" y="0" on="1"/>
        <pt x="93" y="698" on="1"/>
        <pt x="519" y="698" on="1"/>
        <pt x="519" y="624" on="1"/>
        <pt x="177" y="624" on="1"/>
        <pt x="177" y="390" on="1"/>
        <pt x="499" y="390" on="1"/>
        <pt x="499" y="316" on="1"/>
        <pt x="177" y="316" on="1"/>
        <pt x="177" y="74" on="1"/>
        <pt x="519" y="74" on="1"/>
        <pt x="519" y="0" on="1"/>
      </contour>
    </TTGlyph>
    <TTGlyph name="Eacute" xMin="93" yMin="0" xMax="519" yMax="949">
      <component glyphName="E" x="0" y="0" flags="0x204"/>
      <component glyphName="acute.case" x="4" y="0" flags="0x4"/>
    </TTGlyph>
    <TTGlyph name="Ebreve" xMin="93" yMin="0" xMax="519" yMax="913">
      <component glyphName="E" x="0" y="0" flags="0x204"/>
      <component glyphName="breve.case" x="4" y="0" flags="0x4"/>
    </TTGlyph>
    <TTGlyph name="Ecaron" xMin="93" yMin="0" xMax="519" yMax="943">
      <component glyphName="E" x="0" y="0" flags="0x204"/>
      <component glyphName="caron.case" x="4" y="0" flags="0x4"/>
    </TTGlyph>
    <TTGlyph name="Ecircumflex" xMin="93" yMin="0" xMax="519" yMax="935">
      <component glyphName="E" x="0" y="0" flags="0x204"/>
      <component glyphName="circumflex.case" x="4" y="0" flags="0x4"/>
    </TTGlyph>
    <TTGlyph name="Edieresis" xMin="93" yMin="0" xMax="519" yMax="894">
      <component glyphName="E" x="0" y="0" flags="0x204"/>
      <component glyphName="dieresis.case" x="4" y="0" flags="0x4"/>
    </TTGlyph>
    <TTGlyph name="Edotaccent" xMin="93" yMin="0" xMax="519" yMax="900">
      <component glyphName="E" x="0" y="0" flags="0x204"/>
      <component glyphName="dotaccent.case" x="4" y="0" flags="0x4"/>
    </TTGlyph>
    <TTGlyph name="Egrave" xMin="93" yMin="0" xMax="519" yMax="949">
      <component glyphName="E" x="0" y="0" flags="0x204"/>
      <component glyphName="grave.case" x="4" y="0" flags="0x4"/>
    </TTGlyph>
    <TTGlyph name="Emacron" xMin="93" yMin="0" xMax="519" yMax="875">
      <component glyphName="E" x="0" y="0" flags="0x204"/>
      <component glyphName="macron.case" x="4" y="0" flags="0x4"/>
    </TTGlyph>
    <TTGlyph name="Eng" xMin="93" yMin="-200" xMax="614" yMax="698">
      <contour>
        <pt x="93" y="0" on="1"/>
        <pt x="93" y="698" on="1"/>
        <pt x="190" y="698" on="1"/>
        <pt x="445" y="272" on="1"/>
        <pt x="529" y="117" on="1"/>
        <pt x="532" y="117" on="1"/>
        <pt x="532" y="698" on="1"/>
        <pt x="614" y="698" on="1"/>
        <pt x="614" y="-75" on="1"/>
        <pt x="614" y="-131" on="0"/>
        <pt x="558" y="-200" on="0"/>
        <pt x="500" y="-200" on="1"/>
        <pt x="446" y="-200" on="1"/>
        <pt x="446" y="-126" on="1"/>
        <pt x="532" y="-126" on="1"/>
        <pt x="532" y="0" on="1"/>
        <pt x="517" y="0" on="1"/>
        <pt x="262" y="426" on="1"/>
        <pt x="178" y="581" on="1"/>
        <pt x="175" y="581" on="1"/>
        <pt x="175" y="0" on="1"/>
      </contour>
    </TTGlyph>
    <TTGlyph name="Eogonek" xMin="93" yMin="-207" xMax="540" yMax="698">
      <contour>
        <pt x="93" y="698" on="1"/>
        <pt x="519" y="698" on="1"/>
        <pt x="519" y="624" on="1"/>
        <pt x="177" y="624" on="1"/>
        <pt x="177" y="390" on="1"/>
        <pt x="499" y="390" on="1"/>
        <pt x="499" y="316" on="1"/>
        <pt x="177" y="316" on="1"/>
        <pt x="177" y="74" on="1"/>
        <pt x="519" y="74" on="1"/>
        <pt x="519" y="0" on="1"/>
        <pt x="487" y="-29" on="0"/>
        <pt x="449" y="-69" on="0"/>
        <pt x="428" y="-96" on="0"/>
        <pt x="421" y="-115" on="0"/>
        <pt x="421" y="-123" on="1"/>
        <pt x="421" y="-140" on="0"/>
        <pt x="438" y="-153" on="0"/>
        <pt x="452" y="-153" on="1"/>
        <pt x="481" y="-153" on="0"/>
        <pt x="500" y="-129" on="1"/>
        <pt x="540" y="-168" on="1"/>
        <pt x="531" y="-184" on="0"/>
        <pt x="487" y="-207" on="0"/>
        <pt x="452" y="-207" on="1"/>
        <pt x="413" y="-207" on="0"/>
        <pt x="357" y="-171" on="0"/>
        <pt x="357" y="-131" on="1"/>
        <pt x="357" y="-93" on="0"/>
        <pt x="416" y="-33" on="0"/>
        <pt x="458" y="-5" on="1"/>
        <pt x="457" y="0" on="1"/>
        <pt x="93" y="0" on="1"/>
      </contour>
    </TTGlyph>
    <TTGlyph name="Epsilon" xMin="93" yMin="0" xMax="519" yMax="698">
      <component glyphName="E" x="0" y="0" flags="0x204"/>
    </TTGlyph>
    <TTGlyph name="Epsilontonos" xMin="-24" yMin="0" xMax="545" yMax="780">
      <component glyphName="E" x="26" y="0" flags="0x4"/>
      <component glyphName="tonos.case" x="-303" y="0" flags="0x4"/>
    </TTGlyph>
    <TTGlyph name="Eta" xMin="93" yMin="0" xMax="614" yMax="698">
      <component glyphName="H" x="0" y="0" flags="0x204"/>
    </TTGlyph>
    <TTGlyph name="Etatonos" xMin="-24" yMin="0" xMax="640" yMax="780">
      <component glyphName="H" x="26" y="0" flags="0x4"/>
      <component glyphName="tonos.case" x="-303" y="0" flags="0x4"/>
    </TTGlyph>
    <TTGlyph name="Eth" xMin="17" yMin="0" xMax="616" yMax="698">
      <component glyphName="Dcroat" x="0" y="0" flags="0x204"/>
    </TTGlyph>
    <TTGlyph name="Euro" xMin="58" yMin="-12" xMax="581" yMax="710">
      <contour>
        <pt x="338" y="-12" on="1"/>
        <pt x="206" y="-12" on="0"/>
        <pt x="58" y="174" on="0"/>
        <pt x="58" y="349" on="1"/>
        <pt x="58" y="524" on="0"/>
        <pt x="206" y="710" on="0"/>
        <pt x="338" y="710" on="1"/>
        <pt x="426" y="710" on="0"/>
        <pt x="543" y="629" on="0"/>
        <pt x="576" y="557" on="1"/>
        <pt x="511" y="517" on="1"/>
        <pt x="490" y="571" on="0"/>
        <pt x="402" y="636" on="0"/>
        <pt x="338" y="636" on="1"/>
        <pt x="259" y="636" on="0"/>
        <pt x="161" y="542" on="0"/>
        <pt x="149" y="464" on="1"/>
        <pt x="406" y="464" on="1"/>
        <pt x="406" y="397" on="1"/>
        <pt x="145" y="397" on="1"/>
        <pt x="145" y="301" on="1"/>
        <pt x="406" y="301" on="1"/>
        <pt x="406" y="234" on="1"/>
        <pt x="149" y="234" on="1"/>
        <pt x="162" y="156" on="0"/>
        <pt x="259" y="62" on="0"/>
        <pt x="338" y="62" on="1"/>
        <pt x="404" y="62" on="0"/>
        <pt x="494" y="132" on="0"/>
        <pt x="516" y="189" on="1"/>
        <pt x="581" y="146" on="1"/>
        <pt x="565" y="112" on="0"/>
        <pt x="521" y="54" on="0"/>
        <pt x="462" y="12" on="0"/>
        <pt x="386" y="-12" on="0"/>
      </contour>
    </TTGlyph>
    <TTGlyph name="F" xMin="93" yMin="0" xMax="509" yMax="698">
      <contour>
        <pt x="93" y="0" on="1"/>
        <pt x="93" y="698" on="1"/>
        <pt x="509" y="698" on="1"/>
        <pt x="509" y="624" on="1"/>
        <pt x="177" y="624" on="1"/>
        <pt x="177" y="390" on="1"/>
        <pt x="480" y="390" on="1"/>
        <pt x="480" y="316" on="1"/>
        <pt x="177" y="316" on="1"/>
        <pt x="177" y="0" on="1"/>
      </contour>
    </TTGlyph>
    <TTGlyph name="G" xMin="58" yMin="-12" xMax="623" yMax="710">
      <contour>
        <pt x="545" y="102" on="1"/>
        <pt x="542" y="102" on="1"/>
        <pt x="529" y="53" on="0"/>
        <pt x="428" y="-12" on="0"/>
        <pt x="348" y="-12" on="1"/>
        <pt x="284" y="-12" on="0"/>
        <pt x="177" y="35" on="0"/>
        <pt x="101" y="126" on="0"/>
        <pt x="58" y="261" on="0"/>
        <pt x="58" y="349" on="1"/>
        <pt x="58" y="436" on="0"/>
        <pt x="100" y="571" on="0"/>
        <pt x="178" y="662" on="0"/>
        <pt x="288" y="710" on="0"/>
        <pt x="355" y="710" on="1"/>
        <pt x="449" y="710" on="0"/>
        <pt x="575" y="626" on="0"/>
        <pt x="609" y="557" on="1"/>
        <pt x="540" y="515" on="1"/>
        <pt x="516" y="571" on="0"/>
        <pt x="421" y="635" on="0"/>
        <pt x="355" y="635" on="1"/>
        <pt x="309" y="635" on="0"/>
        <pt x="233" y="602" on="0"/>
        <pt x="178" y="542" on="0"/>
        <pt x="148" y="458" on="0"/>
        <pt x="148" y="406" on="1"/>
        <pt x="148" y="293" on="1"/>
        <pt x="148" y="241" on="0"/>
        <pt x="178" y="156" on="0"/>
        <pt x="233" y="96" on="0"/>
        <pt x="313" y="63" on="0"/>
        <pt x="363" y="63" on="1"/>
        <pt x="399" y="63" on="0"/>
        <pt x="464" y="82" on="0"/>
        <pt x="513" y="120" on="0"/>
        <pt x="541" y="177" on="0"/>
        <pt x="541" y="216" on="1"/>
        <pt x="541" y="285" on="1"/>
        <pt x="387" y="285" on="1"/>
        <pt x="387" y="359" on="1"/>
        <pt x="623" y="359" on="1"/>
        <pt x="623" y="0" on="1"/>
        <pt x="545" y="0" on="1"/>
      </contour>
    </TTGlyph>
    <TTGlyph name="Gamma" xMin="93" yMin="0" xMax="473" yMax="698">
      <component glyphName="uni0413" x="0" y="0" flags="0x204"/>
    </TTGlyph>
    <TTGlyph name="Gbreve" xMin="58" yMin="-12" xMax="623" yMax="913">
      <component glyphName="G" x="0" y="0" flags="0x204"/>
      <component glyphName="breve.case" x="55" y="0" flags="0x4"/>
    </TTGlyph>
    <TTGlyph name="Gcircumflex" xMin="58" yMin="-12" xMax="623" yMax="935">
      <component glyphName="G" x="0" y="0" flags="0x204"/>
      <component glyphName="circumflex.case" x="55" y="0" flags="0x4"/>
    </TTGlyph>
    <TTGlyph name="Gcommaaccent" xMin="58" yMin="-245" xMax="623" yMax="710">
      <component glyphName="G" x="0" y="0" flags="0x204"/>
      <component glyphName="uni0326" x="348" y="0" flags="0x4"/>
    </TTGlyph>
    <TTGlyph name="Gdotaccent" xMin="58" yMin="-12" xMax="623" yMax="900">
      <component glyphName="G" x="0" y="0" flags="0x204"/>
      <component glyphName="dotaccent.case" x="55" y="0" flags="0x4"/>
    </TTGlyph>
    <TTGlyph name="H" xMin="93" yMin="0" xMax="614" yMax="698">
      <contour>
        <pt x="530" y="316" on="1"/>
        <pt x="177" y="316" on="1"/>
        <pt x="177" y="0" on="1"/>
        <pt x="93" y="0" on="1"/>
        <pt x="93" y="698" on="1"/>
        <pt x="177" y="698" on="1"/>
        <pt x="177" y="390" on="1"/>
        <pt x="530" y="390" on="1"/>
        <pt x="530" y="698" on="1"/>
        <pt x="614" y="698" on="1"/>
        <pt x="614" y="0" on="1"/>
        <pt x="530" y="0" on="1"/>
      </contour>
    </TTGlyph>
    <TTGlyph name="Hbar" xMin="27" yMin="0" xMax="686" yMax="698">
      <contour>
        <pt x="533" y="316" on="1"/>
        <pt x="180" y="316" on="1"/>
        <pt x="180" y="0" on="1"/>
        <pt x="96" y="0" on="1"/>
        <pt x="96" y="518" on="1"/>
        <pt x="27" y="518" on="1"/>
        <pt x="27" y="582" on="1"/>
        <pt x="96" y="582" on="1"/>
        <pt x="96" y="698" on="1"/>
        <pt x="180" y="698" on="1"/>
        <pt x="180" y="582" on="1"/>
        <pt x="533" y="582" on="1"/>
        <pt x="533" y="698" on="1"/>
        <pt x="617" y="698" on="1"/>
        <pt x="617" y="582" on="1"/>
        <pt x="686" y="582" on="1"/>
        <pt x="686" y="518" on="1"/>
        <pt x="617" y="518" on="1"/>
        <pt x="617" y="0" on="1"/>
        <pt x="533" y="0" on="1"/>
      </contour>
      <contour>
        <pt x="533" y="390" on="1"/>
        <pt x="533" y="518" on="1"/>
        <pt x="180" y="518" on="1"/>
        <pt x="180" y="390" on="1"/>
      </contour>
    </TTGlyph>
    <TTGlyph name="Hcircumflex" xMin="93" yMin="0" xMax="614" yMax="935">
      <component glyphName="H" x="0" y="0" flags="0x204"/>
      <component glyphName="circumflex.case" x="54" y="0" flags="0x4"/>
    </TTGlyph>
    <TTGlyph name="I" xMin="60" yMin="0" xMax="340" yMax="698">
      <contour>
        <pt x="60" y="0" on="1"/>
        <pt x="60" y="70" on="1"/>
        <pt x="158" y="70" on="1"/>
        <pt x="158" y="628" on="1"/>
        <pt x="60" y="628" on="1"/>
        <pt x="60" y="698" on="1"/>
        <pt x="340" y="698" on="1"/>
        <pt x="340" y="628" on="1"/>
        <pt x="242" y="628" on="1"/>
        <pt x="242" y="70" on="1"/>
        <pt x="340" y="70" on="1"/>
        <pt x="340" y="0" on="1"/>
      </contour>
    </TTGlyph>
    <TTGlyph name="IJ" xMin="88" yMin="-12" xMax="557" yMax="698">
      <contour>
        <pt x="557" y="698" on="1"/>
        <pt x="557" y="225" on="1"/>
        <pt x="557" y="114" on="0"/>
        <pt x="432" y="-12" on="0"/>
        <pt x="320" y="-12" on="1"/>
        <pt x="270" y="-12" on="0"/>
        <pt x="192" y="13" on="0"/>
        <pt x="136" y="58" on="0"/>
        <pt x="100" y="118" on="0"/>
        <pt x="93" y="154" on="1"/>
        <pt x="169" y="172" on="1"/>
        <pt x="175" y="149" on="0"/>
        <pt x="198" y="109" on="0"/>
        <pt x="235" y="80" on="0"/>
        <pt x="288" y="63" on="0"/>
        <pt x="323" y="63" on="1"/>
        <pt x="393" y="63" on="0"/>
        <pt x="473" y="133" on="0"/>
        <pt x="473" y="208" on="1"/>
        <pt x="473" y="623" on="1"/>
        <pt x="321" y="623" on="1"/>
        <pt x="321" y="698" on="1"/>
      </contour>
      <contour>
        <pt x="88" y="698" on="1"/>
        <pt x="172" y="698" on="1"/>
        <pt x="172" y="290" on="1"/>
        <pt x="88" y="290" on="1"/>
      </contour>
    </TTGlyph>
    <TTGlyph name="IJacute" xMin="85" yMin="-12" xMax="557" yMax="949">
      <component glyphName="IJ" x="0" y="0" flags="0x204"/>
      <component glyphName="acute.case" x="-170" y="0" flags="0x4"/>
      <component glyphName="acute.case" x="139" y="0" flags="0x4"/>
    </TTGlyph>
    <TTGlyph name="Iacute" xMin="60" yMin="0" xMax="340" yMax="949">
      <component glyphName="I" x="0" y="0" flags="0x204"/>
      <component glyphName="acute.case" x="-99" y="0" flags="0x4"/>
    </TTGlyph>
    <TTGlyph name="Ibreve" xMin="49" yMin="0" xMax="353" yMax="913">
      <component glyphName="I" x="0" y="0" flags="0x204"/>
      <component glyphName="breve.case" x="-99" y="0" flags="0x4"/>
    </TTGlyph>
    <TTGlyph name="Icircumflex" xMin="40" yMin="0" xMax="362" yMax="935">
      <component glyphName="I" x="0" y="0" flags="0x204"/>
      <component glyphName="circumflex.case" x="-99" y="0" flags="0x4"/>
    </TTGlyph>
    <TTGlyph name="Idieresis" xMin="58" yMin="0" xMax="344" yMax="894">
      <component glyphName="I" x="0" y="0" flags="0x204"/>
      <component glyphName="dieresis.case" x="-99" y="0" flags="0x4"/>
    </TTGlyph>
    <TTGlyph name="Idotaccent" xMin="60" yMin="0" xMax="340" yMax="900">
      <component glyphName="I" x="0" y="0" flags="0x204"/>
      <component glyphName="dotaccent.case" x="-99" y="0" flags="0x4"/>
    </TTGlyph>
    <TTGlyph name="Igrave" xMin="60" yMin="0" xMax="340" yMax="949">
      <component glyphName="I" x="0" y="0" flags="0x204"/>
      <component glyphName="grave.case" x="-99" y="0" flags="0x4"/>
    </TTGlyph>
    <TTGlyph name="Imacron" xMin="60" yMin="0" xMax="341" yMax="875">
      <component glyphName="I" x="0" y="0" flags="0x204"/>
      <component glyphName="macron.case" x="-99" y="0" flags="0x4"/>
    </TTGlyph>
    <TTGlyph name="Iogonek" xMin="60" yMin="-207" xMax="361" yMax="698">
      <contour>
        <pt x="60" y="70" on="1"/>
        <pt x="158" y="70" on="1"/>
        <pt x="158" y="628" on="1"/>
        <pt x="60" y="628" on="1"/>
        <pt x="60" y="698" on="1"/>
        <pt x="340" y="698" on="1"/>
        <pt x="340" y="628" on="1"/>
        <pt x="242" y="628" on="1"/>
        <pt x="242" y="70" on="1"/>
        <pt x="340" y="70" on="1"/>
        <pt x="340" y="0" on="1"/>
        <pt x="308" y="-29" on="0"/>
        <pt x="270" y="-69" on="0"/>
        <pt x="249" y="-96" on="0"/>
        <pt x="242" y="-115" on="0"/>
        <pt x="242" y="-123" on="1"/>
        <pt x="242" y="-140" on="0"/>
        <pt x="259" y="-153" on="0"/>
        <pt x="273" y="-153" on="1"/>
        <pt x="302" y="-153" on="0"/>
        <pt x="321" y="-129" on="1"/>
        <pt x="361" y="-168" on="1"/>
        <pt x="352" y="-184" on="0"/>
        <pt x="308" y="-207" on="0"/>
        <pt x="273" y="-207" on="1"/>
        <pt x="234" y="-207" on="0"/>
        <pt x="178" y="-171" on="0"/>
        <pt x="178" y="-131" on="1"/>
        <pt x="178" y="-93" on="0"/>
        <pt x="231" y="-37" on="0"/>
        <pt x="279" y="-5" on="1"/>
        <pt x="278" y="0" on="1"/>
        <pt x="60" y="0" on="1"/>
      </contour>
    </TTGlyph>
    <TTGlyph name="Iota" xMin="60" yMin="0" xMax="340" yMax="698">
      <component glyphName="I" x="0" y="0" flags="0x204"/>
    </TTGlyph>
    <TTGlyph name="Iotadieresis" xMin="58" yMin="0" xMax="344" yMax="894">
      <component glyphName="I" x="0" y="0" flags="0x204"/>
      <component glyphName="dieresis.case" x="-99" y="0" flags="0x4"/>
    </TTGlyph>
    <TTGlyph name="Iotatonos" xMin="-24" yMin="0" xMax="399" yMax="780">
      <component glyphName="I" x="59" y="0" flags="0x4"/>
      <component glyphName="tonos.case" x="-303" y="0" flags="0x4"/>
    </TTGlyph>
    <TTGlyph name="Itilde" xMin="33" yMin="0" xMax="369" yMax="898">
      <component glyphName="I" x="0" y="0" flags="0x204"/>
      <component glyphName="tilde.case" x="-99" y="0" flags="0x4"/>
    </TTGlyph>
    <TTGlyph name="J" xMin="28" yMin="-12" xMax="422" yMax="698">
      <contour>
        <pt x="422" y="698" on="1"/>
        <pt x="422" y="181" on="1"/>
        <pt x="422" y="137" on="0"/>
        <pt x="393" y="65" on="0"/>
        <pt x="340" y="15" on="0"/>
        <pt x="266" y="-12" on="0"/>
        <pt x="222" y="-12" on="1"/>
        <pt x="141" y="-12" on="0"/>
        <pt x="42" y="75" on="0"/>
        <pt x="28" y="147" on="1"/>
        <pt x="104" y="165" on="1"/>
        <pt x="114" y="120" on="0"/>
        <pt x="170" y="63" on="0"/>
        <pt x="224" y="63" on="1"/>
        <pt x="278" y="63" on="0"/>
        <pt x="338" y="129" on="0"/>
        <pt x="338" y="196" on="1"/>
        <pt x="338" y="624" on="1"/>
        <pt x="98" y="624" on="1"/>
        <pt x="98" y="698" on="1"/>
      </contour>
    </TTGlyph>
    <TTGlyph name="Jacute" xMin="28" yMin="-12" xMax="422" yMax="949">
      <component glyphName="J" x="0" y="0" flags="0x204"/>
      <component glyphName="acute.case" x="-36" y="0" flags="0x4"/>
    </TTGlyph>
    <TTGlyph name="Jcircumflex" xMin="28" yMin="-12" xMax="425" yMax="935">
      <component glyphName="J" x="0" y="0" flags="0x204"/>
      <component glyphName="circumflex.case" x="-36" y="0" flags="0x4"/>
    </TTGlyph>
    <TTGlyph name="K" xMin="93" yMin="0" xMax="612" yMax="698">
      <contour>
        <pt x="276" y="343" on="1"/>
        <pt x="177" y="233" on="1"/>
        <pt x="177" y="0" on="1"/>
        <pt x="93" y="0" on="1"/>
        <pt x="93" y="698" on="1"/>
        <pt x="177" y="698" on="1"/>
        <pt x="177" y="327" on="1"/>
        <pt x="180" y="327" on="1"/>
        <pt x="280" y="448" on="1"/>
        <pt x="491" y="698" on="1"/>
        <pt x="594" y="698" on="1"/>
        <pt x="334" y="399" on="1"/>
        <pt x="612" y="0" on="1"/>
        <pt x="508" y="0" on="1"/>
      </contour>
    </TTGlyph>
    <TTGlyph name="Kappa" xMin="93" yMin="0" xMax="612" yMax="698">
      <component glyphName="K" x="0" y="0" flags="0x204"/>
    </TTGlyph>
    <TTGlyph name="Kcommaaccent" xMin="93" yMin="-245" xMax="612" yMax="698">
      <component glyphName="K" x="0" y="0" flags="0x204"/>
      <component glyphName="uni0326" x="336" y="0" flags="0x4"/>
    </TTGlyph>
    <TTGlyph name="L" xMin="93" yMin="0" xMax="474" yMax="698">
      <contour>
        <pt x="93" y="0" on="1"/>
        <pt x="93" y="698" on="1"/>
        <pt x="177" y="698" on="1"/>
        <pt x="177" y="74" on="1"/>
        <pt x="474" y="74" on="1"/>
        <pt x="474" y="0" on="1"/>
      </contour>
    </TTGlyph>
    <TTGlyph name="Lacute" xMin="91" yMin="0" xMax="474" yMax="949">
      <component glyphName="L" x="0" y="0" flags="0x204"/>
      <component glyphName="acute.case" x="-164" y="0" flags="0x4"/>
    </TTGlyph>
    <TTGlyph name="Lambda" xMin="23" yMin="0" xMax="606" yMax="698">
      <contour>
        <pt x="368" y="698" on="1"/>
        <pt x="606" y="0" on="1"/>
        <pt x="518" y="0" on="1"/>
        <pt x="403" y="352" on="1"/>
        <pt x="315" y="620" on="1"/>
        <pt x="310" y="620" on="1"/>
        <pt x="223" y="352" on="1"/>
        <pt x="108" y="0" on="1"/>
        <pt x="23" y="0" on="1"/>
        <pt x="261" y="698" on="1"/>
      </contour>
    </TTGlyph>
    <TTGlyph name="Lcaron" xMin="93" yMin="0" xMax="474" yMax="740">
      <component glyphName="L" x="0" y="0" flags="0x204"/>
      <component glyphName="uni02BC" x="-44" y="0" flags="0x4"/>
    </TTGlyph>
    <TTGlyph name="Lcommaaccent" xMin="93" yMin="-245" xMax="474" yMax="698">
      <component glyphName="L" x="0" y="0" flags="0x204"/>
      <component glyphName="uni0326" x="298" y="0" flags="0x4"/>
    </TTGlyph>
    <TTGlyph name="Ldot" xMin="93" yMin="0" xMax="474" yMax="698">
      <component glyphName="L" x="0" y="0" flags="0x204"/>
      <component glyphName="dotaccent" x="85" y="-323" flags="0x4"/>
    </TTGlyph>
    <TTGlyph name="Lslash" xMin="-7" yMin="0" xMax="477" yMax="698">
      <contour>
        <pt x="477" y="0" on="1"/>
        <pt x="96" y="0" on="1"/>
        <pt x="96" y="271" on="1"/>
        <pt x="-7" y="237" on="1"/>
        <pt x="-7" y="304" on="1"/>
        <pt x="96" y="339" on="1"/>
        <pt x="96" y="698" on="1"/>
        <pt x="180" y="698" on="1"/>
        <pt x="180" y="367" on="1"/>
        <pt x="361" y="428" on="1"/>
        <pt x="361" y="357" on="1"/>
        <pt x="180" y="298" on="1"/>
        <pt x="180" y="75" on="1"/>
        <pt x="477" y="75" on="1"/>
      </contour>
    </TTGlyph>
    <TTGlyph name="M" xMin="93" yMin="0" xMax="719" yMax="698">
      <contour>
        <pt x="637" y="588" on="1"/>
        <pt x="632" y="588" on="1"/>
        <pt x="573" y="471" on="1"/>
        <pt x="406" y="167" on="1"/>
        <pt x="239" y="471" on="1"/>
        <pt x="180" y="588" on="1"/>
        <pt x="175" y="588" on="1"/>
        <pt x="175" y="0" on="1"/>
        <pt x="93" y="0" on="1"/>
        <pt x="93" y="698" on="1"/>
        <pt x="205" y="698" on="1"/>
        <pt x="405" y="322" on="1"/>
        <pt x="410" y="322" on="1"/>
        <pt x="611" y="698" on="1"/>
        <pt x="719" y="698" on="1"/>
        <pt x="719" y="0" on="1"/>
        <pt x="637" y="0" on="1"/>
      </contour>
    </TTGlyph>
    <TTGlyph name="Mu" xMin="93" yMin="0" xMax="719" yMax="698">
      <component glyphName="M" x="0" y="0" flags="0x204"/>
    </TTGlyph>
    <TTGlyph name="N" xMin="93" yMin="0" xMax="614" yMax="698">
      <contour>
        <pt x="262" y="426" on="1"/>
        <pt x="178" y="581" on="1"/>
        <pt x="175" y="581" on="1"/>
        <pt x="175" y="0" on="1"/>
        <pt x="93" y="0" on="1"/>
        <pt x="93" y="698" on="1"/>
        <pt x="190" y="698" on="1"/>
        <pt x="445" y="272" on="1"/>
        <pt x="529" y="117" on="1"/>
        <pt x="532" y="117" on="1"/>
        <pt x="532" y="698" on="1"/>
        <pt x="614" y="698" on="1"/>
        <pt x="614" y="0" on="1"/>
        <pt x="517" y="0" on="1"/>
      </contour>
    </TTGlyph>
    <TTGlyph name="Nacute" xMin="93" yMin="0" xMax="614" yMax="949">
      <component glyphName="N" x="0" y="0" flags="0x204"/>
      <component glyphName="acute.case" x="53" y="0" flags="0x4"/>
    </TTGlyph>
    <TTGlyph name="Ncaron" xMin="93" yMin="0" xMax="614" yMax="943">
      <component glyphName="N" x="0" y="0" flags="0x204"/>
      <component glyphName="caron.case" x="53" y="0" flags="0x4"/>
    </TTGlyph>
    <TTGlyph name="Ncommaaccent" xMin="93" yMin="-245" xMax="614" yMax="698">
      <component glyphName="N" x="0" y="0" flags="0x204"/>
      <component glyphName="uni0326" x="353" y="0" flags="0x4"/>
    </TTGlyph>
    <TTGlyph name="Ntilde" xMin="93" yMin="0" xMax="614" yMax="898">
      <component glyphName="N" x="0" y="0" flags="0x204"/>
      <component glyphName="tilde.case" x="53" y="0" flags="0x4"/>
    </TTGlyph>
    <TTGlyph name="Nu" xMin="93" yMin="0" xMax="614" yMax="698">
      <component glyphName="N" x="0" y="0" flags="0x204"/>
    </TTGlyph>
    <TTGlyph name="O" xMin="58" yMin="-12" xMax="650" yMax="710">
      <contour>
        <pt x="354" y="-12" on="1"/>
        <pt x="286" y="-12" on="0"/>
        <pt x="177" y="35" on="0"/>
        <pt x="100" y="126" on="0"/>
        <pt x="58" y="261" on="0"/>
        <pt x="58" y="349" on="1"/>
        <pt x="58" y="437" on="0"/>
        <pt x="100" y="571" on="0"/>
        <pt x="177" y="663" on="0"/>
        <pt x="286" y="710" on="0"/>
        <pt x="354" y="710" on="1"/>
        <pt x="421" y="710" on="0"/>
        <pt x="531" y="663" on="0"/>
        <pt x="608" y="571" on="0"/>
        <pt x="650" y="437" on="0"/>
        <pt x="650" y="349" on="1"/>
        <pt x="650" y="261" on="0"/>
        <pt x="608" y="126" on="0"/>
        <pt x="531" y="35" on="0"/>
        <pt x="421" y="-12" on="0"/>
      </contour>
      <contour>
        <pt x="354" y="63" on="1"/>
        <pt x="399" y="63" on="0"/>
        <pt x="475" y="95" on="0"/>
        <pt x="530" y="155" on="0"/>
        <pt x="560" y="239" on="0"/>
        <pt x="560" y="291" on="1"/>
        <pt x="560" y="407" on="1"/>
        <pt x="560" y="459" on="0"/>
        <pt x="530" y="543" on="0"/>
        <pt x="475" y="603" on="0"/>
        <pt x="399" y="635" on="0"/>
        <pt x="354" y="635" on="1"/>
        <pt x="309" y="635" on="0"/>
        <pt x="233" y="603" on="0"/>
        <pt x="178" y="543" on="0"/>
        <pt x="148" y="459" on="0"/>
        <pt x="148" y="407" on="1"/>
        <pt x="148" y="291" on="1"/>
        <pt x="148" y="239" on="0"/>
        <pt x="178" y="155" on="0"/>
        <pt x="233" y="95" on="0"/>
        <pt x="309" y="63" on="0"/>
      </contour>
    </TTGlyph>
    <TTGlyph name="OE" xMin="58" yMin="-12" xMax="921" yMax="710">
      <contour>
        <pt x="495" y="0" on="1"/>
        <pt x="467" y="-5" on="0"/>
        <pt x="396" y="-12" on="0"/>
        <pt x="367" y="-12" on="1"/>
        <pt x="295" y="-12" on="0"/>
        <pt x="180" y="35" on="0"/>
        <pt x="100" y="126" on="0"/>
        <pt x="58" y="261" on="0"/>
        <pt x="58" y="349" on="1"/>
        <pt x="58" y="437" on="0"/>
        <pt x="100" y="572" on="0"/>
        <pt x="180" y="663" on="0"/>
        <pt x="295" y="710" on="0"/>
        <pt x="367" y="710" on="1"/>
        <pt x="396" y="710" on="0"/>
        <pt x="467" y="703" on="0"/>
        <pt x="495" y="698" on="1"/>
        <pt x="921" y="698" on="1"/>
        <pt x="921" y="624" on="1"/>
        <pt x="578" y="624" on="1"/>
        <pt x="578" y="390" on="1"/>
        <pt x="901" y="390" on="1"/>
        <pt x="901" y="316" on="1"/>
        <pt x="578" y="316" on="1"/>
        <pt x="578" y="74" on="1"/>
        <pt x="921" y="74" on="1"/>
        <pt x="921" y="0" on="1"/>
      </contour>
      <contour>
        <pt x="377" y="63" on="1"/>
        <pt x="405" y="63" on="0"/>
        <pt x="467" y="72" on="0"/>
        <pt x="494" y="81" on="1"/>
        <pt x="494" y="617" on="1"/>
        <pt x="467" y="626" on="0"/>
        <pt x="405" y="635" on="0"/>
        <pt x="377" y="635" on="1"/>
        <pt x="318" y="635" on="0"/>
        <pt x="232" y="603" on="0"/>
        <pt x="176" y="543" on="0"/>
        <pt x="148" y="459" on="0"/>
        <pt x="148" y="407" on="1"/>
        <pt x="148" y="291" on="1"/>
        <pt x="148" y="239" on="0"/>
        <pt x="176" y="155" on="0"/>
        <pt x="232" y="95" on="0"/>
        <pt x="318" y="63" on="0"/>
      </contour>
    </TTGlyph>
    <TTGlyph name="Oacute" xMin="58" yMin="-12" xMax="650" yMax="949">
      <component glyphName="O" x="0" y="0" flags="0x204"/>
      <component glyphName="acute.case" x="54" y="0" flags="0x4"/>
    </TTGlyph>
    <TTGlyph name="Obreve" xMin="58" yMin="-12" xMax="650" yMax="913">
      <component glyphName="O" x="0" y="0" flags="0x204"/>
      <component glyphName="breve.case" x="54" y="0" flags="0x4"/>
    </TTGlyph>
    <TTGlyph name="Ocircumflex" xMin="58" yMin="-12" xMax="650" yMax="935">
      <component glyphName="O" x="0" y="0" flags="0x204"/>
      <component glyphName="circumflex.case" x="54" y="0" flags="0x4"/>
    </TTGlyph>
    <TTGlyph name="Odieresis" xMin="58" yMin="-12" xMax="650" yMax="894">
      <component glyphName="O" x="0" y="0" flags="0x204"/>
      <component glyphName="dieresis.case" x="54" y="0" flags="0x4"/>
    </TTGlyph>
    <TTGlyph name="Ograve" xMin="58" yMin="-12" xMax="650" yMax="949">
      <component glyphName="O" x="0" y="0" flags="0x204"/>
      <component glyphName="grave.case" x="54" y="0" flags="0x4"/>
    </TTGlyph>
    <TTGlyph name="Ohorn" xMin="58" yMin="-12" xMax="656" yMax="810">
      <contour>
        <pt x="656" y="810" on="1"/>
        <pt x="656" y="710" on="1"/>
        <pt x="656" y="683" on="0"/>
        <pt x="631" y="647" on="0"/>
        <pt x="593" y="647" on="1"/>
        <pt x="540" y="647" on="1"/>
        <pt x="600" y="594" on="0"/>
        <pt x="650" y="444" on="0"/>
        <pt x="650" y="349" on="1"/>
        <pt x="650" y="261" on="0"/>
        <pt x="608" y="126" on="0"/>
        <pt x="531" y="35" on="0"/>
        <pt x="421" y="-12" on="0"/>
        <pt x="354" y="-12" on="1"/>
        <pt x="286" y="-12" on="0"/>
        <pt x="177" y="35" on="0"/>
        <pt x="100" y="126" on="0"/>
        <pt x="58" y="261" on="0"/>
        <pt x="58" y="349" on="1"/>
        <pt x="58" y="437" on="0"/>
        <pt x="100" y="571" on="0"/>
        <pt x="177" y="663" on="0"/>
        <pt x="286" y="710" on="0"/>
        <pt x="354" y="710" on="1"/>
        <pt x="402" y="710" on="0"/>
        <pt x="444" y="698" on="1"/>
        <pt x="585" y="698" on="1"/>
        <pt x="585" y="810" on="1"/>
      </contour>
      <contour>
        <pt x="354" y="63" on="1"/>
        <pt x="399" y="63" on="0"/>
        <pt x="475" y="95" on="0"/>
        <pt x="530" y="155" on="0"/>
        <pt x="560" y="239" on="0"/>
        <pt x="560" y="291" on="1"/>
        <pt x="560" y="407" on="1"/>
        <pt x="560" y="459" on="0"/>
        <pt x="530" y="543" on="0"/>
        <pt x="475" y="603" on="0"/>
        <pt x="399" y="635" on="0"/>
        <pt x="354" y="635" on="1"/>
        <pt x="309" y="635" on="0"/>
        <pt x="233" y="603" on="0"/>
        <pt x="178" y="543" on="0"/>
        <pt x="148" y="459" on="0"/>
        <pt x="148" y="407" on="1"/>
        <pt x="148" y="291" on="1"/>
        <pt x="148" y="239" on="0"/>
        <pt x="178" y="155" on="0"/>
        <pt x="233" y="95" on="0"/>
        <pt x="309" y="63" on="0"/>
      </contour>
    </TTGlyph>
    <TTGlyph name="Ohungarumlaut" xMin="58" yMin="-12" xMax="650" yMax="948">
      <component glyphName="O" x="0" y="0" flags="0x204"/>
      <component glyphName="hungarumlaut.case" x="54" y="0" flags="0x4"/>
    </TTGlyph>
    <TTGlyph name="Omacron" xMin="58" yMin="-12" xMax="650" yMax="875">
      <component glyphName="O" x="0" y="0" flags="0x204"/>
      <component glyphName="macron.case" x="54" y="0" flags="0x4"/>
    </TTGlyph>
    <TTGlyph name="Omega" xMin="58" yMin="0" xMax="658" yMax="710">
      <contour>
        <pt x="58" y="74" on="1"/>
        <pt x="217" y="74" on="1"/>
        <pt x="217" y="84" on="1"/>
        <pt x="186" y="101" on="0"/>
        <pt x="130" y="155" on="0"/>
        <pt x="87" y="229" on="0"/>
        <pt x="62" y="322" on="0"/>
        <pt x="62" y="378" on="1"/>
        <pt x="62" y="439" on="0"/>
        <pt x="97" y="559" on="0"/>
        <pt x="169" y="652" on="0"/>
        <pt x="281" y="710" on="0"/>
        <pt x="358" y="710" on="1"/>
        <pt x="435" y="710" on="0"/>
        <pt x="547" y="652" on="0"/>
        <pt x="619" y="559" on="0"/>
        <pt x="654" y="439" on="0"/>
        <pt x="654" y="378" on="1"/>
        <pt x="654" y="322" on="0"/>
        <pt x="629" y="229" on="0"/>
        <pt x="586" y="155" on="0"/>
        <pt x="530" y="101" on="0"/>
        <pt x="499" y="84" on="1"/>
        <pt x="499" y="74" on="1"/>
        <pt x="658" y="74" on="1"/>
        <pt x="658" y="0" on="1"/>
        <pt x="428" y="0" on="1"/>
        <pt x="428" y="111" on="1"/>
        <pt x="452" y="120" on="0"/>
        <pt x="500" y="165" on="0"/>
        <pt x="539" y="227" on="0"/>
        <pt x="564" y="302" on="0"/>
        <pt x="564" y="341" on="1"/>
        <pt x="564" y="431" on="1"/>
        <pt x="564" y="467" on="0"/>
        <pt x="536" y="540" on="0"/>
        <pt x="483" y="599" on="0"/>
        <pt x="407" y="635" on="0"/>
        <pt x="358" y="635" on="1"/>
        <pt x="309" y="635" on="0"/>
        <pt x="233" y="599" on="0"/>
        <pt x="180" y="540" on="0"/>
        <pt x="152" y="467" on="0"/>
        <pt x="152" y="431" on="1"/>
        <pt x="152" y="341" on="1"/>
        <pt x="152" y="302" on="0"/>
        <pt x="176" y="227" on="0"/>
        <pt x="215" y="165" on="0"/>
        <pt x="264" y="120" on="0"/>
        <pt x="288" y="111" on="1"/>
        <pt x="288" y="0" on="1"/>
        <pt x="58" y="0" on="1"/>
      </contour>
    </TTGlyph>
    <TTGlyph name="Omegatonos" xMin="-24" yMin="0" xMax="658" yMax="780">
      <component glyphName="Omega" x="0" y="0" flags="0x204"/>
      <component glyphName="tonos.case" x="-303" y="0" flags="0x4"/>
    </TTGlyph>
    <TTGlyph name="Omicron" xMin="58" yMin="-12" xMax="650" yMax="710">
      <component glyphName="O" x="0" y="0" flags="0x204"/>
    </TTGlyph>
    <TTGlyph name="Omicrontonos" xMin="-24" yMin="-12" xMax="654" yMax="780">
      <component glyphName="O" x="4" y="0" flags="0x4"/>
      <component glyphName="tonos.case" x="-303" y="0" flags="0x4"/>
    </TTGlyph>
    <TTGlyph name="Oslash" xMin="58" yMin="-45" xMax="650" yMax="743">
      <contour>
        <pt x="354" y="-12" on="1"/>
        <pt x="252" y="-12" on="0"/>
        <pt x="181" y="41" on="1"/>
        <pt x="121" y="-45" on="1"/>
        <pt x="64" y="-8" on="1"/>
        <pt x="132" y="89" on="1"/>
        <pt x="96" y="135" on="0"/>
        <pt x="58" y="264" on="0"/>
        <pt x="58" y="349" on="1"/>
        <pt x="58" y="437" on="0"/>
        <pt x="100" y="571" on="0"/>
        <pt x="177" y="663" on="0"/>
        <pt x="286" y="710" on="0"/>
        <pt x="354" y="710" on="1"/>
        <pt x="456" y="710" on="0"/>
        <pt x="527" y="657" on="1"/>
        <pt x="587" y="743" on="1"/>
        <pt x="644" y="706" on="1"/>
        <pt x="576" y="609" on="1"/>
        <pt x="612" y="563" on="0"/>
        <pt x="650" y="434" on="0"/>
        <pt x="650" y="349" on="1"/>
        <pt x="650" y="261" on="0"/>
        <pt x="608" y="126" on="0"/>
        <pt x="531" y="35" on="0"/>
        <pt x="421" y="-12" on="0"/>
      </contour>
      <contour>
        <pt x="148" y="291" on="1"/>
        <pt x="148" y="253" on="0"/>
        <pt x="165" y="187" on="0"/>
        <pt x="180" y="160" on="1"/>
        <pt x="482" y="592" on="1"/>
        <pt x="430" y="635" on="0"/>
        <pt x="354" y="635" on="1"/>
        <pt x="309" y="635" on="0"/>
        <pt x="233" y="603" on="0"/>
        <pt x="178" y="543" on="0"/>
        <pt x="148" y="459" on="0"/>
        <pt x="148" y="407" on="1"/>
      </contour>
      <contour>
        <pt x="560" y="407" on="1"/>
        <pt x="560" y="445" on="0"/>
        <pt x="543" y="511" on="0"/>
        <pt x="528" y="538" on="1"/>
        <pt x="226" y="106" on="1"/>
        <pt x="278" y="63" on="0"/>
        <pt x="354" y="63" on="1"/>
        <pt x="399" y="63" on="0"/>
        <pt x="475" y="95" on="0"/>
        <pt x="530" y="155" on="0"/>
        <pt x="560" y="239" on="0"/>
        <pt x="560" y="291" on="1"/>
      </contour>
    </TTGlyph>
    <TTGlyph name="Oslashacute" xMin="58" yMin="-45" xMax="650" yMax="949">
      <component glyphName="Oslash" x="0" y="0" flags="0x204"/>
      <component glyphName="acute.case" x="54" y="0" flags="0x4"/>
    </TTGlyph>
    <TTGlyph name="Otilde" xMin="58" yMin="-12" xMax="650" yMax="898">
      <component glyphName="O" x="0" y="0" flags="0x204"/>
      <component glyphName="tilde.case" x="54" y="0" flags="0x4"/>
    </TTGlyph>
    <TTGlyph name="P" xMin="93" yMin="0" xMax="566" yMax="698">
      <contour>
        <pt x="93" y="0" on="1"/>
        <pt x="93" y="698" on="1"/>
        <pt x="371" y="698" on="1"/>
        <pt x="465" y="698" on="0"/>
        <pt x="566" y="591" on="0"/>
        <pt x="566" y="498" on="1"/>
        <pt x="566" y="405" on="0"/>
        <pt x="465" y="298" on="0"/>
        <pt x="371" y="298" on="1"/>
        <pt x="177" y="298" on="1"/>
        <pt x="177" y="0" on="1"/>
      </contour>
      <contour>
        <pt x="177" y="372" on="1"/>
        <pt x="371" y="372" on="1"/>
        <pt x="421" y="372" on="0"/>
        <pt x="476" y="424" on="0"/>
        <pt x="476" y="472" on="1"/>
        <pt x="476" y="524" on="1"/>
        <pt x="476" y="572" on="0"/>
        <pt x="421" y="624" on="0"/>
        <pt x="371" y="624" on="1"/>
        <pt x="177" y="624" on="1"/>
      </contour>
    </TTGlyph>
    <TTGlyph name="Phi" xMin="54" yMin="-29" xMax="798" yMax="725">
      <contour>
        <pt x="384" y="31" on="1"/>
        <pt x="366" y="31" on="1"/>
        <pt x="290" y="31" on="0"/>
        <pt x="174" y="80" on="0"/>
        <pt x="95" y="167" on="0"/>
        <pt x="54" y="285" on="0"/>
        <pt x="54" y="354" on="1"/>
        <pt x="54" y="423" on="0"/>
        <pt x="95" y="541" on="0"/>
        <pt x="174" y="628" on="0"/>
        <pt x="290" y="677" on="0"/>
        <pt x="366" y="677" on="1"/>
        <pt x="384" y="677" on="1"/>
        <pt x="384" y="725" on="1"/>
        <pt x="468" y="725" on="1"/>
        <pt x="468" y="677" on="1"/>
        <pt x="486" y="677" on="1"/>
        <pt x="562" y="677" on="0"/>
        <pt x="678" y="628" on="0"/>
        <pt x="757" y="541" on="0"/>
        <pt x="798" y="423" on="0"/>
        <pt x="798" y="354" on="1"/>
        <pt x="798" y="285" on="0"/>
        <pt x="757" y="167" on="0"/>
        <pt x="678" y="80" on="0"/>
        <pt x="562" y="31" on="0"/>
        <pt x="486" y="31" on="1"/>
        <pt x="468" y="31" on="1"/>
        <pt x="468" y="-29" on="1"/>
        <pt x="384" y="-29" on="1"/>
      </contour>
      <contour>
        <pt x="386" y="607" on="1"/>
        <pt x="366" y="607" on="1"/>
        <pt x="315" y="607" on="0"/>
        <pt x="233" y="573" on="0"/>
        <pt x="175" y="513" on="0"/>
        <pt x="144" y="432" on="0"/>
        <pt x="144" y="385" on="1"/>
        <pt x="144" y="323" on="1"/>
        <pt x="144" y="276" on="0"/>
        <pt x="175" y="195" on="0"/>
        <pt x="233" y="135" on="0"/>
        <pt x="315" y="101" on="0"/>
        <pt x="366" y="101" on="1"/>
        <pt x="386" y="101" on="1"/>
      </contour>
      <contour>
        <pt x="486" y="101" on="1"/>
        <pt x="537" y="101" on="0"/>
        <pt x="619" y="135" on="0"/>
        <pt x="677" y="195" on="0"/>
        <pt x="708" y="276" on="0"/>
        <pt x="708" y="323" on="1"/>
        <pt x="708" y="385" on="1"/>
        <pt x="708" y="432" on="0"/>
        <pt x="677" y="513" on="0"/>
        <pt x="619" y="573" on="0"/>
        <pt x="537" y="607" on="0"/>
        <pt x="486" y="607" on="1"/>
        <pt x="466" y="607" on="1"/>
        <pt x="466" y="101" on="1"/>
      </contour>
    </TTGlyph>
    <TTGlyph name="Pi" xMin="93" yMin="0" xMax="600" yMax="698">
      <component glyphName="uni041F" x="0" y="0" flags="0x204"/>
    </TTGlyph>
    <TTGlyph name="Psi" xMin="68" yMin="0" xMax="722" yMax="698">
      <contour>
        <pt x="353" y="203" on="1"/>
        <pt x="290" y="203" on="0"/>
        <pt x="185" y="235" on="0"/>
        <pt x="110" y="300" on="0"/>
        <pt x="68" y="400" on="0"/>
        <pt x="68" y="468" on="1"/>
        <pt x="68" y="698" on="1"/>
        <pt x="152" y="698" on="1"/>
        <pt x="152" y="468" on="1"/>
        <pt x="152" y="413" on="0"/>
        <pt x="183" y="339" on="0"/>
        <pt x="238" y="293" on="0"/>
        <pt x="311" y="273" on="0"/>
        <pt x="353" y="273" on="1"/>
        <pt x="353" y="698" on="1"/>
        <pt x="437" y="698" on="1"/>
        <pt x="437" y="273" on="1"/>
        <pt x="479" y="273" on="0"/>
        <pt x="552" y="293" on="0"/>
        <pt x="607" y="339" on="0"/>
        <pt x="638" y="413" on="0"/>
        <pt x="638" y="468" on="1"/>
        <pt x="638" y="698" on="1"/>
        <pt x="722" y="698" on="1"/>
        <pt x="722" y="468" on="1"/>
        <pt x="722" y="400" on="0"/>
        <pt x="680" y="300" on="0"/>
        <pt x="605" y="235" on="0"/>
        <pt x="500" y="203" on="0"/>
        <pt x="437" y="203" on="1"/>
        <pt x="437" y="0" on="1"/>
        <pt x="353" y="0" on="1"/>
      </contour>
    </TTGlyph>
    <TTGlyph name="Q" xMin="58" yMin="-164" xMax="650" yMax="710">
      <contour>
        <pt x="508" y="-164" on="1"/>
        <pt x="405" y="-164" on="1"/>
        <pt x="363" y="-164" on="0"/>
        <pt x="321" y="-117" on="0"/>
        <pt x="321" y="-82" on="1"/>
        <pt x="321" y="-11" on="1"/>
        <pt x="261" y="-5" on="0"/>
        <pt x="163" y="47" on="0"/>
        <pt x="95" y="138" on="0"/>
        <pt x="58" y="267" on="0"/>
        <pt x="58" y="349" on="1"/>
        <pt x="58" y="437" on="0"/>
        <pt x="100" y="571" on="0"/>
        <pt x="177" y="663" on="0"/>
        <pt x="286" y="710" on="0"/>
        <pt x="354" y="710" on="1"/>
        <pt x="421" y="710" on="0"/>
        <pt x="531" y="663" on="0"/>
        <pt x="608" y="571" on="0"/>
        <pt x="650" y="437" on="0"/>
        <pt x="650" y="349" on="1"/>
        <pt x="650" y="188" on="0"/>
        <pt x="516" y="7" on="0"/>
        <pt x="401" y="-9" on="1"/>
        <pt x="401" y="-94" on="1"/>
        <pt x="508" y="-94" on="1"/>
      </contour>
      <contour>
        <pt x="354" y="63" on="1"/>
        <pt x="399" y="63" on="0"/>
        <pt x="475" y="95" on="0"/>
        <pt x="530" y="155" on="0"/>
        <pt x="560" y="239" on="0"/>
        <pt x="560" y="291" on="1"/>
        <pt x="560" y="407" on="1"/>
        <pt x="560" y="459" on="0"/>
        <pt x="530" y="543" on="0"/>
        <pt x="475" y="603" on="0"/>
        <pt x="399" y="635" on="0"/>
        <pt x="354" y="635" on="1"/>
        <pt x="309" y="635" on="0"/>
        <pt x="233" y="603" on="0"/>
        <pt x="178" y="543" on="0"/>
        <pt x="148" y="459" on="0"/>
        <pt x="148" y="407" on="1"/>
        <pt x="148" y="291" on="1"/>
        <pt x="148" y="239" on="0"/>
        <pt x="178" y="155" on="0"/>
        <pt x="233" y="95" on="0"/>
        <pt x="309" y="63" on="0"/>
      </contour>
    </TTGlyph>
    <TTGlyph name="R" xMin="93" yMin="0" xMax="586" yMax="698">
      <contour>
        <pt x="177" y="0" on="1"/>
        <pt x="93" y="0" on="1"/>
        <pt x="93" y="698" on="1"/>
        <pt x="371" y="698" on="1"/>
        <pt x="463" y="698" on="0"/>
        <pt x="566" y="596" on="0"/>
        <pt x="566" y="500" on="1"/>
        <pt x="566" y="423" on="0"/>
        <pt x="495" y="324" on="0"/>
        <pt x="426" y="308" on="1"/>
        <pt x="586" y="0" on="1"/>
        <pt x="491" y="0" on="1"/>
        <pt x="340" y="300" on="1"/>
        <pt x="177" y="300" on="1"/>
      </contour>
      <contour>
        <pt x="371" y="372" on="1"/>
        <pt x="421" y="372" on="0"/>
        <pt x="476" y="424" on="0"/>
        <pt x="476" y="472" on="1"/>
        <pt x="476" y="524" on="1"/>
        <pt x="476" y="572" on="0"/>
        <pt x="421" y="624" on="0"/>
        <pt x="371" y="624" on="1"/>
        <pt x="177" y="624" on="1"/>
        <pt x="177" y="372" on="1"/>
      </contour>
    </TTGlyph>
    <TTGlyph name="Racute" xMin="93" yMin="0" xMax="586" yMax="949">
      <component glyphName="R" x="0" y="0" flags="0x204"/>
      <component glyphName="acute.case" x="7" y="0" flags="0x4"/>
    </TTGlyph>
    <TTGlyph name="Rcaron" xMin="93" yMin="0" xMax="586" yMax="943">
      <component glyphName="R" x="0" y="0" flags="0x204"/>
      <component glyphName="caron.case" x="7" y="0" flags="0x4"/>
    </TTGlyph>
    <TTGlyph name="Rcommaaccent" xMin="93" yMin="-245" xMax="586" yMax="698">
      <component glyphName="R" x="0" y="0" flags="0x204"/>
      <component glyphName="uni0326" x="324" y="0" flags="0x4"/>
    </TTGlyph>
    <TTGlyph name="Rho" xMin="93" yMin="0" xMax="566" yMax="698">
      <component glyphName="P" x="0" y="0" flags="0x204"/>
    </TTGlyph>
    <TTGlyph name="S" xMin="42" yMin="-12" xMax="529" yMax="710">
      <contour>
        <pt x="289" y="-12" on="1"/>
        <pt x="204" y="-12" on="0"/>
        <pt x="84" y="53" on="0"/>
        <pt x="42" y="110" on="1"/>
        <pt x="104" y="162" on="1"/>
        <pt x="141" y="113" on="0"/>
        <pt x="231" y="62" on="0"/>
        <pt x="292" y="62" on="1"/>
        <pt x="367" y="62" on="0"/>
        <pt x="446" y="134" on="0"/>
        <pt x="446" y="194" on="1"/>
        <pt x="446" y="244" on="0"/>
        <pt x="386" y="298" on="0"/>
        <pt x="317" y="314" on="1"/>
        <pt x="260" y="327" on="1"/>
        <pt x="164" y="349" on="0"/>
        <pt x="63" y="438" on="0"/>
        <pt x="63" y="519" on="1"/>
        <pt x="63" y="565" on="0"/>
        <pt x="97" y="637" on="0"/>
        <pt x="158" y="685" on="0"/>
        <pt x="243" y="710" on="0"/>
        <pt x="294" y="710" on="1"/>
        <pt x="373" y="710" on="0"/>
        <pt x="486" y="652" on="0"/>
        <pt x="525" y="596" on="1"/>
        <pt x="462" y="550" on="1"/>
        <pt x="433" y="590" on="0"/>
        <pt x="351" y="636" on="0"/>
        <pt x="290" y="636" on="1"/>
        <pt x="223" y="636" on="0"/>
        <pt x="146" y="579" on="0"/>
        <pt x="146" y="522" on="1"/>
        <pt x="146" y="472" on="0"/>
        <pt x="211" y="421" on="0"/>
        <pt x="277" y="406" on="1"/>
        <pt x="334" y="393" on="1"/>
        <pt x="437" y="370" on="0"/>
        <pt x="529" y="276" on="0"/>
        <pt x="529" y="198" on="1"/>
        <pt x="529" y="150" on="0"/>
        <pt x="496" y="72" on="0"/>
        <pt x="434" y="18" on="0"/>
        <pt x="345" y="-12" on="0"/>
      </contour>
    </TTGlyph>
    <TTGlyph name="Sacute" xMin="42" yMin="-12" xMax="529" yMax="949">
      <component glyphName="S" x="0" y="0" flags="0x204"/>
      <component glyphName="acute.case" x="-11" y="0" flags="0x4"/>
    </TTGlyph>
    <TTGlyph name="Scaron" xMin="42" yMin="-12" xMax="529" yMax="943">
      <component glyphName="S" x="0" y="0" flags="0x204"/>
      <component glyphName="caron.case" x="-11" y="0" flags="0x4"/>
    </TTGlyph>
    <TTGlyph name="Scedilla" xMin="42" yMin="-207" xMax="529" yMax="710">
      <contour>
        <pt x="290" y="636" on="1"/>
        <pt x="223" y="636" on="0"/>
        <pt x="146" y="579" on="0"/>
        <pt x="146" y="522" on="1"/>
        <pt x="146" y="472" on="0"/>
        <pt x="211" y="421" on="0"/>
        <pt x="277" y="406" on="1"/>
        <pt x="334" y="393" on="1"/>
        <pt x="437" y="370" on="0"/>
        <pt x="529" y="276" on="0"/>
        <pt x="529" y="198" on="1"/>
        <pt x="529" y="152" on="0"/>
        <pt x="499" y="77" on="0"/>
        <pt x="443" y="23" on="0"/>
        <pt x="361" y="-8" on="0"/>
        <pt x="310" y="-11" on="1"/>
        <pt x="300" y="-61" on="1"/>
        <pt x="303" y="-64" on="1"/>
        <pt x="322" y="-58" on="0"/>
        <pt x="342" y="-58" on="1"/>
        <pt x="371" y="-58" on="0"/>
        <pt x="410" y="-92" on="0"/>
        <pt x="410" y="-124" on="1"/>
        <pt x="410" y="-145" on="0"/>
        <pt x="392" y="-177" on="0"/>
        <pt x="361" y="-197" on="0"/>
        <pt x="321" y="-207" on="0"/>
        <pt x="299" y="-207" on="1"/>
        <pt x="258" y="-207" on="0"/>
        <pt x="211" y="-180" on="0"/>
        <pt x="200" y="-166" on="1"/>
        <pt x="238" y="-125" on="1"/>
        <pt x="247" y="-136" on="0"/>
        <pt x="277" y="-153" on="0"/>
        <pt x="299" y="-153" on="1"/>
        <pt x="318" y="-153" on="0"/>
        <pt x="343" y="-138" on="0"/>
        <pt x="343" y="-122" on="1"/>
        <pt x="343" y="-108" on="0"/>
        <pt x="317" y="-87" on="0"/>
        <pt x="275" y="-81" on="1"/>
        <pt x="247" y="-77" on="1"/>
        <pt x="260" y="-11" on="1"/>
        <pt x="187" y="-6" on="0"/>
        <pt x="80" y="58" on="0"/>
        <pt x="42" y="110" on="1"/>
        <pt x="104" y="162" on="1"/>
        <pt x="141" y="113" on="0"/>
        <pt x="231" y="62" on="0"/>
        <pt x="292" y="62" on="1"/>
        <pt x="367" y="62" on="0"/>
        <pt x="446" y="134" on="0"/>
        <pt x="446" y="194" on="1"/>
        <pt x="446" y="244" on="0"/>
        <pt x="386" y="298" on="0"/>
        <pt x="317" y="314" on="1"/>
        <pt x="260" y="327" on="1"/>
        <pt x="164" y="349" on="0"/>
        <pt x="63" y="438" on="0"/>
        <pt x="63" y="519" on="1"/>
        <pt x="63" y="565" on="0"/>
        <pt x="97" y="637" on="0"/>
        <pt x="158" y="685" on="0"/>
        <pt x="243" y="710" on="0"/>
        <pt x="294" y="710" on="1"/>
        <pt x="373" y="710" on="0"/>
        <pt x="486" y="652" on="0"/>
        <pt x="525" y="596" on="1"/>
        <pt x="462" y="550" on="1"/>
        <pt x="433" y="590" on="0"/>
        <pt x="351" y="636" on="0"/>
      </contour>
    </TTGlyph>
    <TTGlyph name="Scircumflex" xMin="42" yMin="-12" xMax="529" yMax="935">
      <component glyphName="S" x="0" y="0" flags="0x204"/>
      <component glyphName="circumflex.case" x="-11" y="0" flags="0x4"/>
    </TTGlyph>
    <TTGlyph name="Scommaaccent" xMin="42" yMin="-245" xMax="529" yMax="710">
      <component glyphName="S" x="0" y="0" flags="0x204"/>
      <component glyphName="uni0326" x="287" y="0" flags="0x4"/>
    </TTGlyph>
    <TTGlyph name="Sigma" xMin="40" yMin="0" xMax="509" yMax="698">
      <contour>
        <pt x="40" y="0" on="1"/>
        <pt x="40" y="76" on="1"/>
        <pt x="288" y="352" on="1"/>
        <pt x="48" y="622" on="1"/>
        <pt x="48" y="698" on="1"/>
        <pt x="509" y="698" on="1"/>
        <pt x="509" y="624" on="1"/>
        <pt x="148" y="624" on="1"/>
        <pt x="388" y="354" on="1"/>
        <pt x="136" y="74" on="1"/>
        <pt x="509" y="74" on="1"/>
        <pt x="509" y="0" on="1"/>
      </contour>
    </TTGlyph>
    <TTGlyph name="T" xMin="22" yMin="0" xMax="550" yMax="698">
      <contour>
        <pt x="328" y="624" on="1"/>
        <pt x="328" y="0" on="1"/>
        <pt x="244" y="0" on="1"/>
        <pt x="244" y="624" on="1"/>
        <pt x="22" y="624" on="1"/>
        <pt x="22" y="698" on="1"/>
        <pt x="550" y="698" on="1"/>
        <pt x="550" y="624" on="1"/>
      </contour>
    </TTGlyph>
    <TTGlyph name="Tau" xMin="22" yMin="0" xMax="550" yMax="698">
      <component glyphName="T" x="0" y="0" flags="0x204"/>
    </TTGlyph>
    <TTGlyph name="Tbar" xMin="27" yMin="0" xMax="555" yMax="698">
      <contour>
        <pt x="333" y="338" on="1"/>
        <pt x="333" y="0" on="1"/>
        <pt x="249" y="0" on="1"/>
        <pt x="249" y="338" on="1"/>
        <pt x="84" y="338" on="1"/>
        <pt x="84" y="402" on="1"/>
        <pt x="249" y="402" on="1"/>
        <pt x="249" y="624" on="1"/>
        <pt x="27" y="624" on="1"/>
        <pt x="27" y="698" on="1"/>
        <pt x="555" y="698" on="1"/>
        <pt x="555" y="624" on="1"/>
        <pt x="333" y="624" on="1"/>
        <pt x="333" y="402" on="1"/>
        <pt x="497" y="402" on="1"/>
        <pt x="497" y="338" on="1"/>
      </contour>
    </TTGlyph>
    <TTGlyph name="Tcaron" xMin="22" yMin="0" xMax="550" yMax="943">
      <component glyphName="T" x="0" y="0" flags="0x204"/>
      <component glyphName="caron.case" x="-13" y="0" flags="0x4"/>
    </TTGlyph>
    <TTGlyph name="Theta" xMin="58" yMin="-12" xMax="650" yMax="710">
      <contour>
        <pt x="354" y="-12" on="1"/>
        <pt x="286" y="-12" on="0"/>
        <pt x="177" y="35" on="0"/>
        <pt x="100" y="126" on="0"/>
        <pt x="58" y="261" on="0"/>
        <pt x="58" y="349" on="1"/>
        <pt x="58" y="437" on="0"/>
        <pt x="100" y="571" on="0"/>
        <pt x="177" y="663" on="0"/>
        <pt x="286" y="710" on="0"/>
        <pt x="354" y="710" on="1"/>
        <pt x="421" y="710" on="0"/>
        <pt x="531" y="663" on="0"/>
        <pt x="608" y="571" on="0"/>
        <pt x="650" y="437" on="0"/>
        <pt x="650" y="349" on="1"/>
        <pt x="650" y="261" on="0"/>
        <pt x="608" y="126" on="0"/>
        <pt x="531" y="35" on="0"/>
        <pt x="421" y="-12" on="0"/>
      </contour>
      <contour>
        <pt x="354" y="63" on="1"/>
        <pt x="399" y="63" on="0"/>
        <pt x="475" y="95" on="0"/>
        <pt x="530" y="155" on="0"/>
        <pt x="560" y="239" on="0"/>
        <pt x="560" y="291" on="1"/>
        <pt x="560" y="407" on="1"/>
        <pt x="560" y="459" on="0"/>
        <pt x="530" y="543" on="0"/>
        <pt x="475" y="603" on="0"/>
        <pt x="399" y="635" on="0"/>
        <pt x="354" y="635" on="1"/>
        <pt x="309" y="635" on="0"/>
        <pt x="233" y="603" on="0"/>
        <pt x="178" y="543" on="0"/>
        <pt x="148" y="459" on="0"/>
        <pt x="148" y="407" on="1"/>
        <pt x="148" y="291" on="1"/>
        <pt x="148" y="239" on="0"/>
        <pt x="178" y="155" on="0"/>
        <pt x="233" y="95" on="0"/>
        <pt x="309" y="63" on="0"/>
      </contour>
      <contour>
        <pt x="203" y="316" on="1"/>
        <pt x="203" y="390" on="1"/>
        <pt x="505" y="390" on="1"/>
        <pt x="505" y="316" on="1"/>
      </contour>
    </TTGlyph>
    <TTGlyph name="Thorn" xMin="93" yMin="0" xMax="566" yMax="698">
      <contour>
        <pt x="93" y="0" on="1"/>
        <pt x="93" y="698" on="1"/>
        <pt x="177" y="698" on="1"/>
        <pt x="177" y="554" on="1"/>
        <pt x="371" y="554" on="1"/>
        <pt x="465" y="554" on="0"/>
        <pt x="566" y="446" on="0"/>
        <pt x="566" y="354" on="1"/>
        <pt x="566" y="262" on="0"/>
        <pt x="465" y="154" on="0"/>
        <pt x="371" y="154" on="1"/>
        <pt x="177" y="154" on="1"/>
        <pt x="177" y="0" on="1"/>
      </contour>
      <contour>
        <pt x="177" y="229" on="1"/>
        <pt x="371" y="229" on="1"/>
        <pt x="421" y="229" on="0"/>
        <pt x="476" y="281" on="0"/>
        <pt x="476" y="329" on="1"/>
        <pt x="476" y="379" on="1"/>
        <pt x="476" y="427" on="0"/>
        <pt x="421" y="479" on="0"/>
        <pt x="371" y="479" on="1"/>
        <pt x="177" y="479" on="1"/>
      </contour>
    </TTGlyph>
    <TTGlyph name="U" xMin="88" yMin="-12" xMax="590" yMax="698">
      <contour>
        <pt x="172" y="698" on="1"/>
        <pt x="172" y="266" on="1"/>
        <pt x="172" y="166" on="0"/>
        <pt x="246" y="63" on="0"/>
        <pt x="339" y="63" on="1"/>
        <pt x="432" y="63" on="0"/>
        <pt x="506" y="166" on="0"/>
        <pt x="506" y="266" on="1"/>
        <pt x="506" y="698" on="1"/>
        <pt x="590" y="698" on="1"/>
        <pt x="590" y="286" on="1"/>
        <pt x="590" y="210" on="0"/>
        <pt x="563" y="98" on="0"/>
        <pt x="503" y="24" on="0"/>
        <pt x="406" y="-12" on="0"/>
        <pt x="336" y="-12" on="1"/>
        <pt x="266" y="-12" on="0"/>
        <pt x="171" y="24" on="0"/>
        <pt x="113" y="98" on="0"/>
        <pt x="88" y="210" on="0"/>
        <pt x="88" y="286" on="1"/>
        <pt x="88" y="698" on="1"/>
      </contour>
    </TTGlyph>
    <TTGlyph name="Uacute" xMin="88" yMin="-12" xMax="590" yMax="949">
      <component glyphName="U" x="0" y="0" flags="0x204"/>
      <component glyphName="acute.case" x="37" y="0" flags="0x4"/>
    </TTGlyph>
    <TTGlyph name="Ubreve" xMin="88" yMin="-12" xMax="590" yMax="913">
      <component glyphName="U" x="0" y="0" flags="0x204"/>
      <component glyphName="breve.case" x="37" y="0" flags="0x4"/>
    </TTGlyph>
    <TTGlyph name="Ucircumflex" xMin="88" yMin="-12" xMax="590" yMax="935">
      <component glyphName="U" x="0" y="0" flags="0x204"/>
      <component glyphName="circumflex.case" x="37" y="0" flags="0x4"/>
    </TTGlyph>
    <TTGlyph name="Udieresis" xMin="88" yMin="-12" xMax="590" yMax="894">
      <component glyphName="U" x="0" y="0" flags="0x204"/>
      <component glyphName="dieresis.case" x="37" y="0" flags="0x4"/>
    </TTGlyph>
    <TTGlyph name="Ugrave" xMin="88" yMin="-12" xMax="590" yMax="949">
      <component glyphName="U" x="0" y="0" flags="0x204"/>
      <component glyphName="grave.case" x="37" y="0" flags="0x4"/>
    </TTGlyph>
    <TTGlyph name="Uhorn" xMin="88" yMin="-12" xMax="668" yMax="810">
      <contour>
        <pt x="172" y="698" on="1"/>
        <pt x="172" y="266" on="1"/>
        <pt x="172" y="166" on="0"/>
        <pt x="246" y="63" on="0"/>
        <pt x="339" y="63" on="1"/>
        <pt x="432" y="63" on="0"/>
        <pt x="506" y="166" on="0"/>
        <pt x="506" y="266" on="1"/>
        <pt x="506" y="698" on="1"/>
        <pt x="597" y="698" on="1"/>
        <pt x="597" y="810" on="1"/>
        <pt x="668" y="810" on="1"/>
        <pt x="668" y="708" on="1"/>
        <pt x="668" y="682" on="0"/>
        <pt x="643" y="645" on="0"/>
        <pt x="605" y="645" on="1"/>
        <pt x="590" y="645" on="1"/>
        <pt x="590" y="286" on="1"/>
        <pt x="590" y="210" on="0"/>
        <pt x="563" y="98" on="0"/>
        <pt x="503" y="24" on="0"/>
        <pt x="406" y="-12" on="0"/>
        <pt x="336" y="-12" on="1"/>
        <pt x="266" y="-12" on="0"/>
        <pt x="171" y="24" on="0"/>
        <pt x="113" y="98" on="0"/>
        <pt x="88" y="210" on="0"/>
        <pt x="88" y="286" on="1"/>
        <pt x="88" y="698" on="1"/>
      </contour>
    </TTGlyph>
    <TTGlyph name="Uhungarumlaut" xMin="88" yMin="-12" xMax="590" yMax="948">
      <component glyphName="U" x="0" y="0" flags="0x204"/>
      <component glyphName="hungarumlaut.case" x="37" y="0" flags="0x4"/>
    </TTGlyph>
    <TTGlyph name="Umacron" xMin="88" yMin="-12" xMax="590" yMax="875">
      <component glyphName="U" x="0" y="0" flags="0x204"/>
      <component glyphName="macron.case" x="37" y="0" flags="0x4"/>
    </TTGlyph>
    <TTGlyph name="Uogonek" xMin="88" yMin="-207" xMax="590" yMax="698">
      <contour>
        <pt x="172" y="698" on="1"/>
        <pt x="172" y="266" on="1"/>
        <pt x="172" y="166" on="0"/>
        <pt x="246" y="63" on="0"/>
        <pt x="339" y="63" on="1"/>
        <pt x="432" y="63" on="0"/>
        <pt x="506" y="166" on="0"/>
        <pt x="506" y="266" on="1"/>
        <pt x="506" y="698" on="1"/>
        <pt x="590" y="698" on="1"/>
        <pt x="590" y="286" on="1"/>
        <pt x="590" y="236" on="0"/>
        <pt x="580" y="156" on="0"/>
        <pt x="554" y="86" on="0"/>
        <pt x="509" y="22" on="0"/>
        <pt x="475" y="-12" on="1"/>
        <pt x="450" y="-36" on="0"/>
        <pt x="417" y="-70" on="0"/>
        <pt x="397" y="-94" on="0"/>
        <pt x="389" y="-113" on="0"/>
        <pt x="389" y="-123" on="1"/>
        <pt x="389" y="-140" on="0"/>
        <pt x="406" y="-153" on="0"/>
        <pt x="420" y="-153" on="1"/>
        <pt x="449" y="-153" on="0"/>
        <pt x="468" y="-129" on="1"/>
        <pt x="508" y="-168" on="1"/>
        <pt x="499" y="-184" on="0"/>
        <pt x="455" y="-207" on="0"/>
        <pt x="420" y="-207" on="1"/>
        <pt x="382" y="-207" on="0"/>
        <pt x="325" y="-171" on="0"/>
        <pt x="325" y="-133" on="1"/>
        <pt x="325" y="-112" on="0"/>
        <pt x="343" y="-78" on="0"/>
        <pt x="374" y="-47" on="0"/>
        <pt x="417" y="-17" on="0"/>
        <pt x="441" y="0" on="1"/>
        <pt x="437" y="5" on="1"/>
        <pt x="414" y="-5" on="0"/>
        <pt x="363" y="-12" on="0"/>
        <pt x="336" y="-12" on="1"/>
        <pt x="266" y="-12" on="0"/>
        <pt x="171" y="24" on="0"/>
        <pt x="113" y="98" on="0"/>
        <pt x="88" y="210" on="0"/>
        <pt x="88" y="286" on="1"/>
        <pt x="88" y="698" on="1"/>
      </contour>
    </TTGlyph>
    <TTGlyph name="Upsilon" xMin="13" yMin="0" xMax="580" yMax="698">
      <component glyphName="Y" x="0" y="0" flags="0x204"/>
    </TTGlyph>
    <TTGlyph name="Upsilondieresis" xMin="13" yMin="0" xMax="580" yMax="894">
      <component glyphName="Y" x="0" y="0" flags="0x204"/>
      <component glyphName="dieresis.case" x="-2" y="0" flags="0x4"/>
    </TTGlyph>
    <TTGlyph name="Upsilontonos" xMin="-24" yMin="0" xMax="664" yMax="780">
      <component glyphName="Y" x="84" y="0" flags="0x4"/>
      <component glyphName="tonos.case" x="-303" y="0" flags="0x4"/>
    </TTGlyph>
    <TTGlyph name="Uring" xMin="88" yMin="-12" xMax="590" yMax="976">
      <component glyphName="U" x="0" y="0" flags="0x204"/>
      <component glyphName="ring.case" x="37" y="0" flags="0x4"/>
    </TTGlyph>
    <TTGlyph name="Utilde" xMin="88" yMin="-12" xMax="590" yMax="898">
      <component glyphName="U" x="0" y="0" flags="0x204"/>
      <component glyphName="tilde.case" x="37" y="0" flags="0x4"/>
    </TTGlyph>
    <TTGlyph name="V" xMin="20" yMin="0" xMax="589" yMax="698">
      <contour>
        <pt x="252" y="0" on="1"/>
        <pt x="20" y="698" on="1"/>
        <pt x="110" y="698" on="1"/>
        <pt x="225" y="346" on="1"/>
        <pt x="302" y="84" on="1"/>
        <pt x="307" y="84" on="1"/>
        <pt x="386" y="346" on="1"/>
        <pt x="502" y="698" on="1"/>
        <pt x="589" y="698" on="1"/>
        <pt x="354" y="0" on="1"/>
      </contour>
    </TTGlyph>
    <TTGlyph name="W" xMin="20" yMin="0" xMax="871" yMax="698">
      <contour>
        <pt x="190" y="0" on="1"/>
        <pt x="20" y="698" on="1"/>
        <pt x="109" y="698" on="1"/>
        <pt x="184" y="362" on="1"/>
        <pt x="242" y="101" on="1"/>
        <pt x="244" y="101" on="1"/>
        <pt x="309" y="362" on="1"/>
        <pt x="397" y="698" on="1"/>
        <pt x="493" y="698" on="1"/>
        <pt x="578" y="362" on="1"/>
        <pt x="643" y="102" on="1"/>
        <pt x="646" y="102" on="1"/>
        <pt x="706" y="362" on="1"/>
        <pt x="785" y="698" on="1"/>
        <pt x="871" y="698" on="1"/>
        <pt x="692" y="0" on="1"/>
        <pt x="599" y="0" on="1"/>
        <pt x="508" y="348" on="1"/>
        <pt x="444" y="604" on="1"/>
        <pt x="442" y="604" on="1"/>
        <pt x="376" y="348" on="1"/>
        <pt x="283" y="0" on="1"/>
      </contour>
    </TTGlyph>
    <TTGlyph name="Wacute" xMin="20" yMin="0" xMax="871" yMax="949">
      <component glyphName="W" x="0" y="0" flags="0x204"/>
      <component glyphName="acute.case" x="146" y="0" flags="0x4"/>
    </TTGlyph>
    <TTGlyph name="Wcircumflex" xMin="20" yMin="0" xMax="871" yMax="935">
      <component glyphName="W" x="0" y="0" flags="0x204"/>
      <component glyphName="circumflex.case" x="146" y="0" flags="0x4"/>
    </TTGlyph>
    <TTGlyph name="Wdieresis" xMin="20" yMin="0" xMax="871" yMax="894">
      <component glyphName="W" x="0" y="0" flags="0x204"/>
      <component glyphName="dieresis.case" x="146" y="0" flags="0x4"/>
    </TTGlyph>
    <TTGlyph name="Wgrave" xMin="20" yMin="0" xMax="871" yMax="949">
      <component glyphName="W" x="0" y="0" flags="0x204"/>
      <component glyphName="grave.case" x="146" y="0" flags="0x4"/>
    </TTGlyph>
    <TTGlyph name="X" xMin="24" yMin="0" xMax="589" yMax="698">
      <contour>
        <pt x="589" y="0" on="1"/>
        <pt x="488" y="0" on="1"/>
        <pt x="305" y="293" on="1"/>
        <pt x="303" y="293" on="1"/>
        <pt x="120" y="0" on="1"/>
        <pt x="24" y="0" on="1"/>
        <pt x="252" y="355" on="1"/>
        <pt x="30" y="698" on="1"/>
        <pt x="131" y="698" on="1"/>
        <pt x="306" y="420" on="1"/>
        <pt x="308" y="420" on="1"/>
        <pt x="487" y="698" on="1"/>
        <pt x="583" y="698" on="1"/>
        <pt x="359" y="358" on="1"/>
      </contour>
    </TTGlyph>
    <TTGlyph name="Xi" xMin="64" yMin="0" xMax="520" yMax="698">
      <contour>
        <pt x="64" y="698" on="1"/>
        <pt x="520" y="698" on="1"/>
        <pt x="520" y="624" on="1"/>
        <pt x="64" y="624" on="1"/>
      </contour>
      <contour>
        <pt x="104" y="390" on="1"/>
        <pt x="480" y="390" on="1"/>
        <pt x="480" y="316" on="1"/>
        <pt x="104" y="316" on="1"/>
      </contour>
      <contour>
        <pt x="64" y="74" on="1"/>
        <pt x="520" y="74" on="1"/>
        <pt x="520" y="0" on="1"/>
        <pt x="64" y="0" on="1"/>
      </contour>
    </TTGlyph>
    <TTGlyph name="Y" xMin="13" yMin="0" xMax="580" yMax="698">
      <contour>
        <pt x="253" y="0" on="1"/>
        <pt x="253" y="276" on="1"/>
        <pt x="13" y="698" on="1"/>
        <pt x="109" y="698" on="1"/>
        <pt x="295" y="362" on="1"/>
        <pt x="298" y="362" on="1"/>
        <pt x="484" y="698" on="1"/>
        <pt x="580" y="698" on="1"/>
        <pt x="337" y="279" on="1"/>
        <pt x="337" y="0" on="1"/>
      </contour>
    </TTGlyph>
    <TTGlyph name="Yacute" xMin="13" yMin="0" xMax="580" yMax="949">
      <component glyphName="Y" x="0" y="0" flags="0x204"/>
      <component glyphName="acute.case" x="-2" y="0" flags="0x4"/>
    </TTGlyph>
    <TTGlyph name="Ycircumflex" xMin="13" yMin="0" xMax="580" yMax="935">
      <component glyphName="Y" x="0" y="0" flags="0x204"/>
      <component glyphName="circumflex.case" x="-2" y="0" flags="0x4"/>
    </TTGlyph>
    <TTGlyph name="Ydieresis" xMin="13" yMin="0" xMax="580" yMax="894">
      <component glyphName="Y" x="0" y="0" flags="0x204"/>
      <component glyphName="dieresis.case" x="-2" y="0" flags="0x4"/>
    </TTGlyph>
    <TTGlyph name="Ygrave" xMin="13" yMin="0" xMax="580" yMax="949">
      <component glyphName="Y" x="0" y="0" flags="0x204"/>
      <component glyphName="grave.case" x="-2" y="0" flags="0x4"/>
    </TTGlyph>
    <TTGlyph name="Z" xMin="36" yMin="0" xMax="544" yMax="698">
      <contour>
        <pt x="544" y="0" on="1"/>
        <pt x="36" y="0" on="1"/>
        <pt x="36" y="76" on="1"/>
        <pt x="439" y="624" on="1"/>
        <pt x="57" y="624" on="1"/>
        <pt x="57" y="698" on="1"/>
        <pt x="530" y="698" on="1"/>
        <pt x="530" y="622" on="1"/>
        <pt x="126" y="74" on="1"/>
        <pt x="544" y="74" on="1"/>
      </contour>
    </TTGlyph>
    <TTGlyph name="Zacute" xMin="36" yMin="0" xMax="544" yMax="949">
      <component glyphName="Z" x="0" y="0" flags="0x204"/>
      <component glyphName="acute.case" x="-2" y="0" flags="0x4"/>
    </TTGlyph>
    <TTGlyph name="Zcaron" xMin="36" yMin="0" xMax="544" yMax="943">
      <component glyphName="Z" x="0" y="0" flags="0x204"/>
      <component glyphName="caron.case" x="-2" y="0" flags="0x4"/>
    </TTGlyph>
    <TTGlyph name="Zdotaccent" xMin="36" yMin="0" xMax="544" yMax="900">
      <component glyphName="Z" x="0" y="0" flags="0x204"/>
      <component glyphName="dotaccent.case" x="-2" y="0" flags="0x4"/>
    </TTGlyph>
    <TTGlyph name="Zeta" xMin="36" yMin="0" xMax="544" yMax="698">
      <component glyphName="Z" x="0" y="0" flags="0x204"/>
    </TTGlyph>
    <TTGlyph name="a" xMin="44" yMin="-12" xMax="505" yMax="528">
      <contour>
        <pt x="460" y="0" on="1"/>
        <pt x="415" y="0" on="0"/>
        <pt x="376" y="48" on="0"/>
        <pt x="371" y="84" on="1"/>
        <pt x="366" y="84" on="1"/>
        <pt x="349" y="36" on="0"/>
        <pt x="271" y="-12" on="0"/>
        <pt x="217" y="-12" on="1"/>
        <pt x="135" y="-12" on="0"/>
        <pt x="44" y="72" on="0"/>
        <pt x="44" y="144" on="1"/>
        <pt x="44" y="217" on="0"/>
        <pt x="151" y="295" on="0"/>
        <pt x="264" y="295" on="1"/>
        <pt x="366" y="295" on="1"/>
        <pt x="366" y="346" on="1"/>
        <pt x="366" y="401" on="0"/>
        <pt x="306" y="459" on="0"/>
        <pt x="244" y="459" on="1"/>
        <pt x="197" y="459" on="0"/>
        <pt x="134" y="417" on="0"/>
        <pt x="113" y="382" on="1"/>
        <pt x="65" y="427" on="1"/>
        <pt x="86" y="469" on="0"/>
        <pt x="178" y="528" on="0"/>
        <pt x="248" y="528" on="1"/>
        <pt x="342" y="528" on="0"/>
        <pt x="446" y="436" on="0"/>
        <pt x="446" y="354" on="1"/>
        <pt x="446" y="70" on="1"/>
        <pt x="505" y="70" on="1"/>
        <pt x="505" y="0" on="1"/>
      </contour>
      <contour>
        <pt x="230" y="56" on="1"/>
        <pt x="260" y="56" on="0"/>
        <pt x="310" y="70" on="0"/>
        <pt x="346" y="96" on="0"/>
        <pt x="366" y="130" on="0"/>
        <pt x="366" y="150" on="1"/>
        <pt x="366" y="235" on="1"/>
        <pt x="260" y="235" on="1"/>
        <pt x="191" y="235" on="0"/>
        <pt x="128" y="195" on="0"/>
        <pt x="128" y="157" on="1"/>
        <pt x="128" y="136" on="1"/>
        <pt x="128" y="98" on="0"/>
        <pt x="183" y="56" on="0"/>
      </contour>
    </TTGlyph>
    <TTGlyph name="a.alt01" xMin="50" yMin="-12" xMax="495" yMax="528">
      <contour>
        <pt x="415" y="84" on="1"/>
        <pt x="411" y="84" on="1"/>
        <pt x="364" y="-12" on="0"/>
        <pt x="260" y="-12" on="1"/>
        <pt x="212" y="-12" on="0"/>
        <pt x="134" y="26" on="0"/>
        <pt x="79" y="96" on="0"/>
        <pt x="50" y="196" on="0"/>
        <pt x="50" y="258" on="1"/>
        <pt x="50" y="320" on="0"/>
        <pt x="79" y="420" on="0"/>
        <pt x="134" y="490" on="0"/>
        <pt x="212" y="528" on="0"/>
        <pt x="260" y="528" on="1"/>
        <pt x="314" y="528" on="0"/>
        <pt x="391" y="481" on="0"/>
        <pt x="411" y="432" on="1"/>
        <pt x="415" y="432" on="1"/>
        <pt x="415" y="516" on="1"/>
        <pt x="495" y="516" on="1"/>
        <pt x="495" y="0" on="1"/>
        <pt x="415" y="0" on="1"/>
      </contour>
      <contour>
        <pt x="282" y="60" on="1"/>
        <pt x="309" y="60" on="0"/>
        <pt x="358" y="74" on="0"/>
        <pt x="394" y="101" on="0"/>
        <pt x="415" y="140" on="0"/>
        <pt x="415" y="165" on="1"/>
        <pt x="415" y="357" on="1"/>
        <pt x="415" y="378" on="0"/>
        <pt x="394" y="415" on="0"/>
        <pt x="358" y="441" on="0"/>
        <pt x="309" y="456" on="0"/>
        <pt x="282" y="456" on="1"/>
        <pt x="214" y="456" on="0"/>
        <pt x="136" y="371" on="0"/>
        <pt x="136" y="302" on="1"/>
        <pt x="136" y="214" on="1"/>
        <pt x="136" y="145" on="0"/>
        <pt x="214" y="60" on="0"/>
      </contour>
    </TTGlyph>
    <TTGlyph name="aacute" xMin="44" yMin="-12" xMax="505" yMax="779">
      <component glyphName="a" x="0" y="0" flags="0x204"/>
      <component glyphName="acute" x="-47" y="0" flags="0x4"/>
    </TTGlyph>
    <TTGlyph name="aacute.alt01" xMin="50" yMin="-12" xMax="495" yMax="779">
      <component glyphName="a.alt01" x="0" y="0" flags="0x204"/>
      <component glyphName="acute" x="-21" y="0" flags="0x4"/>
    </TTGlyph>
    <TTGlyph name="abreve" xMin="44" yMin="-12" xMax="505" yMax="743">
      <component glyphName="a" x="0" y="0" flags="0x204"/>
      <component glyphName="breve" x="-47" y="0" flags="0x4"/>
    </TTGlyph>
    <TTGlyph name="abreve.alt01" xMin="50" yMin="-12" xMax="495" yMax="743">
      <component glyphName="a.alt01" x="0" y="0" flags="0x204"/>
      <component glyphName="breve" x="-21" y="0" flags="0x4"/>
    </TTGlyph>
    <TTGlyph name="acircumflex" xMin="44" yMin="-12" xMax="505" yMax="765">
      <component glyphName="a" x="0" y="0" flags="0x204"/>
      <component glyphName="circumflex" x="-47" y="0" flags="0x4"/>
    </TTGlyph>
    <TTGlyph name="acircumflex.alt01" xMin="50" yMin="-12" xMax="495" yMax="765">
      <component glyphName="a.alt01" x="0" y="0" flags="0x204"/>
      <component glyphName="circumflex" x="-21" y="0" flags="0x4"/>
    </TTGlyph>
    <TTGlyph name="acute" xMin="255" yMin="585" xMax="413" yMax="779">
      <contour>
        <pt x="307" y="585" on="1"/>
        <pt x="255" y="609" on="1"/>
        <pt x="340" y="779" on="1"/>
        <pt x="413" y="744" on="1"/>
      </contour>
    </TTGlyph>
    <TTGlyph name="acute.case" xMin="255" yMin="755" xMax="413" yMax="949">
      <contour>
        <pt x="307" y="755" on="1"/>
        <pt x="255" y="779" on="1"/>
        <pt x="340" y="949" on="1"/>
        <pt x="413" y="914" on="1"/>
      </contour>
    </TTGlyph>
    <TTGlyph name="adieresis" xMin="44" yMin="-12" xMax="505" yMax="721">
      <component glyphName="a" x="0" y="0" flags="0x204"/>
      <component glyphName="dieresis" x="-47" y="0" flags="0x4"/>
    </TTGlyph>
    <TTGlyph name="adieresis.alt01" xMin="50" yMin="-12" xMax="495" yMax="721">
      <component glyphName="a.alt01" x="0" y="0" flags="0x204"/>
      <component glyphName="dieresis" x="-21" y="0" flags="0x4"/>
    </TTGlyph>
    <TTGlyph name="ae" xMin="44" yMin="-12" xMax="817" yMax="528">
      <contour>
        <pt x="260" y="238" on="1"/>
        <pt x="191" y="236" on="0"/>
        <pt x="128" y="195" on="0"/>
        <pt x="128" y="157" on="1"/>
        <pt x="128" y="136" on="1"/>
        <pt x="128" y="98" on="0"/>
        <pt x="183" y="56" on="0"/>
        <pt x="231" y="56" on="1"/>
        <pt x="260" y="56" on="0"/>
        <pt x="309" y="70" on="0"/>
        <pt x="345" y="96" on="0"/>
        <pt x="366" y="130" on="0"/>
        <pt x="366" y="150" on="1"/>
        <pt x="366" y="238" on="1"/>
      </contour>
      <contour>
        <pt x="731" y="298" on="1"/>
        <pt x="731" y="309" on="1"/>
        <pt x="731" y="378" on="0"/>
        <pt x="656" y="461" on="0"/>
        <pt x="594" y="461" on="1"/>
        <pt x="561" y="461" on="0"/>
        <pt x="507" y="438" on="0"/>
        <pt x="468" y="396" on="0"/>
        <pt x="446" y="339" on="0"/>
        <pt x="446" y="305" on="1"/>
        <pt x="446" y="298" on="1"/>
      </contour>
      <contour>
        <pt x="599" y="58" on="1"/>
        <pt x="698" y="58" on="0"/>
        <pt x="741" y="146" on="1"/>
        <pt x="798" y="106" on="1"/>
        <pt x="773" y="52" on="0"/>
        <pt x="670" y="-12" on="0"/>
        <pt x="603" y="-12" on="1"/>
        <pt x="562" y="-12" on="0"/>
        <pt x="495" y="11" on="0"/>
        <pt x="446" y="46" on="0"/>
        <pt x="416" y="87" on="0"/>
        <pt x="412" y="104" on="1"/>
        <pt x="406" y="104" on="1"/>
        <pt x="403" y="87" on="0"/>
        <pt x="374" y="47" on="0"/>
        <pt x="326" y="12" on="0"/>
        <pt x="258" y="-12" on="0"/>
        <pt x="215" y="-12" on="1"/>
        <pt x="137" y="-12" on="0"/>
        <pt x="44" y="71" on="0"/>
        <pt x="44" y="142" on="1"/>
        <pt x="44" y="217" on="0"/>
        <pt x="154" y="298" on="0"/>
        <pt x="264" y="298" on="1"/>
        <pt x="366" y="298" on="1"/>
        <pt x="366" y="346" on="1"/>
        <pt x="366" y="401" on="0"/>
        <pt x="306" y="459" on="0"/>
        <pt x="247" y="459" on="1"/>
        <pt x="197" y="459" on="0"/>
        <pt x="135" y="419" on="0"/>
        <pt x="113" y="383" on="1"/>
        <pt x="65" y="427" on="1"/>
        <pt x="85" y="468" on="0"/>
        <pt x="178" y="528" on="0"/>
        <pt x="249" y="528" on="1"/>
        <pt x="293" y="528" on="0"/>
        <pt x="352" y="503" on="0"/>
        <pt x="389" y="468" on="0"/>
        <pt x="407" y="428" on="0"/>
        <pt x="411" y="413" on="1"/>
        <pt x="417" y="413" on="1"/>
        <pt x="421" y="430" on="0"/>
        <pt x="451" y="470" on="0"/>
        <pt x="499" y="505" on="0"/>
        <pt x="564" y="528" on="0"/>
        <pt x="603" y="528" on="1"/>
        <pt x="652" y="528" on="0"/>
        <pt x="731" y="490" on="0"/>
        <pt x="787" y="423" on="0"/>
        <pt x="817" y="331" on="0"/>
        <pt x="817" y="276" on="1"/>
        <pt x="817" y="238" on="1"/>
        <pt x="446" y="238" on="1"/>
        <pt x="446" y="214" on="1"/>
        <pt x="446" y="181" on="0"/>
        <pt x="467" y="124" on="0"/>
        <pt x="506" y="82" on="0"/>
        <pt x="563" y="58" on="0"/>
      </contour>
    </TTGlyph>
    <TTGlyph name="aeacute" xMin="44" yMin="-12" xMax="817" yMax="779">
      <component glyphName="ae" x="0" y="0" flags="0x204"/>
      <component glyphName="acute" x="114" y="0" flags="0x4"/>
    </TTGlyph>
    <TTGlyph name="agrave" xMin="44" yMin="-12" xMax="505" yMax="779">
      <component glyphName="a" x="0" y="0" flags="0x204"/>
      <component glyphName="grave" x="-47" y="0" flags="0x4"/>
    </TTGlyph>
    <TTGlyph name="agrave.alt01" xMin="50" yMin="-12" xMax="495" yMax="779">
      <component glyphName="a.alt01" x="0" y="0" flags="0x204"/>
      <component glyphName="grave" x="-21" y="0" flags="0x4"/>
    </TTGlyph>
    <TTGlyph name="alpha" xMin="50" yMin="-12" xMax="608" yMax="528">
      <contour>
        <pt x="608" y="0" on="1"/>
        <pt x="563" y="0" on="1"/>
        <pt x="522" y="0" on="0"/>
        <pt x="479" y="38" on="0"/>
        <pt x="471" y="83" on="1"/>
        <pt x="454" y="184" on="1"/>
        <pt x="450" y="184" on="1"/>
        <pt x="430" y="87" on="0"/>
        <pt x="338" y="-12" on="0"/>
        <pt x="257" y="-12" on="1"/>
        <pt x="210" y="-12" on="0"/>
        <pt x="134" y="27" on="0"/>
        <pt x="80" y="97" on="0"/>
        <pt x="50" y="197" on="0"/>
        <pt x="50" y="258" on="1"/>
        <pt x="50" y="319" on="0"/>
        <pt x="80" y="419" on="0"/>
        <pt x="134" y="489" on="0"/>
        <pt x="210" y="528" on="0"/>
        <pt x="257" y="528" on="1"/>
        <pt x="337" y="528" on="0"/>
        <pt x="431" y="432" on="0"/>
        <pt x="452" y="332" on="1"/>
        <pt x="456" y="332" on="1"/>
        <pt x="485" y="443" on="1"/>
        <pt x="512" y="516" on="1"/>
        <pt x="600" y="516" on="1"/>
        <pt x="491" y="260" on="1"/>
        <pt x="554" y="70" on="1"/>
        <pt x="608" y="70" on="1"/>
      </contour>
      <contour>
        <pt x="257" y="59" on="1"/>
        <pt x="279" y="59" on="0"/>
        <pt x="316" y="69" on="0"/>
        <pt x="346" y="95" on="0"/>
        <pt x="372" y="139" on="0"/>
        <pt x="384" y="173" on="1"/>
        <pt x="415" y="258" on="1"/>
        <pt x="384" y="343" on="1"/>
        <pt x="372" y="377" on="0"/>
        <pt x="346" y="421" on="0"/>
        <pt x="316" y="447" on="0"/>
        <pt x="279" y="457" on="0"/>
        <pt x="257" y="457" on="1"/>
        <pt x="233" y="457" on="0"/>
        <pt x="190" y="436" on="0"/>
        <pt x="156" y="396" on="0"/>
        <pt x="136" y="334" on="0"/>
        <pt x="136" y="294" on="1"/>
        <pt x="136" y="222" on="1"/>
        <pt x="136" y="181" on="0"/>
        <pt x="156" y="120" on="0"/>
        <pt x="190" y="80" on="0"/>
        <pt x="233" y="59" on="0"/>
      </contour>
    </TTGlyph>
    <TTGlyph name="alpha.alt01" xMin="50" yMin="-12" xMax="554" yMax="528">
      <contour>
        <pt x="554" y="0" on="1"/>
        <pt x="500" y="0" on="1"/>
        <pt x="458" y="0" on="0"/>
        <pt x="415" y="47" on="0"/>
        <pt x="415" y="84" on="1"/>
        <pt x="411" y="84" on="1"/>
        <pt x="364" y="-12" on="0"/>
        <pt x="260" y="-12" on="1"/>
        <pt x="212" y="-12" on="0"/>
        <pt x="134" y="26" on="0"/>
        <pt x="79" y="96" on="0"/>
        <pt x="50" y="196" on="0"/>
        <pt x="50" y="258" on="1"/>
        <pt x="50" y="320" on="0"/>
        <pt x="79" y="420" on="0"/>
        <pt x="134" y="490" on="0"/>
        <pt x="212" y="528" on="0"/>
        <pt x="260" y="528" on="1"/>
        <pt x="314" y="528" on="0"/>
        <pt x="391" y="481" on="0"/>
        <pt x="411" y="432" on="1"/>
        <pt x="415" y="432" on="1"/>
        <pt x="415" y="516" on="1"/>
        <pt x="495" y="516" on="1"/>
        <pt x="495" y="70" on="1"/>
        <pt x="554" y="70" on="1"/>
      </contour>
      <contour>
        <pt x="282" y="60" on="1"/>
        <pt x="309" y="60" on="0"/>
        <pt x="358" y="74" on="0"/>
        <pt x="394" y="101" on="0"/>
        <pt x="415" y="140" on="0"/>
        <pt x="415" y="165" on="1"/>
        <pt x="415" y="357" on="1"/>
        <pt x="415" y="378" on="0"/>
        <pt x="394" y="415" on="0"/>
        <pt x="358" y="441" on="0"/>
        <pt x="309" y="456" on="0"/>
        <pt x="282" y="456" on="1"/>
        <pt x="214" y="456" on="0"/>
        <pt x="136" y="371" on="0"/>
        <pt x="136" y="302" on="1"/>
        <pt x="136" y="214" on="1"/>
        <pt x="136" y="145" on="0"/>
        <pt x="214" y="60" on="0"/>
      </contour>
    </TTGlyph>
    <TTGlyph name="alphatonos" xMin="50" yMin="-12" xMax="608" yMax="780">
      <component glyphName="alpha" x="0" y="0" flags="0x204"/>
      <component glyphName="tonos" x="-43" y="0" flags="0x4"/>
    </TTGlyph>
    <TTGlyph name="alphatonos.alt01" xMin="50" yMin="-12" xMax="554" yMax="780">
      <component glyphName="alpha.alt01" x="0" y="0" flags="0x204"/>
      <component glyphName="tonos" x="-33" y="0" flags="0x4"/>
    </TTGlyph>
    <TTGlyph name="amacron" xMin="44" yMin="-12" xMax="505" yMax="705">
      <component glyphName="a" x="0" y="0" flags="0x204"/>
      <component glyphName="macron" x="-47" y="0" flags="0x4"/>
    </TTGlyph>
    <TTGlyph name="amacron.alt01" xMin="50" yMin="-12" xMax="495" yMax="705">
      <component glyphName="a.alt01" x="0" y="0" flags="0x204"/>
      <component glyphName="macron" x="-21" y="0" flags="0x4"/>
    </TTGlyph>
    <TTGlyph name="ampersand" xMin="72" yMin="-12" xMax="668" yMax="710">
      <contour>
        <pt x="489" y="82" on="1"/>
        <pt x="478" y="69" on="0"/>
        <pt x="444" y="36" on="0"/>
        <pt x="395" y="8" on="0"/>
        <pt x="328" y="-12" on="0"/>
        <pt x="286" y="-12" on="1"/>
        <pt x="234" y="-12" on="0"/>
        <pt x="154" y="18" on="0"/>
        <pt x="100" y="71" on="0"/>
        <pt x="72" y="141" on="0"/>
        <pt x="72" y="181" on="1"/>
        <pt x="72" y="220" on="0"/>
        <pt x="96" y="280" on="0"/>
        <pt x="137" y="327" on="0"/>
        <pt x="188" y="363" on="0"/>
        <pt x="215" y="378" on="1"/>
        <pt x="179" y="416" on="0"/>
        <pt x="136" y="495" on="0"/>
        <pt x="136" y="542" on="1"/>
        <pt x="136" y="577" on="0"/>
        <pt x="162" y="639" on="0"/>
        <pt x="209" y="684" on="0"/>
        <pt x="276" y="710" on="0"/>
        <pt x="317" y="710" on="1"/>
        <pt x="354" y="710" on="0"/>
        <pt x="416" y="688" on="0"/>
        <pt x="460" y="649" on="0"/>
        <pt x="485" y="593" on="0"/>
        <pt x="485" y="560" on="1"/>
        <pt x="485" y="525" on="0"/>
        <pt x="460" y="470" on="0"/>
        <pt x="416" y="424" on="0"/>
        <pt x="358" y="385" on="0"/>
        <pt x="325" y="367" on="1"/>
        <pt x="482" y="198" on="1"/>
        <pt x="497" y="236" on="0"/>
        <pt x="513" y="322" on="0"/>
        <pt x="515" y="367" on="1"/>
        <pt x="651" y="367" on="1"/>
        <pt x="651" y="299" on="1"/>
        <pt x="580" y="299" on="1"/>
        <pt x="573" y="255" on="0"/>
        <pt x="549" y="178" on="0"/>
        <pt x="532" y="145" on="1"/>
        <pt x="668" y="0" on="1"/>
        <pt x="564" y="0" on="1"/>
      </contour>
      <contour>
        <pt x="313" y="643" on="1"/>
        <pt x="270" y="643" on="0"/>
        <pt x="215" y="589" on="0"/>
        <pt x="215" y="549" on="1"/>
        <pt x="215" y="537" on="1"/>
        <pt x="215" y="507" on="0"/>
        <pt x="252" y="446" on="0"/>
        <pt x="282" y="412" on="1"/>
        <pt x="306" y="425" on="0"/>
        <pt x="351" y="454" on="0"/>
        <pt x="386" y="488" on="0"/>
        <pt x="408" y="525" on="0"/>
        <pt x="408" y="546" on="1"/>
        <pt x="408" y="558" on="1"/>
        <pt x="408" y="599" on="0"/>
        <pt x="351" y="643" on="0"/>
      </contour>
      <contour>
        <pt x="293" y="58" on="1"/>
        <pt x="344" y="58" on="0"/>
        <pt x="418" y="97" on="0"/>
        <pt x="444" y="130" on="1"/>
        <pt x="257" y="332" on="1"/>
        <pt x="237" y="321" on="0"/>
        <pt x="200" y="297" on="0"/>
        <pt x="172" y="264" on="0"/>
        <pt x="155" y="221" on="0"/>
        <pt x="155" y="192" on="1"/>
        <pt x="155" y="177" on="1"/>
        <pt x="155" y="122" on="0"/>
        <pt x="230" y="58" on="0"/>
      </contour>
    </TTGlyph>
    <TTGlyph name="anoteleia" xMin="85" yMin="394" xMax="207" yMax="523">
      <component glyphName="period" x="10" y="406" flags="0x4"/>
    </TTGlyph>
    <TTGlyph name="aogonek" xMin="44" yMin="-207" xMax="526" yMax="528">
      <contour>
        <pt x="505" y="0" on="1"/>
        <pt x="473" y="-29" on="0"/>
        <pt x="435" y="-69" on="0"/>
        <pt x="414" y="-96" on="0"/>
        <pt x="407" y="-115" on="0"/>
        <pt x="407" y="-123" on="1"/>
        <pt x="407" y="-140" on="0"/>
        <pt x="424" y="-153" on="0"/>
        <pt x="438" y="-153" on="1"/>
        <pt x="467" y="-153" on="0"/>
        <pt x="486" y="-129" on="1"/>
        <pt x="526" y="-168" on="1"/>
        <pt x="517" y="-184" on="0"/>
        <pt x="473" y="-207" on="0"/>
        <pt x="438" y="-207" on="1"/>
        <pt x="399" y="-207" on="0"/>
        <pt x="343" y="-171" on="0"/>
        <pt x="343" y="-131" on="1"/>
        <pt x="343" y="-112" on="0"/>
        <pt x="359" y="-78" on="0"/>
        <pt x="387" y="-47" on="0"/>
        <pt x="424" y="-17" on="0"/>
        <pt x="445" y="-2" on="1"/>
        <pt x="444" y="1" on="1"/>
        <pt x="409" y="6" on="0"/>
        <pt x="375" y="52" on="0"/>
        <pt x="371" y="84" on="1"/>
        <pt x="366" y="84" on="1"/>
        <pt x="349" y="36" on="0"/>
        <pt x="271" y="-12" on="0"/>
        <pt x="217" y="-12" on="1"/>
        <pt x="135" y="-12" on="0"/>
        <pt x="44" y="72" on="0"/>
        <pt x="44" y="144" on="1"/>
        <pt x="44" y="217" on="0"/>
        <pt x="151" y="295" on="0"/>
        <pt x="264" y="295" on="1"/>
        <pt x="366" y="295" on="1"/>
        <pt x="366" y="346" on="1"/>
        <pt x="366" y="401" on="0"/>
        <pt x="306" y="459" on="0"/>
        <pt x="244" y="459" on="1"/>
        <pt x="197" y="459" on="0"/>
        <pt x="134" y="417" on="0"/>
        <pt x="113" y="382" on="1"/>
        <pt x="65" y="427" on="1"/>
        <pt x="86" y="469" on="0"/>
        <pt x="178" y="528" on="0"/>
        <pt x="248" y="528" on="1"/>
        <pt x="342" y="528" on="0"/>
        <pt x="446" y="436" on="0"/>
        <pt x="446" y="354" on="1"/>
        <pt x="446" y="70" on="1"/>
        <pt x="505" y="70" on="1"/>
      </contour>
      <contour>
        <pt x="260" y="235" on="1"/>
        <pt x="191" y="235" on="0"/>
        <pt x="128" y="195" on="0"/>
        <pt x="128" y="157" on="1"/>
        <pt x="128" y="136" on="1"/>
        <pt x="128" y="98" on="0"/>
        <pt x="183" y="56" on="0"/>
        <pt x="230" y="56" on="1"/>
        <pt x="260" y="56" on="0"/>
        <pt x="310" y="70" on="0"/>
        <pt x="346" y="96" on="0"/>
        <pt x="366" y="130" on="0"/>
        <pt x="366" y="150" on="1"/>
        <pt x="366" y="235" on="1"/>
      </contour>
    </TTGlyph>
    <TTGlyph name="aogonek.alt01" xMin="50" yMin="-207" xMax="516" yMax="528">
      <contour>
        <pt x="495" y="0" on="1"/>
        <pt x="463" y="-29" on="0"/>
        <pt x="425" y="-69" on="0"/>
        <pt x="404" y="-96" on="0"/>
        <pt x="397" y="-115" on="0"/>
        <pt x="397" y="-123" on="1"/>
        <pt x="397" y="-140" on="0"/>
        <pt x="414" y="-153" on="0"/>
        <pt x="428" y="-153" on="1"/>
        <pt x="457" y="-153" on="0"/>
        <pt x="476" y="-129" on="1"/>
        <pt x="516" y="-168" on="1"/>
        <pt x="507" y="-184" on="0"/>
        <pt x="463" y="-207" on="0"/>
        <pt x="428" y="-207" on="1"/>
        <pt x="389" y="-207" on="0"/>
        <pt x="333" y="-171" on="0"/>
        <pt x="333" y="-131" on="1"/>
        <pt x="333" y="-112" on="0"/>
        <pt x="350" y="-78" on="0"/>
        <pt x="378" y="-47" on="0"/>
        <pt x="414" y="-18" on="0"/>
        <pt x="434" y="-3" on="1"/>
        <pt x="433" y="0" on="1"/>
        <pt x="415" y="0" on="1"/>
        <pt x="415" y="84" on="1"/>
        <pt x="411" y="84" on="1"/>
        <pt x="364" y="-12" on="0"/>
        <pt x="260" y="-12" on="1"/>
        <pt x="212" y="-12" on="0"/>
        <pt x="134" y="26" on="0"/>
        <pt x="79" y="96" on="0"/>
        <pt x="50" y="196" on="0"/>
        <pt x="50" y="258" on="1"/>
        <pt x="50" y="320" on="0"/>
        <pt x="79" y="420" on="0"/>
        <pt x="134" y="490" on="0"/>
        <pt x="212" y="528" on="0"/>
        <pt x="260" y="528" on="1"/>
        <pt x="314" y="528" on="0"/>
        <pt x="391" y="481" on="0"/>
        <pt x="411" y="432" on="1"/>
        <pt x="415" y="432" on="1"/>
        <pt x="415" y="516" on="1"/>
        <pt x="495" y="516" on="1"/>
      </contour>
      <contour>
        <pt x="282" y="60" on="1"/>
        <pt x="309" y="60" on="0"/>
        <pt x="358" y="74" on="0"/>
        <pt x="394" y="101" on="0"/>
        <pt x="415" y="140" on="0"/>
        <pt x="415" y="165" on="1"/>
        <pt x="415" y="357" on="1"/>
        <pt x="415" y="378" on="0"/>
        <pt x="394" y="415" on="0"/>
        <pt x="358" y="441" on="0"/>
        <pt x="309" y="456" on="0"/>
        <pt x="282" y="456" on="1"/>
        <pt x="214" y="456" on="0"/>
        <pt x="136" y="371" on="0"/>
        <pt x="136" y="302" on="1"/>
        <pt x="136" y="214" on="1"/>
        <pt x="136" y="145" on="0"/>
        <pt x="214" y="60" on="0"/>
      </contour>
    </TTGlyph>
    <TTGlyph name="approxequal" xMin="61" yMin="138" xMax="539" yMax="474">
      <component glyphName="asciitilde" x="0" y="100" flags="0x204"/>
      <component glyphName="asciitilde" x="0" y="-98" flags="0x4"/>
    </TTGlyph>
    <TTGlyph name="aring" xMin="44" yMin="-12" xMax="505" yMax="806">
      <component glyphName="a" x="0" y="0" flags="0x204"/>
      <component glyphName="ring" x="-47" y="0" flags="0x4"/>
    </TTGlyph>
    <TTGlyph name="aring.alt01" xMin="50" yMin="-12" xMax="495" yMax="806">
      <component glyphName="a.alt01" x="0" y="0" flags="0x204"/>
      <component glyphName="ring" x="-21" y="0" flags="0x4"/>
    </TTGlyph>
    <TTGlyph name="aringacute" xMin="44" yMin="-12" xMax="505" yMax="956">
      <component glyphName="a" x="0" y="0" flags="0x204"/>
      <component glyphName="ringacute" x="-47" y="0" flags="0x4"/>
    </TTGlyph>
    <TTGlyph name="aringacute.alt01" xMin="50" yMin="-12" xMax="495" yMax="956">
      <component glyphName="a.alt01" x="0" y="0" flags="0x204"/>
      <component glyphName="ringacute" x="-21" y="0" flags="0x4"/>
    </TTGlyph>
    <TTGlyph name="asciicircum" xMin="50" yMin="296" xMax="550" yMax="698">
      <contour>
        <pt x="489" y="296" on="1"/>
        <pt x="302" y="624" on="1"/>
        <pt x="298" y="624" on="1"/>
        <pt x="111" y="296" on="1"/>
        <pt x="50" y="328" on="1"/>
        <pt x="257" y="698" on="1"/>
        <pt x="343" y="698" on="1"/>
        <pt x="550" y="328" on="1"/>
      </contour>
    </TTGlyph>
    <TTGlyph name="asciitilde" xMin="61" yMin="236" xMax="539" yMax="374">
      <contour>
        <pt x="419" y="236" on="1"/>
        <pt x="382" y="236" on="0"/>
        <pt x="325" y="256" on="0"/>
        <pt x="290" y="273" on="1"/>
        <pt x="262" y="287" on="0"/>
        <pt x="208" y="307" on="0"/>
        <pt x="177" y="307" on="1"/>
        <pt x="152" y="307" on="0"/>
        <pt x="117" y="292" on="0"/>
        <pt x="94" y="275" on="1"/>
        <pt x="61" y="319" on="1"/>
        <pt x="81" y="344" on="0"/>
        <pt x="136" y="374" on="0"/>
        <pt x="181" y="374" on="1"/>
        <pt x="218" y="374" on="0"/>
        <pt x="275" y="354" on="0"/>
        <pt x="310" y="337" on="1"/>
        <pt x="338" y="323" on="0"/>
        <pt x="392" y="303" on="0"/>
        <pt x="423" y="303" on="1"/>
        <pt x="448" y="303" on="0"/>
        <pt x="483" y="318" on="0"/>
        <pt x="506" y="335" on="1"/>
        <pt x="539" y="291" on="1"/>
        <pt x="519" y="266" on="0"/>
        <pt x="464" y="236" on="0"/>
      </contour>
    </TTGlyph>
    <TTGlyph name="asterisk" xMin="36" yMin="388" xMax="414" yMax="747">
      <contour>
        <pt x="143" y="388" on="1"/>
        <pt x="87" y="429" on="1"/>
        <pt x="178" y="545" on="1"/>
        <pt x="36" y="584" on="1"/>
        <pt x="58" y="651" on="1"/>
        <pt x="196" y="600" on="1"/>
        <pt x="190" y="747" on="1"/>
        <pt x="260" y="747" on="1"/>
        <pt x="254" y="600" on="1"/>
        <pt x="392" y="651" on="1"/>
        <pt x="414" y="584" on="1"/>
        <pt x="272" y="545" on="1"/>
        <pt x="363" y="429" on="1"/>
        <pt x="307" y="388" on="1"/>
        <pt x="225" y="511" on="1"/>
      </contour>
    </TTGlyph>
    <TTGlyph name="at" xMin="65" yMin="-121" xMax="826" yMax="708">
      <contour>
        <pt x="679" y="-121" on="1"/>
        <pt x="447" y="-121" on="1"/>
        <pt x="361" y="-121" on="0"/>
        <pt x="220" y="-63" on="0"/>
        <pt x="120" y="44" on="0"/>
        <pt x="65" y="195" on="0"/>
        <pt x="65" y="288" on="1"/>
        <pt x="65" y="381" on="0"/>
        <pt x="121" y="535" on="0"/>
        <pt x="223" y="646" on="0"/>
        <pt x="367" y="708" on="0"/>
        <pt x="456" y="708" on="1"/>
        <pt x="526" y="708" on="0"/>
        <pt x="660" y="665" on="0"/>
        <pt x="763" y="573" on="0"/>
        <pt x="826" y="426" on="0"/>
        <pt x="826" y="323" on="1"/>
        <pt x="826" y="271" on="0"/>
        <pt x="807" y="179" on="0"/>
        <pt x="765" y="110" on="0"/>
        <pt x="699" y="69" on="0"/>
        <pt x="652" y="69" on="1"/>
        <pt x="604" y="69" on="0"/>
        <pt x="556" y="117" on="0"/>
        <pt x="551" y="155" on="1"/>
        <pt x="547" y="155" on="1"/>
        <pt x="527" y="115" on="0"/>
        <pt x="469" y="69" on="0"/>
        <pt x="423" y="69" on="1"/>
        <pt x="388" y="69" on="0"/>
        <pt x="325" y="96" on="0"/>
        <pt x="277" y="150" on="0"/>
        <pt x="249" y="233" on="0"/>
        <pt x="249" y="289" on="1"/>
        <pt x="249" y="345" on="0"/>
        <pt x="277" y="428" on="0"/>
        <pt x="325" y="482" on="0"/>
        <pt x="388" y="509" on="0"/>
        <pt x="423" y="509" on="1"/>
        <pt x="469" y="509" on="0"/>
        <pt x="523" y="464" on="0"/>
        <pt x="537" y="432" on="1"/>
        <pt x="541" y="432" on="1"/>
        <pt x="541" y="500" on="1"/>
        <pt x="610" y="500" on="1"/>
        <pt x="610" y="196" on="1"/>
        <pt x="610" y="157" on="0"/>
        <pt x="637" y="130" on="0"/>
        <pt x="665" y="130" on="1"/>
        <pt x="712" y="130" on="0"/>
        <pt x="760" y="226" on="0"/>
        <pt x="760" y="310" on="1"/>
        <pt x="760" y="356" on="1"/>
        <pt x="760" y="422" on="0"/>
        <pt x="713" y="530" on="0"/>
        <pt x="631" y="606" on="0"/>
        <pt x="519" y="648" on="0"/>
        <pt x="455" y="648" on="1"/>
        <pt x="383" y="648" on="0"/>
        <pt x="265" y="598" on="0"/>
        <pt x="179" y="509" on="0"/>
        <pt x="132" y="390" on="0"/>
        <pt x="132" y="321" on="1"/>
        <pt x="132" y="262" on="1"/>
        <pt x="132" y="191" on="0"/>
        <pt x="178" y="73" on="0"/>
        <pt x="261" y="-13" on="0"/>
        <pt x="377" y="-60" on="0"/>
        <pt x="448" y="-60" on="1"/>
        <pt x="679" y="-60" on="1"/>
      </contour>
      <contour>
        <pt x="437" y="135" on="1"/>
        <pt x="490" y="135" on="0"/>
        <pt x="541" y="185" on="0"/>
        <pt x="541" y="231" on="1"/>
        <pt x="541" y="353" on="1"/>
        <pt x="541" y="391" on="0"/>
        <pt x="491" y="443" on="0"/>
        <pt x="437" y="443" on="1"/>
        <pt x="383" y="443" on="0"/>
        <pt x="333" y="381" on="0"/>
        <pt x="333" y="329" on="1"/>
        <pt x="333" y="249" on="1"/>
        <pt x="333" y="197" on="0"/>
        <pt x="383" y="135" on="0"/>
      </contour>
    </TTGlyph>
    <TTGlyph name="atilde" xMin="44" yMin="-12" xMax="505" yMax="728">
      <component glyphName="a" x="0" y="0" flags="0x204"/>
      <component glyphName="tilde" x="-47" y="0" flags="0x4"/>
    </TTGlyph>
    <TTGlyph name="atilde.alt01" xMin="50" yMin="-12" xMax="495" yMax="728">
      <component glyphName="a.alt01" x="0" y="0" flags="0x204"/>
      <component glyphName="tilde" x="-21" y="0" flags="0x4"/>
    </TTGlyph>
    <TTGlyph name="b" xMin="85" yMin="-12" xMax="530" yMax="740">
      <contour>
        <pt x="85" y="740" on="1"/>
        <pt x="165" y="740" on="1"/>
        <pt x="165" y="432" on="1"/>
        <pt x="169" y="432" on="1"/>
        <pt x="189" y="481" on="0"/>
        <pt x="266" y="528" on="0"/>
        <pt x="320" y="528" on="1"/>
        <pt x="368" y="528" on="0"/>
        <pt x="446" y="490" on="0"/>
        <pt x="501" y="420" on="0"/>
        <pt x="530" y="320" on="0"/>
        <pt x="530" y="258" on="1"/>
        <pt x="530" y="196" on="0"/>
        <pt x="501" y="96" on="0"/>
        <pt x="446" y="26" on="0"/>
        <pt x="368" y="-12" on="0"/>
        <pt x="320" y="-12" on="1"/>
        <pt x="215" y="-12" on="0"/>
        <pt x="169" y="84" on="1"/>
        <pt x="165" y="84" on="1"/>
        <pt x="165" y="0" on="1"/>
        <pt x="85" y="0" on="1"/>
      </contour>
      <contour>
        <pt x="298" y="60" on="1"/>
        <pt x="366" y="60" on="0"/>
        <pt x="444" y="145" on="0"/>
        <pt x="444" y="214" on="1"/>
        <pt x="444" y="302" on="1"/>
        <pt x="444" y="371" on="0"/>
        <pt x="366" y="456" on="0"/>
        <pt x="298" y="456" on="1"/>
        <pt x="271" y="456" on="0"/>
        <pt x="222" y="441" on="0"/>
        <pt x="186" y="415" on="0"/>
        <pt x="165" y="378" on="0"/>
        <pt x="165" y="357" on="1"/>
        <pt x="165" y="165" on="1"/>
        <pt x="165" y="140" on="0"/>
        <pt x="186" y="101" on="0"/>
        <pt x="222" y="74" on="0"/>
        <pt x="271" y="60" on="0"/>
      </contour>
    </TTGlyph>
    <TTGlyph name="backslash" xMin="40" yMin="-151" xMax="371" yMax="740">
      <contour>
        <pt x="299" y="-151" on="1"/>
        <pt x="40" y="740" on="1"/>
        <pt x="112" y="740" on="1"/>
        <pt x="371" y="-151" on="1"/>
      </contour>
    </TTGlyph>
    <TTGlyph name="bar" xMin="123" yMin="-138" xMax="191" yMax="760">
      <contour>
        <pt x="123" y="-138" on="1"/>
        <pt x="123" y="760" on="1"/>
        <pt x="191" y="760" on="1"/>
        <pt x="191" y="-138" on="1"/>
      </contour>
    </TTGlyph>
    <TTGlyph name="beta" xMin="85" yMin="-200" xMax="530" yMax="752">
      <contour>
        <pt x="85" y="521" on="1"/>
        <pt x="85" y="626" on="0"/>
        <pt x="192" y="752" on="0"/>
        <pt x="296" y="752" on="1"/>
        <pt x="341" y="752" on="0"/>
        <pt x="414" y="727" on="0"/>
        <pt x="466" y="681" on="0"/>
        <pt x="494" y="615" on="0"/>
        <pt x="494" y="574" on="1"/>
        <pt x="494" y="536" on="0"/>
        <pt x="470" y="477" on="0"/>
        <pt x="432" y="436" on="0"/>
        <pt x="384" y="411" on="0"/>
        <pt x="360" y="407" on="1"/>
        <pt x="360" y="403" on="1"/>
        <pt x="390" y="399" on="0"/>
        <pt x="451" y="376" on="0"/>
        <pt x="500" y="331" on="0"/>
        <pt x="530" y="261" on="0"/>
        <pt x="530" y="211" on="1"/>
        <pt x="530" y="164" on="0"/>
        <pt x="501" y="82" on="0"/>
        <pt x="445" y="22" on="0"/>
        <pt x="366" y="-12" on="0"/>
        <pt x="316" y="-12" on="1"/>
        <pt x="266" y="-12" on="0"/>
        <pt x="191" y="24" on="0"/>
        <pt x="169" y="60" on="1"/>
        <pt x="165" y="60" on="1"/>
        <pt x="165" y="-200" on="1"/>
        <pt x="85" y="-200" on="1"/>
      </contour>
      <contour>
        <pt x="246" y="438" on="1"/>
        <pt x="293" y="438" on="1"/>
        <pt x="353" y="438" on="0"/>
        <pt x="408" y="500" on="0"/>
        <pt x="408" y="551" on="1"/>
        <pt x="408" y="575" on="1"/>
        <pt x="408" y="623" on="0"/>
        <pt x="351" y="680" on="0"/>
        <pt x="291" y="680" on="1"/>
        <pt x="227" y="680" on="0"/>
        <pt x="165" y="608" on="0"/>
        <pt x="165" y="527" on="1"/>
        <pt x="165" y="137" on="1"/>
        <pt x="165" y="119" on="0"/>
        <pt x="186" y="90" on="0"/>
        <pt x="222" y="70" on="0"/>
        <pt x="270" y="60" on="0"/>
        <pt x="296" y="60" on="1"/>
        <pt x="366" y="60" on="0"/>
        <pt x="444" y="133" on="0"/>
        <pt x="444" y="202" on="1"/>
        <pt x="444" y="226" on="1"/>
        <pt x="444" y="295" on="0"/>
        <pt x="366" y="368" on="0"/>
        <pt x="298" y="368" on="1"/>
        <pt x="246" y="368" on="1"/>
      </contour>
    </TTGlyph>
    <TTGlyph name="braceleft" xMin="22" yMin="-138" xMax="283" yMax="760">
      <contour>
        <pt x="199" y="-138" on="1"/>
        <pt x="159" y="-138" on="0"/>
        <pt x="119" y="-91" on="0"/>
        <pt x="119" y="-56" on="1"/>
        <pt x="119" y="184" on="1"/>
        <pt x="119" y="227" on="0"/>
        <pt x="64" y="272" on="0"/>
        <pt x="22" y="272" on="1"/>
        <pt x="22" y="350" on="1"/>
        <pt x="64" y="350" on="0"/>
        <pt x="119" y="395" on="0"/>
        <pt x="119" y="438" on="1"/>
        <pt x="119" y="678" on="1"/>
        <pt x="119" y="713" on="0"/>
        <pt x="159" y="760" on="0"/>
        <pt x="199" y="760" on="1"/>
        <pt x="283" y="760" on="1"/>
        <pt x="283" y="697" on="1"/>
        <pt x="188" y="697" on="1"/>
        <pt x="188" y="447" on="1"/>
        <pt x="188" y="400" on="0"/>
        <pt x="135" y="327" on="0"/>
        <pt x="93" y="319" on="1"/>
        <pt x="93" y="303" on="1"/>
        <pt x="135" y="295" on="0"/>
        <pt x="188" y="222" on="0"/>
        <pt x="188" y="175" on="1"/>
        <pt x="188" y="-75" on="1"/>
        <pt x="283" y="-75" on="1"/>
        <pt x="283" y="-138" on="1"/>
      </contour>
    </TTGlyph>
    <TTGlyph name="braceright" xMin="60" yMin="-138" xMax="321" yMax="760">
      <contour>
        <pt x="144" y="760" on="1"/>
        <pt x="184" y="760" on="0"/>
        <pt x="224" y="713" on="0"/>
        <pt x="224" y="678" on="1"/>
        <pt x="224" y="438" on="1"/>
        <pt x="224" y="395" on="0"/>
        <pt x="279" y="350" on="0"/>
        <pt x="321" y="350" on="1"/>
        <pt x="321" y="272" on="1"/>
        <pt x="279" y="272" on="0"/>
        <pt x="224" y="227" on="0"/>
        <pt x="224" y="184" on="1"/>
        <pt x="224" y="-56" on="1"/>
        <pt x="224" y="-91" on="0"/>
        <pt x="184" y="-138" on="0"/>
        <pt x="144" y="-138" on="1"/>
        <pt x="60" y="-138" on="1"/>
        <pt x="60" y="-75" on="1"/>
        <pt x="155" y="-75" on="1"/>
        <pt x="155" y="175" on="1"/>
        <pt x="155" y="222" on="0"/>
        <pt x="208" y="295" on="0"/>
        <pt x="250" y="303" on="1"/>
        <pt x="250" y="319" on="1"/>
        <pt x="208" y="327" on="0"/>
        <pt x="155" y="400" on="0"/>
        <pt x="155" y="447" on="1"/>
        <pt x="155" y="697" on="1"/>
        <pt x="60" y="697" on="1"/>
        <pt x="60" y="760" on="1"/>
      </contour>
    </TTGlyph>
    <TTGlyph name="bracketleft" xMin="93" yMin="-138" xMax="257" yMax="760">
      <contour>
        <pt x="93" y="-138" on="1"/>
        <pt x="93" y="760" on="1"/>
        <pt x="257" y="760" on="1"/>
        <pt x="257" y="697" on="1"/>
        <pt x="162" y="697" on="1"/>
        <pt x="162" y="-75" on="1"/>
        <pt x="257" y="-75" on="1"/>
        <pt x="257" y="-138" on="1"/>
      </contour>
    </TTGlyph>
    <TTGlyph name="bracketright" xMin="60" yMin="-138" xMax="224" yMax="760">
      <contour>
        <pt x="224" y="760" on="1"/>
        <pt x="224" y="-138" on="1"/>
        <pt x="60" y="-138" on="1"/>
        <pt x="60" y="-75" on="1"/>
        <pt x="155" y="-75" on="1"/>
        <pt x="155" y="697" on="1"/>
        <pt x="60" y="697" on="1"/>
        <pt x="60" y="760" on="1"/>
      </contour>
    </TTGlyph>
    <TTGlyph name="breve" xMin="148" yMin="596" xMax="452" yMax="743">
      <contour>
        <pt x="300" y="596" on="1"/>
        <pt x="260" y="596" on="0"/>
        <pt x="207" y="620" on="0"/>
        <pt x="174" y="656" on="0"/>
        <pt x="155" y="700" on="0"/>
        <pt x="148" y="721" on="1"/>
        <pt x="193" y="743" on="1"/>
        <pt x="214" y="710" on="1"/>
        <pt x="227" y="688" on="0"/>
        <pt x="262" y="659" on="0"/>
        <pt x="300" y="659" on="1"/>
        <pt x="319" y="659" on="0"/>
        <pt x="346" y="667" on="0"/>
        <pt x="365" y="680" on="0"/>
        <pt x="379" y="699" on="0"/>
        <pt x="386" y="710" on="1"/>
        <pt x="407" y="743" on="1"/>
        <pt x="452" y="721" on="1"/>
        <pt x="445" y="700" on="0"/>
        <pt x="426" y="656" on="0"/>
        <pt x="393" y="620" on="0"/>
        <pt x="340" y="596" on="0"/>
      </contour>
    </TTGlyph>
    <TTGlyph name="breve.case" xMin="148" yMin="766" xMax="452" yMax="913">
      <contour>
        <pt x="300" y="766" on="1"/>
        <pt x="260" y="766" on="0"/>
        <pt x="207" y="790" on="0"/>
        <pt x="174" y="826" on="0"/>
        <pt x="155" y="870" on="0"/>
        <pt x="148" y="891" on="1"/>
        <pt x="193" y="913" on="1"/>
        <pt x="214" y="880" on="1"/>
        <pt x="227" y="858" on="0"/>
        <pt x="262" y="829" on="0"/>
        <pt x="300" y="829" on="1"/>
        <pt x="319" y="829" on="0"/>
        <pt x="346" y="837" on="0"/>
        <pt x="365" y="850" on="0"/>
        <pt x="379" y="869" on="0"/>
        <pt x="386" y="880" on="1"/>
        <pt x="407" y="913" on="1"/>
        <pt x="452" y="891" on="1"/>
        <pt x="445" y="870" on="0"/>
        <pt x="426" y="826" on="0"/>
        <pt x="393" y="790" on="0"/>
        <pt x="340" y="766" on="0"/>
      </contour>
    </TTGlyph>
    <TTGlyph name="breve.cyrl" xMin="143" yMin="596" xMax="457" yMax="743">
      <contour>
        <pt x="300" y="596" on="1"/>
        <pt x="246" y="596" on="0"/>
        <pt x="182" y="639" on="0"/>
        <pt x="163" y="674" on="1"/>
        <pt x="143" y="712" on="1"/>
        <pt x="213" y="743" on="1"/>
        <pt x="248" y="661" on="1"/>
        <pt x="260" y="658" on="0"/>
        <pt x="288" y="655" on="0"/>
        <pt x="300" y="655" on="1"/>
        <pt x="312" y="655" on="0"/>
        <pt x="340" y="658" on="0"/>
        <pt x="352" y="661" on="1"/>
        <pt x="387" y="743" on="1"/>
        <pt x="457" y="712" on="1"/>
        <pt x="437" y="674" on="1"/>
        <pt x="418" y="639" on="0"/>
        <pt x="354" y="596" on="0"/>
      </contour>
    </TTGlyph>
    <TTGlyph name="breve.cyrl_case" xMin="143" yMin="766" xMax="457" yMax="913">
      <contour>
        <pt x="300" y="766" on="1"/>
        <pt x="246" y="766" on="0"/>
        <pt x="182" y="809" on="0"/>
        <pt x="163" y="844" on="1"/>
        <pt x="143" y="882" on="1"/>
        <pt x="213" y="913" on="1"/>
        <pt x="248" y="831" on="1"/>
        <pt x="260" y="828" on="0"/>
        <pt x="288" y="825" on="0"/>
        <pt x="300" y="825" on="1"/>
        <pt x="312" y="825" on="0"/>
        <pt x="340" y="828" on="0"/>
        <pt x="352" y="831" on="1"/>
        <pt x="387" y="913" on="1"/>
        <pt x="457" y="882" on="1"/>
        <pt x="437" y="844" on="1"/>
        <pt x="418" y="809" on="0"/>
        <pt x="354" y="766" on="0"/>
      </contour>
    </TTGlyph>
    <TTGlyph name="breveacute" xMin="-154" yMin="585" xMax="154" yMax="891">
      <contour>
        <pt x="0" y="585" on="1"/>
        <pt x="-40" y="585" on="0"/>
        <pt x="-93" y="609" on="0"/>
        <pt x="-128" y="646" on="0"/>
        <pt x="-147" y="690" on="0"/>
        <pt x="-154" y="711" on="1"/>
        <pt x="-109" y="733" on="1"/>
        <pt x="-88" y="700" on="1"/>
        <pt x="-75" y="678" on="0"/>
        <pt x="-38" y="644" on="0"/>
        <pt x="0" y="644" on="1"/>
        <pt x="19" y="644" on="0"/>
        <pt x="46" y="653" on="0"/>
        <pt x="66" y="669" on="0"/>
        <pt x="81" y="689" on="0"/>
        <pt x="88" y="700" on="1"/>
        <pt x="109" y="733" on="1"/>
        <pt x="154" y="711" on="1"/>
        <pt x="147" y="690" on="0"/>
        <pt x="128" y="646" on="0"/>
        <pt x="93" y="609" on="0"/>
        <pt x="40" y="585" on="0"/>
      </contour>
      <contour>
        <pt x="4" y="698" on="1"/>
        <pt x="-45" y="721" on="1"/>
        <pt x="40" y="891" on="1"/>
        <pt x="110" y="857" on="1"/>
      </contour>
    </TTGlyph>
    <TTGlyph name="breveacute.case" xMin="-152" yMin="756" xMax="152" yMax="1061">
      <contour>
        <pt x="0" y="756" on="1"/>
        <pt x="-40" y="756" on="0"/>
        <pt x="-93" y="780" on="0"/>
        <pt x="-126" y="816" on="0"/>
        <pt x="-145" y="860" on="0"/>
        <pt x="-152" y="881" on="1"/>
        <pt x="-107" y="903" on="1"/>
        <pt x="-86" y="865" on="1"/>
        <pt x="-74" y="843" on="0"/>
        <pt x="-38" y="814" on="0"/>
        <pt x="0" y="814" on="1"/>
        <pt x="38" y="814" on="0"/>
        <pt x="74" y="843" on="0"/>
        <pt x="86" y="865" on="1"/>
        <pt x="107" y="903" on="1"/>
        <pt x="152" y="881" on="1"/>
        <pt x="145" y="860" on="0"/>
        <pt x="126" y="816" on="0"/>
        <pt x="93" y="780" on="0"/>
        <pt x="40" y="756" on="0"/>
      </contour>
      <contour>
        <pt x="4" y="868" on="1"/>
        <pt x="-45" y="891" on="1"/>
        <pt x="40" y="1061" on="1"/>
        <pt x="110" y="1027" on="1"/>
      </contour>
    </TTGlyph>
    <TTGlyph name="brevegrave" xMin="-154" yMin="585" xMax="154" yMax="891">
      <contour>
        <pt x="0" y="585" on="1"/>
        <pt x="-40" y="585" on="0"/>
        <pt x="-93" y="609" on="0"/>
        <pt x="-128" y="646" on="0"/>
        <pt x="-147" y="690" on="0"/>
        <pt x="-154" y="711" on="1"/>
        <pt x="-109" y="733" on="1"/>
        <pt x="-88" y="700" on="1"/>
        <pt x="-75" y="678" on="0"/>
        <pt x="-38" y="644" on="0"/>
        <pt x="0" y="644" on="1"/>
        <pt x="19" y="644" on="0"/>
        <pt x="46" y="653" on="0"/>
        <pt x="66" y="669" on="0"/>
        <pt x="81" y="689" on="0"/>
        <pt x="88" y="700" on="1"/>
        <pt x="109" y="733" on="1"/>
        <pt x="154" y="711" on="1"/>
        <pt x="147" y="690" on="0"/>
        <pt x="128" y="646" on="0"/>
        <pt x="93" y="609" on="0"/>
        <pt x="40" y="585" on="0"/>
      </contour>
      <contour>
        <pt x="-110" y="857" on="1"/>
        <pt x="-40" y="891" on="1"/>
        <pt x="45" y="721" on="1"/>
        <pt x="-4" y="698" on="1"/>
      </contour>
    </TTGlyph>
    <TTGlyph name="brevegrave.case" xMin="-152" yMin="756" xMax="152" yMax="1061">
      <contour>
        <pt x="0" y="756" on="1"/>
        <pt x="-40" y="756" on="0"/>
        <pt x="-93" y="780" on="0"/>
        <pt x="-126" y="816" on="0"/>
        <pt x="-145" y="860" on="0"/>
        <pt x="-152" y="881" on="1"/>
        <pt x="-107" y="903" on="1"/>
        <pt x="-86" y="865" on="1"/>
        <pt x="-74" y="843" on="0"/>
        <pt x="-38" y="814" on="0"/>
        <pt x="0" y="814" on="1"/>
        <pt x="38" y="814" on="0"/>
        <pt x="74" y="843" on="0"/>
        <pt x="86" y="865" on="1"/>
        <pt x="107" y="903" on="1"/>
        <pt x="152" y="881" on="1"/>
        <pt x="145" y="860" on="0"/>
        <pt x="126" y="816" on="0"/>
        <pt x="93" y="780" on="0"/>
        <pt x="40" y="756" on="0"/>
      </contour>
      <contour>
        <pt x="-110" y="1027" on="1"/>
        <pt x="-40" y="1061" on="1"/>
        <pt x="45" y="891" on="1"/>
        <pt x="-4" y="868" on="1"/>
      </contour>
    </TTGlyph>
    <TTGlyph name="brevehook" xMin="-154" yMin="585" xMax="154" yMax="880">
      <contour>
        <pt x="0" y="585" on="1"/>
        <pt x="-40" y="585" on="0"/>
        <pt x="-93" y="609" on="0"/>
        <pt x="-128" y="646" on="0"/>
        <pt x="-147" y="690" on="0"/>
        <pt x="-154" y="711" on="1"/>
        <pt x="-109" y="733" on="1"/>
        <pt x="-88" y="700" on="1"/>
        <pt x="-75" y="678" on="0"/>
        <pt x="-38" y="644" on="0"/>
        <pt x="0" y="644" on="1"/>
        <pt x="19" y="644" on="0"/>
        <pt x="46" y="653" on="0"/>
        <pt x="66" y="669" on="0"/>
        <pt x="81" y="689" on="0"/>
        <pt x="88" y="700" on="1"/>
        <pt x="109" y="733" on="1"/>
        <pt x="154" y="711" on="1"/>
        <pt x="147" y="690" on="0"/>
        <pt x="128" y="646" on="0"/>
        <pt x="93" y="609" on="0"/>
        <pt x="40" y="585" on="0"/>
      </contour>
      <contour>
        <pt x="-89" y="880" on="1"/>
        <pt x="5" y="880" on="1"/>
        <pt x="43" y="880" on="0"/>
        <pt x="75" y="848" on="0"/>
        <pt x="75" y="825" on="1"/>
        <pt x="75" y="803" on="0"/>
        <pt x="49" y="751" on="0"/>
        <pt x="26" y="722" on="1"/>
        <pt x="2" y="692" on="1"/>
        <pt x="-42" y="715" on="1"/>
        <pt x="18" y="822" on="1"/>
        <pt x="-89" y="822" on="1"/>
      </contour>
    </TTGlyph>
    <TTGlyph name="brevehook.case" xMin="-152" yMin="756" xMax="152" yMax="1050">
      <contour>
        <pt x="-89" y="1050" on="1"/>
        <pt x="5" y="1050" on="1"/>
        <pt x="43" y="1050" on="0"/>
        <pt x="75" y="1018" on="0"/>
        <pt x="75" y="995" on="1"/>
        <pt x="75" y="973" on="0"/>
        <pt x="49" y="921" on="0"/>
        <pt x="26" y="892" on="1"/>
        <pt x="2" y="862" on="1"/>
        <pt x="-42" y="885" on="1"/>
        <pt x="18" y="992" on="1"/>
        <pt x="-89" y="992" on="1"/>
      </contour>
      <contour>
        <pt x="0" y="756" on="1"/>
        <pt x="-40" y="756" on="0"/>
        <pt x="-93" y="780" on="0"/>
        <pt x="-126" y="816" on="0"/>
        <pt x="-145" y="860" on="0"/>
        <pt x="-152" y="881" on="1"/>
        <pt x="-107" y="903" on="1"/>
        <pt x="-86" y="865" on="1"/>
        <pt x="-74" y="843" on="0"/>
        <pt x="-38" y="814" on="0"/>
        <pt x="0" y="814" on="1"/>
        <pt x="38" y="814" on="0"/>
        <pt x="74" y="843" on="0"/>
        <pt x="86" y="865" on="1"/>
        <pt x="107" y="903" on="1"/>
        <pt x="152" y="881" on="1"/>
        <pt x="145" y="860" on="0"/>
        <pt x="126" y="816" on="0"/>
        <pt x="93" y="780" on="0"/>
        <pt x="40" y="756" on="0"/>
      </contour>
    </TTGlyph>
    <TTGlyph name="brevetilde" xMin="-167" yMin="585" xMax="167" yMax="884">
      <contour>
        <pt x="0" y="585" on="1"/>
        <pt x="-40" y="585" on="0"/>
        <pt x="-93" y="609" on="0"/>
        <pt x="-128" y="646" on="0"/>
        <pt x="-147" y="690" on="0"/>
        <pt x="-154" y="711" on="1"/>
        <pt x="-109" y="733" on="1"/>
        <pt x="-88" y="700" on="1"/>
        <pt x="-75" y="678" on="0"/>
        <pt x="-38" y="644" on="0"/>
        <pt x="0" y="644" on="1"/>
        <pt x="19" y="644" on="0"/>
        <pt x="46" y="653" on="0"/>
        <pt x="66" y="669" on="0"/>
        <pt x="81" y="689" on="0"/>
        <pt x="88" y="700" on="1"/>
        <pt x="109" y="733" on="1"/>
        <pt x="154" y="711" on="1"/>
        <pt x="147" y="690" on="0"/>
        <pt x="128" y="646" on="0"/>
        <pt x="93" y="609" on="0"/>
        <pt x="40" y="585" on="0"/>
      </contour>
      <contour>
        <pt x="72" y="772" on="1"/>
        <pt x="46" y="772" on="0"/>
        <pt x="8" y="790" on="0"/>
        <pt x="-8" y="798" on="1"/>
        <pt x="-32" y="811" on="0"/>
        <pt x="-65" y="822" on="0"/>
        <pt x="-78" y="822" on="1"/>
        <pt x="-95" y="822" on="0"/>
        <pt x="-121" y="808" on="0"/>
        <pt x="-136" y="795" on="1"/>
        <pt x="-167" y="831" on="1"/>
        <pt x="-153" y="851" on="0"/>
        <pt x="-107" y="884" on="0"/>
        <pt x="-72" y="884" on="1"/>
        <pt x="-46" y="884" on="0"/>
        <pt x="-8" y="866" on="0"/>
        <pt x="8" y="858" on="1"/>
        <pt x="32" y="845" on="0"/>
        <pt x="65" y="834" on="0"/>
        <pt x="78" y="834" on="1"/>
        <pt x="95" y="834" on="0"/>
        <pt x="121" y="848" on="0"/>
        <pt x="136" y="861" on="1"/>
        <pt x="167" y="825" on="1"/>
        <pt x="153" y="805" on="0"/>
        <pt x="107" y="772" on="0"/>
      </contour>
    </TTGlyph>
    <TTGlyph name="brevetilde.case" xMin="-167" yMin="756" xMax="167" yMax="1054">
      <contour>
        <pt x="72" y="942" on="1"/>
        <pt x="46" y="942" on="0"/>
        <pt x="8" y="960" on="0"/>
        <pt x="-8" y="968" on="1"/>
        <pt x="-32" y="981" on="0"/>
        <pt x="-65" y="992" on="0"/>
        <pt x="-78" y="992" on="1"/>
        <pt x="-95" y="992" on="0"/>
        <pt x="-121" y="978" on="0"/>
        <pt x="-136" y="965" on="1"/>
        <pt x="-167" y="1001" on="1"/>
        <pt x="-153" y="1021" on="0"/>
        <pt x="-107" y="1054" on="0"/>
        <pt x="-72" y="1054" on="1"/>
        <pt x="-46" y="1054" on="0"/>
        <pt x="-8" y="1036" on="0"/>
        <pt x="8" y="1028" on="1"/>
        <pt x="32" y="1015" on="0"/>
        <pt x="65" y="1004" on="0"/>
        <pt x="78" y="1004" on="1"/>
        <pt x="95" y="1004" on="0"/>
        <pt x="121" y="1018" on="0"/>
        <pt x="136" y="1031" on="1"/>
        <pt x="167" y="995" on="1"/>
        <pt x="153" y="975" on="0"/>
        <pt x="107" y="942" on="0"/>
      </contour>
      <contour>
        <pt x="0" y="756" on="1"/>
        <pt x="-40" y="756" on="0"/>
        <pt x="-93" y="780" on="0"/>
        <pt x="-126" y="816" on="0"/>
        <pt x="-145" y="860" on="0"/>
        <pt x="-152" y="881" on="1"/>
        <pt x="-107" y="903" on="1"/>
        <pt x="-86" y="865" on="1"/>
        <pt x="-74" y="843" on="0"/>
        <pt x="-38" y="814" on="0"/>
        <pt x="0" y="814" on="1"/>
        <pt x="38" y="814" on="0"/>
        <pt x="74" y="843" on="0"/>
        <pt x="86" y="865" on="1"/>
        <pt x="107" y="903" on="1"/>
        <pt x="152" y="881" on="1"/>
        <pt x="145" y="860" on="0"/>
        <pt x="126" y="816" on="0"/>
        <pt x="93" y="780" on="0"/>
        <pt x="40" y="756" on="0"/>
      </contour>
    </TTGlyph>
    <TTGlyph name="brokenbar" xMin="123" yMin="-138" xMax="191" yMax="760">
      <contour>
        <pt x="123" y="406" on="1"/>
        <pt x="123" y="760" on="1"/>
        <pt x="191" y="760" on="1"/>
        <pt x="191" y="406" on="1"/>
      </contour>
      <contour>
        <pt x="123" y="-138" on="1"/>
        <pt x="123" y="216" on="1"/>
        <pt x="191" y="216" on="1"/>
        <pt x="191" y="-138" on="1"/>
      </contour>
    </TTGlyph>
    <TTGlyph name="bullet" xMin="76" yMin="186" xMax="320" yMax="422">
      <contour>
        <pt x="198" y="186" on="1"/>
        <pt x="131" y="186" on="0"/>
        <pt x="76" y="246" on="0"/>
        <pt x="76" y="290" on="1"/>
        <pt x="76" y="318" on="1"/>
        <pt x="76" y="362" on="0"/>
        <pt x="131" y="422" on="0"/>
        <pt x="198" y="422" on="1"/>
        <pt x="265" y="422" on="0"/>
        <pt x="320" y="362" on="0"/>
        <pt x="320" y="318" on="1"/>
        <pt x="320" y="290" on="1"/>
        <pt x="320" y="246" on="0"/>
        <pt x="265" y="186" on="0"/>
      </contour>
    </TTGlyph>
    <TTGlyph name="c" xMin="47" yMin="-12" xMax="475" yMax="528">
      <contour>
        <pt x="277" y="-12" on="1"/>
        <pt x="223" y="-12" on="0"/>
        <pt x="137" y="26" on="0"/>
        <pt x="78" y="96" on="0"/>
        <pt x="47" y="196" on="0"/>
        <pt x="47" y="258" on="1"/>
        <pt x="47" y="320" on="0"/>
        <pt x="78" y="420" on="0"/>
        <pt x="137" y="490" on="0"/>
        <pt x="223" y="528" on="0"/>
        <pt x="277" y="528" on="1"/>
        <pt x="354" y="528" on="0"/>
        <pt x="447" y="461" on="0"/>
        <pt x="470" y="407" on="1"/>
        <pt x="403" y="373" on="1"/>
        <pt x="389" y="413" on="0"/>
        <pt x="325" y="457" on="0"/>
        <pt x="277" y="457" on="1"/>
        <pt x="241" y="457" on="0"/>
        <pt x="187" y="434" on="0"/>
        <pt x="151" y="393" on="0"/>
        <pt x="133" y="336" on="0"/>
        <pt x="133" y="302" on="1"/>
        <pt x="133" y="214" on="1"/>
        <pt x="133" y="146" on="0"/>
        <pt x="206" y="59" on="0"/>
        <pt x="277" y="59" on="1"/>
        <pt x="374" y="59" on="0"/>
        <pt x="417" y="149" on="1"/>
        <pt x="475" y="110" on="1"/>
        <pt x="450" y="54" on="0"/>
        <pt x="351" y="-12" on="0"/>
      </contour>
    </TTGlyph>
    <TTGlyph name="cacute" xMin="47" yMin="-12" xMax="475" yMax="779">
      <component glyphName="c" x="0" y="0" flags="0x204"/>
      <component glyphName="acute" x="-23" y="0" flags="0x4"/>
    </TTGlyph>
    <TTGlyph name="caron" xMin="139" yMin="599" xMax="461" yMax="773">
      <contour>
        <pt x="250" y="599" on="1"/>
        <pt x="139" y="742" on="1"/>
        <pt x="183" y="773" on="1"/>
        <pt x="300" y="656" on="1"/>
        <pt x="417" y="773" on="1"/>
        <pt x="461" y="742" on="1"/>
        <pt x="350" y="599" on="1"/>
      </contour>
    </TTGlyph>
    <TTGlyph name="caron.case" xMin="139" yMin="769" xMax="461" yMax="943">
      <contour>
        <pt x="250" y="769" on="1"/>
        <pt x="139" y="912" on="1"/>
        <pt x="183" y="943" on="1"/>
        <pt x="300" y="826" on="1"/>
        <pt x="417" y="943" on="1"/>
        <pt x="461" y="912" on="1"/>
        <pt x="350" y="769" on="1"/>
      </contour>
    </TTGlyph>
    <TTGlyph name="ccaron" xMin="47" yMin="-12" xMax="475" yMax="773">
      <component glyphName="c" x="0" y="0" flags="0x204"/>
      <component glyphName="caron" x="-23" y="0" flags="0x4"/>
    </TTGlyph>
    <TTGlyph name="ccedilla" xMin="47" yMin="-207" xMax="475" yMax="528">
      <contour>
        <pt x="277" y="528" on="1"/>
        <pt x="354" y="528" on="0"/>
        <pt x="447" y="461" on="0"/>
        <pt x="470" y="408" on="1"/>
        <pt x="403" y="373" on="1"/>
        <pt x="389" y="413" on="0"/>
        <pt x="325" y="457" on="0"/>
        <pt x="277" y="457" on="1"/>
        <pt x="241" y="457" on="0"/>
        <pt x="187" y="434" on="0"/>
        <pt x="151" y="393" on="0"/>
        <pt x="133" y="336" on="0"/>
        <pt x="133" y="302" on="1"/>
        <pt x="133" y="214" on="1"/>
        <pt x="133" y="146" on="0"/>
        <pt x="206" y="59" on="0"/>
        <pt x="277" y="59" on="1"/>
        <pt x="374" y="59" on="0"/>
        <pt x="417" y="149" on="1"/>
        <pt x="475" y="110" on="1"/>
        <pt x="452" y="59" on="0"/>
        <pt x="364" y="-6" on="0"/>
        <pt x="299" y="-11" on="1"/>
        <pt x="289" y="-61" on="1"/>
        <pt x="292" y="-64" on="1"/>
        <pt x="311" y="-58" on="0"/>
        <pt x="331" y="-58" on="1"/>
        <pt x="360" y="-58" on="0"/>
        <pt x="399" y="-92" on="0"/>
        <pt x="399" y="-124" on="1"/>
        <pt x="399" y="-145" on="0"/>
        <pt x="381" y="-177" on="0"/>
        <pt x="350" y="-197" on="0"/>
        <pt x="310" y="-207" on="0"/>
        <pt x="288" y="-207" on="1"/>
        <pt x="247" y="-207" on="0"/>
        <pt x="200" y="-180" on="0"/>
        <pt x="189" y="-166" on="1"/>
        <pt x="227" y="-125" on="1"/>
        <pt x="236" y="-136" on="0"/>
        <pt x="266" y="-153" on="0"/>
        <pt x="288" y="-153" on="1"/>
        <pt x="307" y="-153" on="0"/>
        <pt x="332" y="-138" on="0"/>
        <pt x="332" y="-122" on="1"/>
        <pt x="332" y="-108" on="0"/>
        <pt x="306" y="-87" on="0"/>
        <pt x="264" y="-81" on="1"/>
        <pt x="236" y="-77" on="1"/>
        <pt x="249" y="-11" on="1"/>
        <pt x="152" y="-1" on="0"/>
        <pt x="47" y="143" on="0"/>
        <pt x="47" y="258" on="1"/>
        <pt x="47" y="320" on="0"/>
        <pt x="78" y="420" on="0"/>
        <pt x="137" y="490" on="0"/>
        <pt x="223" y="528" on="0"/>
      </contour>
    </TTGlyph>
    <TTGlyph name="ccircumflex" xMin="47" yMin="-12" xMax="475" yMax="765">
      <component glyphName="c" x="0" y="0" flags="0x204"/>
      <component glyphName="circumflex" x="-23" y="0" flags="0x4"/>
    </TTGlyph>
    <TTGlyph name="cdotaccent" xMin="47" yMin="-12" xMax="475" yMax="719">
      <component glyphName="c" x="0" y="0" flags="0x204"/>
      <component glyphName="dotaccent" x="-23" y="0" flags="0x4"/>
    </TTGlyph>
    <TTGlyph name="cedilla" xMin="213" yMin="-207" xMax="423" yMax="20">
      <contour>
        <pt x="312" y="-207" on="1"/>
        <pt x="271" y="-207" on="0"/>
        <pt x="224" y="-180" on="0"/>
        <pt x="213" y="-166" on="1"/>
        <pt x="251" y="-125" on="1"/>
        <pt x="260" y="-136" on="0"/>
        <pt x="290" y="-153" on="0"/>
        <pt x="312" y="-153" on="1"/>
        <pt x="331" y="-153" on="0"/>
        <pt x="356" y="-138" on="0"/>
        <pt x="356" y="-122" on="1"/>
        <pt x="356" y="-108" on="0"/>
        <pt x="330" y="-87" on="0"/>
        <pt x="288" y="-81" on="1"/>
        <pt x="260" y="-77" on="1"/>
        <pt x="279" y="20" on="1"/>
        <pt x="329" y="20" on="1"/>
        <pt x="313" y="-61" on="1"/>
        <pt x="316" y="-64" on="1"/>
        <pt x="335" y="-58" on="0"/>
        <pt x="355" y="-58" on="1"/>
        <pt x="384" y="-58" on="0"/>
        <pt x="423" y="-92" on="0"/>
        <pt x="423" y="-124" on="1"/>
        <pt x="423" y="-145" on="0"/>
        <pt x="405" y="-177" on="0"/>
        <pt x="374" y="-197" on="0"/>
        <pt x="334" y="-207" on="0"/>
      </contour>
    </TTGlyph>
    <TTGlyph name="cent" xMin="47" yMin="-114" xMax="476" yMax="630">
      <contour>
        <pt x="235" y="-114" on="1"/>
        <pt x="235" y="-9" on="1"/>
        <pt x="144" y="4" on="0"/>
        <pt x="47" y="146" on="0"/>
        <pt x="47" y="258" on="1"/>
        <pt x="47" y="371" on="0"/>
        <pt x="145" y="512" on="0"/>
        <pt x="235" y="525" on="1"/>
        <pt x="235" y="630" on="1"/>
        <pt x="305" y="630" on="1"/>
        <pt x="305" y="527" on="1"/>
        <pt x="368" y="522" on="0"/>
        <pt x="448" y="457" on="0"/>
        <pt x="469" y="409" on="1"/>
        <pt x="405" y="374" on="1"/>
        <pt x="378" y="445" on="0"/>
        <pt x="304" y="456" on="1"/>
        <pt x="304" y="60" on="1"/>
        <pt x="382" y="69" on="0"/>
        <pt x="418" y="148" on="1"/>
        <pt x="476" y="109" on="1"/>
        <pt x="454" y="58" on="0"/>
        <pt x="368" y="-6" on="0"/>
        <pt x="305" y="-11" on="1"/>
        <pt x="305" y="-114" on="1"/>
      </contour>
      <contour>
        <pt x="133" y="214" on="1"/>
        <pt x="133" y="157" on="0"/>
        <pt x="185" y="74" on="0"/>
        <pt x="236" y="63" on="1"/>
        <pt x="236" y="453" on="1"/>
        <pt x="185" y="442" on="0"/>
        <pt x="133" y="360" on="0"/>
        <pt x="133" y="302" on="1"/>
      </contour>
    </TTGlyph>
    <TTGlyph name="chi" xMin="12" yMin="-200" xMax="494" yMax="516">
      <contour>
        <pt x="72" y="516" on="1"/>
        <pt x="108" y="516" on="0"/>
        <pt x="144" y="491" on="0"/>
        <pt x="158" y="459" on="1"/>
        <pt x="251" y="240" on="1"/>
        <pt x="254" y="240" on="1"/>
        <pt x="388" y="516" on="1"/>
        <pt x="476" y="516" on="1"/>
        <pt x="297" y="172" on="1"/>
        <pt x="425" y="-130" on="1"/>
        <pt x="494" y="-130" on="1"/>
        <pt x="494" y="-200" on="1"/>
        <pt x="434" y="-200" on="1"/>
        <pt x="398" y="-200" on="0"/>
        <pt x="361" y="-175" on="0"/>
        <pt x="348" y="-143" on="1"/>
        <pt x="248" y="99" on="1"/>
        <pt x="245" y="99" on="1"/>
        <pt x="105" y="-200" on="1"/>
        <pt x="17" y="-200" on="1"/>
        <pt x="202" y="167" on="1"/>
        <pt x="81" y="446" on="1"/>
        <pt x="12" y="446" on="1"/>
        <pt x="12" y="516" on="1"/>
      </contour>
    </TTGlyph>
    <TTGlyph name="circumflex" xMin="139" yMin="591" xMax="461" yMax="765">
      <contour>
        <pt x="350" y="765" on="1"/>
        <pt x="461" y="622" on="1"/>
        <pt x="417" y="591" on="1"/>
        <pt x="300" y="708" on="1"/>
        <pt x="183" y="591" on="1"/>
        <pt x="139" y="622" on="1"/>
        <pt x="250" y="765" on="1"/>
      </contour>
    </TTGlyph>
    <TTGlyph name="circumflex.case" xMin="139" yMin="761" xMax="461" yMax="935">
      <contour>
        <pt x="350" y="935" on="1"/>
        <pt x="461" y="792" on="1"/>
        <pt x="417" y="761" on="1"/>
        <pt x="300" y="878" on="1"/>
        <pt x="183" y="761" on="1"/>
        <pt x="139" y="792" on="1"/>
        <pt x="250" y="935" on="1"/>
      </contour>
    </TTGlyph>
    <TTGlyph name="circumflexacute" xMin="-160" yMin="581" xMax="260" yMax="891">
      <contour>
        <pt x="154" y="698" on="1"/>
        <pt x="105" y="721" on="1"/>
        <pt x="190" y="891" on="1"/>
        <pt x="260" y="857" on="1"/>
      </contour>
      <contour>
        <pt x="50" y="745" on="1"/>
        <pt x="160" y="611" on="1"/>
        <pt x="119" y="581" on="1"/>
        <pt x="0" y="693" on="1"/>
        <pt x="-119" y="581" on="1"/>
        <pt x="-160" y="611" on="1"/>
        <pt x="-50" y="745" on="1"/>
      </contour>
    </TTGlyph>
    <TTGlyph name="circumflexacute.case" xMin="-160" yMin="751" xMax="260" yMax="1061">
      <contour>
        <pt x="154" y="868" on="1"/>
        <pt x="105" y="891" on="1"/>
        <pt x="190" y="1061" on="1"/>
        <pt x="260" y="1027" on="1"/>
      </contour>
      <contour>
        <pt x="50" y="915" on="1"/>
        <pt x="160" y="781" on="1"/>
        <pt x="119" y="751" on="1"/>
        <pt x="0" y="863" on="1"/>
        <pt x="-119" y="751" on="1"/>
        <pt x="-160" y="781" on="1"/>
        <pt x="-50" y="915" on="1"/>
      </contour>
    </TTGlyph>
    <TTGlyph name="circumflexbreve" xMin="-158" yMin="584" xMax="158" yMax="896">
      <contour>
        <pt x="46" y="721" on="1"/>
        <pt x="158" y="618" on="1"/>
        <pt x="125" y="584" on="1"/>
        <pt x="0" y="671" on="1"/>
        <pt x="-125" y="584" on="1"/>
        <pt x="-158" y="618" on="1"/>
        <pt x="-46" y="721" on="1"/>
      </contour>
      <contour>
        <pt x="0" y="748" on="1"/>
        <pt x="-40" y="748" on="0"/>
        <pt x="-93" y="772" on="0"/>
        <pt x="-128" y="809" on="0"/>
        <pt x="-147" y="853" on="0"/>
        <pt x="-154" y="874" on="1"/>
        <pt x="-109" y="896" on="1"/>
        <pt x="-88" y="863" on="1"/>
        <pt x="-75" y="841" on="0"/>
        <pt x="-38" y="807" on="0"/>
        <pt x="0" y="807" on="1"/>
        <pt x="19" y="807" on="0"/>
        <pt x="46" y="816" on="0"/>
        <pt x="66" y="832" on="0"/>
        <pt x="81" y="852" on="0"/>
        <pt x="88" y="863" on="1"/>
        <pt x="109" y="896" on="1"/>
        <pt x="154" y="874" on="1"/>
        <pt x="147" y="853" on="0"/>
        <pt x="128" y="809" on="0"/>
        <pt x="93" y="772" on="0"/>
        <pt x="40" y="748" on="0"/>
      </contour>
    </TTGlyph>
    <TTGlyph name="circumflexbreve.case" xMin="-158" yMin="754" xMax="158" yMax="1065">
      <contour>
        <pt x="46" y="891" on="1"/>
        <pt x="158" y="788" on="1"/>
        <pt x="125" y="754" on="1"/>
        <pt x="0" y="841" on="1"/>
        <pt x="-125" y="754" on="1"/>
        <pt x="-158" y="788" on="1"/>
        <pt x="-46" y="891" on="1"/>
      </contour>
      <contour>
        <pt x="0" y="918" on="1"/>
        <pt x="-40" y="918" on="0"/>
        <pt x="-93" y="942" on="0"/>
        <pt x="-126" y="978" on="0"/>
        <pt x="-145" y="1022" on="0"/>
        <pt x="-152" y="1043" on="1"/>
        <pt x="-107" y="1065" on="1"/>
        <pt x="-86" y="1027" on="1"/>
        <pt x="-74" y="1005" on="0"/>
        <pt x="-38" y="976" on="0"/>
        <pt x="0" y="976" on="1"/>
        <pt x="38" y="976" on="0"/>
        <pt x="74" y="1005" on="0"/>
        <pt x="86" y="1027" on="1"/>
        <pt x="107" y="1065" on="1"/>
        <pt x="152" y="1043" on="1"/>
        <pt x="145" y="1022" on="0"/>
        <pt x="126" y="978" on="0"/>
        <pt x="93" y="942" on="0"/>
        <pt x="40" y="918" on="0"/>
      </contour>
    </TTGlyph>
    <TTGlyph name="circumflexgrave" xMin="-260" yMin="581" xMax="160" yMax="891">
      <contour>
        <pt x="-260" y="857" on="1"/>
        <pt x="-190" y="891" on="1"/>
        <pt x="-105" y="721" on="1"/>
        <pt x="-154" y="698" on="1"/>
      </contour>
      <contour>
        <pt x="50" y="745" on="1"/>
        <pt x="160" y="611" on="1"/>
        <pt x="119" y="581" on="1"/>
        <pt x="0" y="693" on="1"/>
        <pt x="-119" y="581" on="1"/>
        <pt x="-160" y="611" on="1"/>
        <pt x="-50" y="745" on="1"/>
      </contour>
    </TTGlyph>
    <TTGlyph name="circumflexgrave.case" xMin="-260" yMin="751" xMax="160" yMax="1061">
      <contour>
        <pt x="-260" y="1027" on="1"/>
        <pt x="-190" y="1061" on="1"/>
        <pt x="-105" y="891" on="1"/>
        <pt x="-154" y="868" on="1"/>
      </contour>
      <contour>
        <pt x="50" y="915" on="1"/>
        <pt x="160" y="781" on="1"/>
        <pt x="119" y="751" on="1"/>
        <pt x="0" y="863" on="1"/>
        <pt x="-119" y="751" on="1"/>
        <pt x="-160" y="781" on="1"/>
        <pt x="-50" y="915" on="1"/>
      </contour>
    </TTGlyph>
    <TTGlyph name="circumflexhook" xMin="-160" yMin="581" xMax="229" yMax="880">
      <contour>
        <pt x="50" y="880" on="1"/>
        <pt x="159" y="880" on="1"/>
        <pt x="197" y="880" on="0"/>
        <pt x="229" y="848" on="0"/>
        <pt x="229" y="825" on="1"/>
        <pt x="229" y="803" on="0"/>
        <pt x="203" y="751" on="0"/>
        <pt x="180" y="722" on="1"/>
        <pt x="156" y="692" on="1"/>
        <pt x="112" y="715" on="1"/>
        <pt x="172" y="822" on="1"/>
        <pt x="50" y="822" on="1"/>
      </contour>
      <contour>
        <pt x="50" y="745" on="1"/>
        <pt x="160" y="611" on="1"/>
        <pt x="119" y="581" on="1"/>
        <pt x="0" y="693" on="1"/>
        <pt x="-119" y="581" on="1"/>
        <pt x="-160" y="611" on="1"/>
        <pt x="-50" y="745" on="1"/>
      </contour>
    </TTGlyph>
    <TTGlyph name="circumflexhook.case" xMin="-160" yMin="751" xMax="229" yMax="1050">
      <contour>
        <pt x="50" y="1050" on="1"/>
        <pt x="159" y="1050" on="1"/>
        <pt x="197" y="1050" on="0"/>
        <pt x="229" y="1018" on="0"/>
        <pt x="229" y="995" on="1"/>
        <pt x="229" y="973" on="0"/>
        <pt x="203" y="921" on="0"/>
        <pt x="180" y="892" on="1"/>
        <pt x="156" y="862" on="1"/>
        <pt x="112" y="885" on="1"/>
        <pt x="172" y="992" on="1"/>
        <pt x="50" y="992" on="1"/>
      </contour>
      <contour>
        <pt x="50" y="915" on="1"/>
        <pt x="160" y="781" on="1"/>
        <pt x="119" y="751" on="1"/>
        <pt x="0" y="863" on="1"/>
        <pt x="-119" y="751" on="1"/>
        <pt x="-160" y="781" on="1"/>
        <pt x="-50" y="915" on="1"/>
      </contour>
    </TTGlyph>
    <TTGlyph name="circumflextilde" xMin="-167" yMin="581" xMax="167" yMax="884">
      <contour>
        <pt x="-72" y="884" on="1"/>
        <pt x="-46" y="884" on="0"/>
        <pt x="-8" y="866" on="0"/>
        <pt x="8" y="858" on="1"/>
        <pt x="32" y="845" on="0"/>
        <pt x="65" y="834" on="0"/>
        <pt x="78" y="834" on="1"/>
        <pt x="95" y="834" on="0"/>
        <pt x="121" y="848" on="0"/>
        <pt x="136" y="861" on="1"/>
        <pt x="167" y="825" on="1"/>
        <pt x="153" y="805" on="0"/>
        <pt x="107" y="772" on="0"/>
        <pt x="72" y="772" on="1"/>
        <pt x="46" y="772" on="0"/>
        <pt x="8" y="790" on="0"/>
        <pt x="-8" y="798" on="1"/>
        <pt x="-32" y="811" on="0"/>
        <pt x="-65" y="822" on="0"/>
        <pt x="-78" y="822" on="1"/>
        <pt x="-95" y="822" on="0"/>
        <pt x="-121" y="808" on="0"/>
        <pt x="-136" y="795" on="1"/>
        <pt x="-167" y="831" on="1"/>
        <pt x="-153" y="851" on="0"/>
        <pt x="-107" y="884" on="0"/>
      </contour>
      <contour>
        <pt x="50" y="745" on="1"/>
        <pt x="160" y="611" on="1"/>
        <pt x="119" y="581" on="1"/>
        <pt x="0" y="693" on="1"/>
        <pt x="-119" y="581" on="1"/>
        <pt x="-160" y="611" on="1"/>
        <pt x="-50" y="745" on="1"/>
      </contour>
    </TTGlyph>
    <TTGlyph name="circumflextilde.case" xMin="-167" yMin="751" xMax="167" yMax="1054">
      <contour>
        <pt x="-72" y="1054" on="1"/>
        <pt x="-46" y="1054" on="0"/>
        <pt x="-8" y="1036" on="0"/>
        <pt x="8" y="1028" on="1"/>
        <pt x="32" y="1015" on="0"/>
        <pt x="65" y="1004" on="0"/>
        <pt x="78" y="1004" on="1"/>
        <pt x="95" y="1004" on="0"/>
        <pt x="121" y="1018" on="0"/>
        <pt x="136" y="1031" on="1"/>
        <pt x="167" y="995" on="1"/>
        <pt x="153" y="975" on="0"/>
        <pt x="107" y="942" on="0"/>
        <pt x="72" y="942" on="1"/>
        <pt x="46" y="942" on="0"/>
        <pt x="8" y="960" on="0"/>
        <pt x="-8" y="968" on="1"/>
        <pt x="-32" y="981" on="0"/>
        <pt x="-65" y="992" on="0"/>
        <pt x="-78" y="992" on="1"/>
        <pt x="-95" y="992" on="0"/>
        <pt x="-121" y="978" on="0"/>
        <pt x="-136" y="965" on="1"/>
        <pt x="-167" y="1001" on="1"/>
        <pt x="-153" y="1021" on="0"/>
        <pt x="-107" y="1054" on="0"/>
      </contour>
      <contour>
        <pt x="50" y="915" on="1"/>
        <pt x="160" y="781" on="1"/>
        <pt x="119" y="751" on="1"/>
        <pt x="0" y="863" on="1"/>
        <pt x="-119" y="751" on="1"/>
        <pt x="-160" y="781" on="1"/>
        <pt x="-50" y="915" on="1"/>
      </contour>
    </TTGlyph>
    <TTGlyph name="colon" xMin="85" yMin="-12" xMax="207" yMax="528">
      <component glyphName="period" x="10" y="0" flags="0x4"/>
      <component glyphName="period" x="10" y="411" flags="0x4"/>
    </TTGlyph>
    <TTGlyph name="comma" xMin="39" yMin="-133" xMax="197" yMax="117">
      <contour>
        <pt x="136" y="117" on="1"/>
        <pt x="168" y="117" on="0"/>
        <pt x="197" y="84" on="0"/>
        <pt x="197" y="58" on="1"/>
        <pt x="197" y="44" on="1"/>
        <pt x="197" y="3" on="0"/>
        <pt x="149" y="-96" on="0"/>
        <pt x="106" y="-133" on="1"/>
        <pt x="39" y="-133" on="1"/>
        <pt x="69" y="-101" on="0"/>
        <pt x="106" y="-44" on="0"/>
        <pt x="114" y="-9" on="1"/>
        <pt x="94" y="-4" on="0"/>
        <pt x="75" y="24" on="0"/>
        <pt x="75" y="44" on="1"/>
        <pt x="75" y="58" on="1"/>
        <pt x="75" y="84" on="0"/>
        <pt x="104" y="117" on="0"/>
      </contour>
    </TTGlyph>
    <TTGlyph name="copyright" xMin="54" yMin="-11" xMax="722" yMax="709">
      <contour>
        <pt x="388" y="-11" on="1"/>
        <pt x="318" y="-11" on="0"/>
        <pt x="196" y="39" on="0"/>
        <pt x="106" y="132" on="0"/>
        <pt x="54" y="266" on="0"/>
        <pt x="54" y="349" on="1"/>
        <pt x="54" y="432" on="0"/>
        <pt x="106" y="566" on="0"/>
        <pt x="196" y="659" on="0"/>
        <pt x="318" y="709" on="0"/>
        <pt x="388" y="709" on="1"/>
        <pt x="458" y="709" on="0"/>
        <pt x="580" y="659" on="0"/>
        <pt x="670" y="566" on="0"/>
        <pt x="722" y="432" on="0"/>
        <pt x="722" y="349" on="1"/>
        <pt x="722" y="266" on="0"/>
        <pt x="670" y="132" on="0"/>
        <pt x="580" y="39" on="0"/>
        <pt x="458" y="-11" on="0"/>
      </contour>
      <contour>
        <pt x="388" y="49" on="1"/>
        <pt x="446" y="49" on="0"/>
        <pt x="544" y="90" on="0"/>
        <pt x="615" y="162" on="0"/>
        <pt x="654" y="261" on="0"/>
        <pt x="654" y="319" on="1"/>
        <pt x="654" y="379" on="1"/>
        <pt x="654" y="437" on="0"/>
        <pt x="615" y="536" on="0"/>
        <pt x="544" y="608" on="0"/>
        <pt x="446" y="649" on="0"/>
        <pt x="388" y="649" on="1"/>
        <pt x="329" y="649" on="0"/>
        <pt x="232" y="608" on="0"/>
        <pt x="161" y="536" on="0"/>
        <pt x="122" y="437" on="0"/>
        <pt x="122" y="379" on="1"/>
        <pt x="122" y="319" on="1"/>
        <pt x="122" y="261" on="0"/>
        <pt x="161" y="162" on="0"/>
        <pt x="232" y="90" on="0"/>
        <pt x="329" y="49" on="0"/>
      </contour>
      <contour>
        <pt x="396" y="155" on="1"/>
        <pt x="318" y="155" on="0"/>
        <pt x="231" y="260" on="0"/>
        <pt x="231" y="349" on="1"/>
        <pt x="231" y="438" on="0"/>
        <pt x="318" y="543" on="0"/>
        <pt x="396" y="543" on="1"/>
        <pt x="447" y="543" on="0"/>
        <pt x="512" y="495" on="0"/>
        <pt x="529" y="456" on="1"/>
        <pt x="472" y="424" on="1"/>
        <pt x="461" y="450" on="0"/>
        <pt x="425" y="480" on="0"/>
        <pt x="396" y="480" on="1"/>
        <pt x="352" y="480" on="0"/>
        <pt x="307" y="425" on="0"/>
        <pt x="307" y="381" on="1"/>
        <pt x="307" y="316" on="1"/>
        <pt x="307" y="272" on="0"/>
        <pt x="352" y="217" on="0"/>
        <pt x="396" y="217" on="1"/>
        <pt x="428" y="217" on="0"/>
        <pt x="466" y="250" on="0"/>
        <pt x="481" y="277" on="1"/>
        <pt x="535" y="243" on="1"/>
        <pt x="518" y="205" on="0"/>
        <pt x="449" y="155" on="0"/>
      </contour>
    </TTGlyph>
    <TTGlyph name="currency" xMin="18" yMin="62" xMax="594" yMax="636">
      <contour>
        <pt x="306" y="119" on="1"/>
        <pt x="222" y="119" on="0"/>
        <pt x="168" y="164" on="1"/>
        <pt x="66" y="62" on="1"/>
        <pt x="18" y="109" on="1"/>
        <pt x="124" y="215" on="1"/>
        <pt x="92" y="271" on="0"/>
        <pt x="92" y="349" on="1"/>
        <pt x="92" y="427" on="0"/>
        <pt x="124" y="483" on="1"/>
        <pt x="18" y="589" on="1"/>
        <pt x="66" y="636" on="1"/>
        <pt x="168" y="534" on="1"/>
        <pt x="222" y="579" on="0"/>
        <pt x="306" y="579" on="1"/>
        <pt x="390" y="579" on="0"/>
        <pt x="444" y="534" on="1"/>
        <pt x="546" y="636" on="1"/>
        <pt x="594" y="589" on="1"/>
        <pt x="488" y="483" on="1"/>
        <pt x="520" y="427" on="0"/>
        <pt x="520" y="349" on="1"/>
        <pt x="520" y="271" on="0"/>
        <pt x="488" y="215" on="1"/>
        <pt x="594" y="109" on="1"/>
        <pt x="546" y="62" on="1"/>
        <pt x="444" y="164" on="1"/>
        <pt x="390" y="119" on="0"/>
      </contour>
      <contour>
        <pt x="306" y="186" on="1"/>
        <pt x="364" y="186" on="0"/>
        <pt x="435" y="251" on="0"/>
        <pt x="435" y="317" on="1"/>
        <pt x="435" y="381" on="1"/>
        <pt x="435" y="447" on="0"/>
        <pt x="364" y="512" on="0"/>
        <pt x="306" y="512" on="1"/>
        <pt x="248" y="512" on="0"/>
        <pt x="177" y="447" on="0"/>
        <pt x="177" y="381" on="1"/>
        <pt x="177" y="317" on="1"/>
        <pt x="177" y="251" on="0"/>
        <pt x="248" y="186" on="0"/>
      </contour>
    </TTGlyph>
    <TTGlyph name="d" xMin="50" yMin="-12" xMax="495" yMax="740">
      <contour>
        <pt x="415" y="84" on="1"/>
        <pt x="411" y="84" on="1"/>
        <pt x="364" y="-12" on="0"/>
        <pt x="260" y="-12" on="1"/>
        <pt x="212" y="-12" on="0"/>
        <pt x="134" y="26" on="0"/>
        <pt x="79" y="96" on="0"/>
        <pt x="50" y="196" on="0"/>
        <pt x="50" y="258" on="1"/>
        <pt x="50" y="320" on="0"/>
        <pt x="79" y="420" on="0"/>
        <pt x="134" y="490" on="0"/>
        <pt x="212" y="528" on="0"/>
        <pt x="260" y="528" on="1"/>
        <pt x="314" y="528" on="0"/>
        <pt x="391" y="481" on="0"/>
        <pt x="411" y="432" on="1"/>
        <pt x="415" y="432" on="1"/>
        <pt x="415" y="740" on="1"/>
        <pt x="495" y="740" on="1"/>
        <pt x="495" y="0" on="1"/>
        <pt x="415" y="0" on="1"/>
      </contour>
      <contour>
        <pt x="282" y="60" on="1"/>
        <pt x="309" y="60" on="0"/>
        <pt x="358" y="74" on="0"/>
        <pt x="394" y="101" on="0"/>
        <pt x="415" y="140" on="0"/>
        <pt x="415" y="165" on="1"/>
        <pt x="415" y="357" on="1"/>
        <pt x="415" y="378" on="0"/>
        <pt x="394" y="415" on="0"/>
        <pt x="358" y="441" on="0"/>
        <pt x="309" y="456" on="0"/>
        <pt x="282" y="456" on="1"/>
        <pt x="214" y="456" on="0"/>
        <pt x="136" y="371" on="0"/>
        <pt x="136" y="302" on="1"/>
        <pt x="136" y="214" on="1"/>
        <pt x="136" y="145" on="0"/>
        <pt x="214" y="60" on="0"/>
      </contour>
    </TTGlyph>
    <TTGlyph name="dagger" xMin="50" yMin="-200" xMax="502" yMax="740">
      <contour>
        <pt x="241" y="-200" on="1"/>
        <pt x="241" y="452" on="1"/>
        <pt x="50" y="452" on="1"/>
        <pt x="50" y="516" on="1"/>
        <pt x="241" y="516" on="1"/>
        <pt x="241" y="740" on="1"/>
        <pt x="311" y="740" on="1"/>
        <pt x="311" y="516" on="1"/>
        <pt x="502" y="516" on="1"/>
        <pt x="502" y="452" on="1"/>
        <pt x="311" y="452" on="1"/>
        <pt x="311" y="-200" on="1"/>
      </contour>
    </TTGlyph>
    <TTGlyph name="daggerdbl" xMin="50" yMin="-200" xMax="502" yMax="740">
      <contour>
        <pt x="241" y="-200" on="1"/>
        <pt x="241" y="24" on="1"/>
        <pt x="50" y="24" on="1"/>
        <pt x="50" y="88" on="1"/>
        <pt x="241" y="88" on="1"/>
        <pt x="241" y="452" on="1"/>
        <pt x="50" y="452" on="1"/>
        <pt x="50" y="516" on="1"/>
        <pt x="241" y="516" on="1"/>
        <pt x="241" y="740" on="1"/>
        <pt x="311" y="740" on="1"/>
        <pt x="311" y="516" on="1"/>
        <pt x="502" y="516" on="1"/>
        <pt x="502" y="452" on="1"/>
        <pt x="311" y="452" on="1"/>
        <pt x="311" y="88" on="1"/>
        <pt x="502" y="88" on="1"/>
        <pt x="502" y="24" on="1"/>
        <pt x="311" y="24" on="1"/>
        <pt x="311" y="-200" on="1"/>
      </contour>
    </TTGlyph>
    <TTGlyph name="dcaron" xMin="50" yMin="-12" xMax="656" yMax="740">
      <component glyphName="uni02BC" x="251" y="0" flags="0x4"/>
      <component glyphName="d" x="0" y="0" flags="0x4"/>
    </TTGlyph>
    <TTGlyph name="dcroat" xMin="50" yMin="-12" xMax="559" yMax="740">
      <contour>
        <pt x="415" y="84" on="1"/>
        <pt x="411" y="84" on="1"/>
        <pt x="364" y="-12" on="0"/>
        <pt x="260" y="-12" on="1"/>
        <pt x="212" y="-12" on="0"/>
        <pt x="134" y="26" on="0"/>
        <pt x="79" y="96" on="0"/>
        <pt x="50" y="196" on="0"/>
        <pt x="50" y="258" on="1"/>
        <pt x="50" y="320" on="0"/>
        <pt x="79" y="420" on="0"/>
        <pt x="134" y="490" on="0"/>
        <pt x="212" y="528" on="0"/>
        <pt x="260" y="528" on="1"/>
        <pt x="314" y="528" on="0"/>
        <pt x="391" y="481" on="0"/>
        <pt x="411" y="432" on="1"/>
        <pt x="415" y="432" on="1"/>
        <pt x="415" y="608" on="1"/>
        <pt x="265" y="608" on="1"/>
        <pt x="265" y="670" on="1"/>
        <pt x="415" y="670" on="1"/>
        <pt x="415" y="740" on="1"/>
        <pt x="495" y="740" on="1"/>
        <pt x="495" y="670" on="1"/>
        <pt x="559" y="670" on="1"/>
        <pt x="559" y="608" on="1"/>
        <pt x="495" y="608" on="1"/>
        <pt x="495" y="0" on="1"/>
        <pt x="415" y="0" on="1"/>
      </contour>
      <contour>
        <pt x="282" y="60" on="1"/>
        <pt x="309" y="60" on="0"/>
        <pt x="358" y="74" on="0"/>
        <pt x="394" y="101" on="0"/>
        <pt x="415" y="140" on="0"/>
        <pt x="415" y="165" on="1"/>
        <pt x="415" y="357" on="1"/>
        <pt x="415" y="378" on="0"/>
        <pt x="394" y="415" on="0"/>
        <pt x="358" y="441" on="0"/>
        <pt x="309" y="456" on="0"/>
        <pt x="282" y="456" on="1"/>
        <pt x="214" y="456" on="0"/>
        <pt x="136" y="371" on="0"/>
        <pt x="136" y="302" on="1"/>
        <pt x="136" y="214" on="1"/>
        <pt x="136" y="145" on="0"/>
        <pt x="214" y="60" on="0"/>
      </contour>
    </TTGlyph>
    <TTGlyph name="degree" xMin="66" yMin="366" xMax="402" yMax="710">
      <contour>
        <pt x="234" y="366" on="1"/>
        <pt x="198" y="366" on="0"/>
        <pt x="137" y="392" on="0"/>
        <pt x="92" y="438" on="0"/>
        <pt x="66" y="501" on="0"/>
        <pt x="66" y="538" on="1"/>
        <pt x="66" y="575" on="0"/>
        <pt x="92" y="638" on="0"/>
        <pt x="137" y="684" on="0"/>
        <pt x="198" y="710" on="0"/>
        <pt x="234" y="710" on="1"/>
        <pt x="270" y="710" on="0"/>
        <pt x="331" y="684" on="0"/>
        <pt x="376" y="638" on="0"/>
        <pt x="402" y="575" on="0"/>
        <pt x="402" y="538" on="1"/>
        <pt x="402" y="501" on="0"/>
        <pt x="376" y="438" on="0"/>
        <pt x="331" y="392" on="0"/>
        <pt x="270" y="366" on="0"/>
      </contour>
      <contour>
        <pt x="234" y="430" on="1"/>
        <pt x="279" y="430" on="0"/>
        <pt x="332" y="493" on="0"/>
        <pt x="332" y="538" on="1"/>
        <pt x="332" y="583" on="0"/>
        <pt x="279" y="646" on="0"/>
        <pt x="234" y="646" on="1"/>
        <pt x="189" y="646" on="0"/>
        <pt x="136" y="583" on="0"/>
        <pt x="136" y="538" on="1"/>
        <pt x="136" y="493" on="0"/>
        <pt x="189" y="430" on="0"/>
      </contour>
    </TTGlyph>
    <TTGlyph name="delta" xMin="47" yMin="-12" xMax="513" yMax="740">
      <contour>
        <pt x="259" y="670" on="1"/>
        <pt x="189" y="675" on="1"/>
        <pt x="189" y="671" on="1"/>
        <pt x="332" y="557" on="1"/>
        <pt x="383" y="516" on="0"/>
        <pt x="452" y="444" on="0"/>
        <pt x="495" y="372" on="0"/>
        <pt x="513" y="299" on="0"/>
        <pt x="513" y="259" on="1"/>
        <pt x="513" y="196" on="0"/>
        <pt x="479" y="96" on="0"/>
        <pt x="417" y="25" on="0"/>
        <pt x="332" y="-12" on="0"/>
        <pt x="280" y="-12" on="1"/>
        <pt x="228" y="-12" on="0"/>
        <pt x="142" y="26" on="0"/>
        <pt x="81" y="95" on="0"/>
        <pt x="47" y="191" on="0"/>
        <pt x="47" y="250" on="1"/>
        <pt x="47" y="315" on="0"/>
        <pt x="82" y="415" on="0"/>
        <pt x="141" y="482" on="0"/>
        <pt x="219" y="516" on="0"/>
        <pt x="262" y="516" on="1"/>
        <pt x="262" y="521" on="1"/>
        <pt x="117" y="647" on="1"/>
        <pt x="117" y="740" on="1"/>
        <pt x="459" y="740" on="1"/>
        <pt x="459" y="670" on="1"/>
      </contour>
      <contour>
        <pt x="427" y="241" on="1"/>
        <pt x="427" y="278" on="0"/>
        <pt x="417" y="338" on="0"/>
        <pt x="390" y="394" on="0"/>
        <pt x="340" y="451" on="0"/>
        <pt x="301" y="487" on="1"/>
        <pt x="265" y="482" on="0"/>
        <pt x="204" y="451" on="0"/>
        <pt x="159" y="399" on="0"/>
        <pt x="133" y="325" on="0"/>
        <pt x="133" y="277" on="1"/>
        <pt x="133" y="223" on="1"/>
        <pt x="133" y="140" on="0"/>
        <pt x="215" y="59" on="0"/>
        <pt x="280" y="59" on="1"/>
        <pt x="312" y="59" on="0"/>
        <pt x="366" y="79" on="0"/>
        <pt x="405" y="120" on="0"/>
        <pt x="427" y="181" on="0"/>
        <pt x="427" y="223" on="1"/>
      </contour>
    </TTGlyph>
    <TTGlyph name="dieresis" xMin="158" yMin="618" xMax="442" yMax="721">
      <contour>
        <pt x="207" y="618" on="1"/>
        <pt x="181" y="618" on="0"/>
        <pt x="158" y="643" on="0"/>
        <pt x="158" y="664" on="1"/>
        <pt x="158" y="675" on="1"/>
        <pt x="158" y="696" on="0"/>
        <pt x="181" y="721" on="0"/>
        <pt x="207" y="721" on="1"/>
        <pt x="233" y="721" on="0"/>
        <pt x="256" y="696" on="0"/>
        <pt x="256" y="675" on="1"/>
        <pt x="256" y="664" on="1"/>
        <pt x="256" y="643" on="0"/>
        <pt x="233" y="618" on="0"/>
      </contour>
      <contour>
        <pt x="393" y="618" on="1"/>
        <pt x="367" y="618" on="0"/>
        <pt x="344" y="643" on="0"/>
        <pt x="344" y="664" on="1"/>
        <pt x="344" y="675" on="1"/>
        <pt x="344" y="696" on="0"/>
        <pt x="367" y="721" on="0"/>
        <pt x="393" y="721" on="1"/>
        <pt x="419" y="721" on="0"/>
        <pt x="442" y="696" on="0"/>
        <pt x="442" y="675" on="1"/>
        <pt x="442" y="664" on="1"/>
        <pt x="442" y="643" on="0"/>
        <pt x="419" y="618" on="0"/>
      </contour>
    </TTGlyph>
    <TTGlyph name="dieresis.case" xMin="157" yMin="788" xMax="443" yMax="894">
      <contour>
        <pt x="207" y="788" on="1"/>
        <pt x="181" y="788" on="0"/>
        <pt x="157" y="814" on="0"/>
        <pt x="157" y="835" on="1"/>
        <pt x="157" y="847" on="1"/>
        <pt x="157" y="868" on="0"/>
        <pt x="181" y="894" on="0"/>
        <pt x="207" y="894" on="1"/>
        <pt x="233" y="894" on="0"/>
        <pt x="257" y="868" on="0"/>
        <pt x="257" y="847" on="1"/>
        <pt x="257" y="835" on="1"/>
        <pt x="257" y="814" on="0"/>
        <pt x="233" y="788" on="0"/>
      </contour>
      <contour>
        <pt x="393" y="788" on="1"/>
        <pt x="367" y="788" on="0"/>
        <pt x="343" y="814" on="0"/>
        <pt x="343" y="835" on="1"/>
        <pt x="343" y="847" on="1"/>
        <pt x="343" y="868" on="0"/>
        <pt x="367" y="894" on="0"/>
        <pt x="393" y="894" on="1"/>
        <pt x="419" y="894" on="0"/>
        <pt x="443" y="868" on="0"/>
        <pt x="443" y="847" on="1"/>
        <pt x="443" y="835" on="1"/>
        <pt x="443" y="814" on="0"/>
        <pt x="419" y="788" on="0"/>
      </contour>
    </TTGlyph>
    <TTGlyph name="dieresisacute" xMin="-148" yMin="597" xMax="148" yMax="891">
      <contour>
        <pt x="12" y="698" on="1"/>
        <pt x="-37" y="721" on="1"/>
        <pt x="48" y="891" on="1"/>
        <pt x="118" y="857" on="1"/>
      </contour>
      <contour>
        <pt x="-99" y="597" on="1"/>
        <pt x="-125" y="597" on="0"/>
        <pt x="-148" y="622" on="0"/>
        <pt x="-148" y="643" on="1"/>
        <pt x="-148" y="654" on="1"/>
        <pt x="-148" y="675" on="0"/>
        <pt x="-125" y="700" on="0"/>
        <pt x="-99" y="700" on="1"/>
        <pt x="-73" y="700" on="0"/>
        <pt x="-50" y="675" on="0"/>
        <pt x="-50" y="654" on="1"/>
        <pt x="-50" y="643" on="1"/>
        <pt x="-50" y="622" on="0"/>
        <pt x="-73" y="597" on="0"/>
      </contour>
      <contour>
        <pt x="99" y="597" on="1"/>
        <pt x="73" y="597" on="0"/>
        <pt x="50" y="622" on="0"/>
        <pt x="50" y="643" on="1"/>
        <pt x="50" y="654" on="1"/>
        <pt x="50" y="675" on="0"/>
        <pt x="73" y="700" on="0"/>
        <pt x="99" y="700" on="1"/>
        <pt x="125" y="700" on="0"/>
        <pt x="148" y="675" on="0"/>
        <pt x="148" y="654" on="1"/>
        <pt x="148" y="643" on="1"/>
        <pt x="148" y="622" on="0"/>
        <pt x="125" y="597" on="0"/>
      </contour>
    </TTGlyph>
    <TTGlyph name="dieresisacute.case" xMin="-149" yMin="767" xMax="149" yMax="1061">
      <contour>
        <pt x="12" y="868" on="1"/>
        <pt x="-37" y="891" on="1"/>
        <pt x="48" y="1061" on="1"/>
        <pt x="118" y="1027" on="1"/>
      </contour>
      <contour>
        <pt x="-99" y="767" on="1"/>
        <pt x="-125" y="767" on="0"/>
        <pt x="-149" y="793" on="0"/>
        <pt x="-149" y="814" on="1"/>
        <pt x="-149" y="826" on="1"/>
        <pt x="-149" y="847" on="0"/>
        <pt x="-125" y="873" on="0"/>
        <pt x="-99" y="873" on="1"/>
        <pt x="-73" y="873" on="0"/>
        <pt x="-49" y="847" on="0"/>
        <pt x="-49" y="826" on="1"/>
        <pt x="-49" y="814" on="1"/>
        <pt x="-49" y="793" on="0"/>
        <pt x="-73" y="767" on="0"/>
      </contour>
      <contour>
        <pt x="99" y="767" on="1"/>
        <pt x="73" y="767" on="0"/>
        <pt x="49" y="793" on="0"/>
        <pt x="49" y="814" on="1"/>
        <pt x="49" y="826" on="1"/>
        <pt x="49" y="847" on="0"/>
        <pt x="73" y="873" on="0"/>
        <pt x="99" y="873" on="1"/>
        <pt x="125" y="873" on="0"/>
        <pt x="149" y="847" on="0"/>
        <pt x="149" y="826" on="1"/>
        <pt x="149" y="814" on="1"/>
        <pt x="149" y="793" on="0"/>
        <pt x="125" y="767" on="0"/>
      </contour>
    </TTGlyph>
    <TTGlyph name="dieresiscaron" xMin="-160" yMin="597" xMax="160" yMax="889">
      <contour>
        <pt x="-50" y="725" on="1"/>
        <pt x="-160" y="859" on="1"/>
        <pt x="-119" y="889" on="1"/>
        <pt x="0" y="777" on="1"/>
        <pt x="119" y="889" on="1"/>
        <pt x="160" y="859" on="1"/>
        <pt x="50" y="725" on="1"/>
      </contour>
      <contour>
        <pt x="-99" y="597" on="1"/>
        <pt x="-125" y="597" on="0"/>
        <pt x="-148" y="622" on="0"/>
        <pt x="-148" y="643" on="1"/>
        <pt x="-148" y="654" on="1"/>
        <pt x="-148" y="675" on="0"/>
        <pt x="-125" y="700" on="0"/>
        <pt x="-99" y="700" on="1"/>
        <pt x="-73" y="700" on="0"/>
        <pt x="-50" y="675" on="0"/>
        <pt x="-50" y="654" on="1"/>
        <pt x="-50" y="643" on="1"/>
        <pt x="-50" y="622" on="0"/>
        <pt x="-73" y="597" on="0"/>
      </contour>
      <contour>
        <pt x="99" y="597" on="1"/>
        <pt x="73" y="597" on="0"/>
        <pt x="50" y="622" on="0"/>
        <pt x="50" y="643" on="1"/>
        <pt x="50" y="654" on="1"/>
        <pt x="50" y="675" on="0"/>
        <pt x="73" y="700" on="0"/>
        <pt x="99" y="700" on="1"/>
        <pt x="125" y="700" on="0"/>
        <pt x="148" y="675" on="0"/>
        <pt x="148" y="654" on="1"/>
        <pt x="148" y="643" on="1"/>
        <pt x="148" y="622" on="0"/>
        <pt x="125" y="597" on="0"/>
      </contour>
    </TTGlyph>
    <TTGlyph name="dieresiscaron.case" xMin="-160" yMin="767" xMax="160" yMax="1059">
      <contour>
        <pt x="-50" y="895" on="1"/>
        <pt x="-160" y="1029" on="1"/>
        <pt x="-119" y="1059" on="1"/>
        <pt x="0" y="947" on="1"/>
        <pt x="119" y="1059" on="1"/>
        <pt x="160" y="1029" on="1"/>
        <pt x="50" y="895" on="1"/>
      </contour>
      <contour>
        <pt x="-99" y="767" on="1"/>
        <pt x="-125" y="767" on="0"/>
        <pt x="-149" y="793" on="0"/>
        <pt x="-149" y="814" on="1"/>
        <pt x="-149" y="826" on="1"/>
        <pt x="-149" y="847" on="0"/>
        <pt x="-125" y="873" on="0"/>
        <pt x="-99" y="873" on="1"/>
        <pt x="-73" y="873" on="0"/>
        <pt x="-49" y="847" on="0"/>
        <pt x="-49" y="826" on="1"/>
        <pt x="-49" y="814" on="1"/>
        <pt x="-49" y="793" on="0"/>
        <pt x="-73" y="767" on="0"/>
      </contour>
      <contour>
        <pt x="99" y="767" on="1"/>
        <pt x="73" y="767" on="0"/>
        <pt x="49" y="793" on="0"/>
        <pt x="49" y="814" on="1"/>
        <pt x="49" y="826" on="1"/>
        <pt x="49" y="847" on="0"/>
        <pt x="73" y="873" on="0"/>
        <pt x="99" y="873" on="1"/>
        <pt x="125" y="873" on="0"/>
        <pt x="149" y="847" on="0"/>
        <pt x="149" y="826" on="1"/>
        <pt x="149" y="814" on="1"/>
        <pt x="149" y="793" on="0"/>
        <pt x="125" y="767" on="0"/>
      </contour>
    </TTGlyph>
    <TTGlyph name="dieresisgrave" xMin="-148" yMin="597" xMax="148" yMax="891">
      <contour>
        <pt x="-118" y="857" on="1"/>
        <pt x="-48" y="891" on="1"/>
        <pt x="37" y="721" on="1"/>
        <pt x="-12" y="698" on="1"/>
      </contour>
      <contour>
        <pt x="-99" y="597" on="1"/>
        <pt x="-125" y="597" on="0"/>
        <pt x="-148" y="622" on="0"/>
        <pt x="-148" y="643" on="1"/>
        <pt x="-148" y="654" on="1"/>
        <pt x="-148" y="675" on="0"/>
        <pt x="-125" y="700" on="0"/>
        <pt x="-99" y="700" on="1"/>
        <pt x="-73" y="700" on="0"/>
        <pt x="-50" y="675" on="0"/>
        <pt x="-50" y="654" on="1"/>
        <pt x="-50" y="643" on="1"/>
        <pt x="-50" y="622" on="0"/>
        <pt x="-73" y="597" on="0"/>
      </contour>
      <contour>
        <pt x="99" y="597" on="1"/>
        <pt x="73" y="597" on="0"/>
        <pt x="50" y="622" on="0"/>
        <pt x="50" y="643" on="1"/>
        <pt x="50" y="654" on="1"/>
        <pt x="50" y="675" on="0"/>
        <pt x="73" y="700" on="0"/>
        <pt x="99" y="700" on="1"/>
        <pt x="125" y="700" on="0"/>
        <pt x="148" y="675" on="0"/>
        <pt x="148" y="654" on="1"/>
        <pt x="148" y="643" on="1"/>
        <pt x="148" y="622" on="0"/>
        <pt x="125" y="597" on="0"/>
      </contour>
    </TTGlyph>
    <TTGlyph name="dieresisgrave.case" xMin="-149" yMin="767" xMax="149" yMax="1061">
      <contour>
        <pt x="-118" y="1027" on="1"/>
        <pt x="-48" y="1061" on="1"/>
        <pt x="37" y="891" on="1"/>
        <pt x="-12" y="868" on="1"/>
      </contour>
      <contour>
        <pt x="-99" y="767" on="1"/>
        <pt x="-125" y="767" on="0"/>
        <pt x="-149" y="793" on="0"/>
        <pt x="-149" y="814" on="1"/>
        <pt x="-149" y="826" on="1"/>
        <pt x="-149" y="847" on="0"/>
        <pt x="-125" y="873" on="0"/>
        <pt x="-99" y="873" on="1"/>
        <pt x="-73" y="873" on="0"/>
        <pt x="-49" y="847" on="0"/>
        <pt x="-49" y="826" on="1"/>
        <pt x="-49" y="814" on="1"/>
        <pt x="-49" y="793" on="0"/>
        <pt x="-73" y="767" on="0"/>
      </contour>
      <contour>
        <pt x="99" y="767" on="1"/>
        <pt x="73" y="767" on="0"/>
        <pt x="49" y="793" on="0"/>
        <pt x="49" y="814" on="1"/>
        <pt x="49" y="826" on="1"/>
        <pt x="49" y="847" on="0"/>
        <pt x="73" y="873" on="0"/>
        <pt x="99" y="873" on="1"/>
        <pt x="125" y="873" on="0"/>
        <pt x="149" y="847" on="0"/>
        <pt x="149" y="826" on="1"/>
        <pt x="149" y="814" on="1"/>
        <pt x="149" y="793" on="0"/>
        <pt x="125" y="767" on="0"/>
      </contour>
    </TTGlyph>
    <TTGlyph name="dieresismacron" xMin="-148" yMin="597" xMax="148" yMax="817">
      <contour>
        <pt x="-140" y="817" on="1"/>
        <pt x="140" y="817" on="1"/>
        <pt x="140" y="749" on="1"/>
        <pt x="-140" y="749" on="1"/>
      </contour>
      <contour>
        <pt x="-99" y="597" on="1"/>
        <pt x="-125" y="597" on="0"/>
        <pt x="-148" y="622" on="0"/>
        <pt x="-148" y="643" on="1"/>
        <pt x="-148" y="654" on="1"/>
        <pt x="-148" y="675" on="0"/>
        <pt x="-125" y="700" on="0"/>
        <pt x="-99" y="700" on="1"/>
        <pt x="-73" y="700" on="0"/>
        <pt x="-50" y="675" on="0"/>
        <pt x="-50" y="654" on="1"/>
        <pt x="-50" y="643" on="1"/>
        <pt x="-50" y="622" on="0"/>
        <pt x="-73" y="597" on="0"/>
      </contour>
      <contour>
        <pt x="99" y="597" on="1"/>
        <pt x="73" y="597" on="0"/>
        <pt x="50" y="622" on="0"/>
        <pt x="50" y="643" on="1"/>
        <pt x="50" y="654" on="1"/>
        <pt x="50" y="675" on="0"/>
        <pt x="73" y="700" on="0"/>
        <pt x="99" y="700" on="1"/>
        <pt x="125" y="700" on="0"/>
        <pt x="148" y="675" on="0"/>
        <pt x="148" y="654" on="1"/>
        <pt x="148" y="643" on="1"/>
        <pt x="148" y="622" on="0"/>
        <pt x="125" y="597" on="0"/>
      </contour>
    </TTGlyph>
    <TTGlyph name="dieresismacron.case" xMin="-149" yMin="767" xMax="149" yMax="987">
      <contour>
        <pt x="-140" y="987" on="1"/>
        <pt x="140" y="987" on="1"/>
        <pt x="140" y="919" on="1"/>
        <pt x="-140" y="919" on="1"/>
      </contour>
      <contour>
        <pt x="-99" y="767" on="1"/>
        <pt x="-125" y="767" on="0"/>
        <pt x="-149" y="793" on="0"/>
        <pt x="-149" y="814" on="1"/>
        <pt x="-149" y="826" on="1"/>
        <pt x="-149" y="847" on="0"/>
        <pt x="-125" y="873" on="0"/>
        <pt x="-99" y="873" on="1"/>
        <pt x="-73" y="873" on="0"/>
        <pt x="-49" y="847" on="0"/>
        <pt x="-49" y="826" on="1"/>
        <pt x="-49" y="814" on="1"/>
        <pt x="-49" y="793" on="0"/>
        <pt x="-73" y="767" on="0"/>
      </contour>
      <contour>
        <pt x="99" y="767" on="1"/>
        <pt x="73" y="767" on="0"/>
        <pt x="49" y="793" on="0"/>
        <pt x="49" y="814" on="1"/>
        <pt x="49" y="826" on="1"/>
        <pt x="49" y="847" on="0"/>
        <pt x="73" y="873" on="0"/>
        <pt x="99" y="873" on="1"/>
        <pt x="125" y="873" on="0"/>
        <pt x="149" y="847" on="0"/>
        <pt x="149" y="826" on="1"/>
        <pt x="149" y="814" on="1"/>
        <pt x="149" y="793" on="0"/>
        <pt x="125" y="767" on="0"/>
      </contour>
    </TTGlyph>
    <TTGlyph name="dieresistonos" xMin="138" yMin="585" xMax="462" yMax="780">
      <contour>
        <pt x="183" y="618" on="1"/>
        <pt x="160" y="618" on="0"/>
        <pt x="138" y="643" on="0"/>
        <pt x="138" y="664" on="1"/>
        <pt x="138" y="675" on="1"/>
        <pt x="138" y="696" on="0"/>
        <pt x="160" y="721" on="0"/>
        <pt x="183" y="721" on="1"/>
        <pt x="206" y="721" on="0"/>
        <pt x="228" y="696" on="0"/>
        <pt x="228" y="675" on="1"/>
        <pt x="228" y="664" on="1"/>
        <pt x="228" y="643" on="0"/>
        <pt x="206" y="618" on="0"/>
      </contour>
      <contour>
        <pt x="305" y="585" on="1"/>
        <pt x="256" y="592" on="1"/>
        <pt x="285" y="780" on="1"/>
        <pt x="357" y="769" on="1"/>
      </contour>
      <contour>
        <pt x="417" y="618" on="1"/>
        <pt x="394" y="618" on="0"/>
        <pt x="372" y="643" on="0"/>
        <pt x="372" y="664" on="1"/>
        <pt x="372" y="675" on="1"/>
        <pt x="372" y="696" on="0"/>
        <pt x="394" y="721" on="0"/>
        <pt x="417" y="721" on="1"/>
        <pt x="440" y="721" on="0"/>
        <pt x="462" y="696" on="0"/>
        <pt x="462" y="675" on="1"/>
        <pt x="462" y="664" on="1"/>
        <pt x="462" y="643" on="0"/>
        <pt x="440" y="618" on="0"/>
      </contour>
    </TTGlyph>
    <TTGlyph name="divide" xMin="67" yMin="52" xMax="533" yMax="558">
      <contour>
        <pt x="67" y="271" on="1"/>
        <pt x="67" y="339" on="1"/>
        <pt x="533" y="339" on="1"/>
        <pt x="533" y="271" on="1"/>
      </contour>
      <contour>
        <pt x="300" y="52" on="1"/>
        <pt x="265" y="52" on="0"/>
        <pt x="238" y="80" on="0"/>
        <pt x="238" y="100" on="1"/>
        <pt x="238" y="122" on="1"/>
        <pt x="238" y="142" on="0"/>
        <pt x="265" y="170" on="0"/>
        <pt x="300" y="170" on="1"/>
        <pt x="335" y="170" on="0"/>
        <pt x="362" y="142" on="0"/>
        <pt x="362" y="122" on="1"/>
        <pt x="362" y="100" on="1"/>
        <pt x="362" y="80" on="0"/>
        <pt x="335" y="52" on="0"/>
      </contour>
      <contour>
        <pt x="300" y="440" on="1"/>
        <pt x="265" y="440" on="0"/>
        <pt x="238" y="468" on="0"/>
        <pt x="238" y="488" on="1"/>
        <pt x="238" y="510" on="1"/>
        <pt x="238" y="530" on="0"/>
        <pt x="265" y="558" on="0"/>
        <pt x="300" y="558" on="1"/>
        <pt x="335" y="558" on="0"/>
        <pt x="362" y="530" on="0"/>
        <pt x="362" y="510" on="1"/>
        <pt x="362" y="488" on="1"/>
        <pt x="362" y="468" on="0"/>
        <pt x="335" y="440" on="0"/>
      </contour>
    </TTGlyph>
    <TTGlyph name="dollar" xMin="52" yMin="-82" xMax="539" yMax="780">
      <contour>
        <pt x="270" y="-82" on="1"/>
        <pt x="270" y="0" on="1"/>
        <pt x="194" y="5" on="0"/>
        <pt x="89" y="70" on="0"/>
        <pt x="52" y="119" on="1"/>
        <pt x="111" y="172" on="1"/>
        <pt x="143" y="129" on="0"/>
        <pt x="220" y="78" on="0"/>
        <pt x="271" y="71" on="1"/>
        <pt x="271" y="328" on="1"/>
        <pt x="168" y="351" on="0"/>
        <pt x="73" y="440" on="0"/>
        <pt x="73" y="518" on="1"/>
        <pt x="73" y="558" on="0"/>
        <pt x="102" y="621" on="0"/>
        <pt x="154" y="667" on="0"/>
        <pt x="226" y="694" on="0"/>
        <pt x="270" y="698" on="1"/>
        <pt x="270" y="780" on="1"/>
        <pt x="332" y="780" on="1"/>
        <pt x="332" y="699" on="1"/>
        <pt x="400" y="693" on="0"/>
        <pt x="499" y="636" on="0"/>
        <pt x="535" y="586" on="1"/>
        <pt x="474" y="540" on="1"/>
        <pt x="449" y="575" on="0"/>
        <pt x="379" y="620" on="0"/>
        <pt x="331" y="627" on="1"/>
        <pt x="331" y="393" on="1"/>
        <pt x="340" y="391" on="1"/>
        <pt x="444" y="368" on="0"/>
        <pt x="539" y="279" on="0"/>
        <pt x="539" y="200" on="1"/>
        <pt x="539" y="114" on="0"/>
        <pt x="428" y="9" on="0"/>
        <pt x="332" y="0" on="1"/>
        <pt x="332" y="-82" on="1"/>
      </contour>
      <contour>
        <pt x="460" y="195" on="1"/>
        <pt x="460" y="246" on="0"/>
        <pt x="401" y="300" on="0"/>
        <pt x="331" y="317" on="1"/>
        <pt x="331" y="71" on="1"/>
        <pt x="391" y="79" on="0"/>
        <pt x="460" y="144" on="0"/>
      </contour>
      <contour>
        <pt x="152" y="524" on="1"/>
        <pt x="152" y="473" on="0"/>
        <pt x="211" y="422" on="0"/>
        <pt x="271" y="406" on="1"/>
        <pt x="271" y="627" on="1"/>
        <pt x="217" y="620" on="0"/>
        <pt x="152" y="568" on="0"/>
      </contour>
    </TTGlyph>
    <TTGlyph name="dotaccent" xMin="249" yMin="616" xMax="351" yMax="719">
      <contour>
        <pt x="300" y="616" on="1"/>
        <pt x="274" y="616" on="0"/>
        <pt x="249" y="641" on="0"/>
        <pt x="249" y="662" on="1"/>
        <pt x="249" y="673" on="1"/>
        <pt x="249" y="694" on="0"/>
        <pt x="274" y="719" on="0"/>
        <pt x="300" y="719" on="1"/>
        <pt x="326" y="719" on="0"/>
        <pt x="351" y="694" on="0"/>
        <pt x="351" y="673" on="1"/>
        <pt x="351" y="662" on="1"/>
        <pt x="351" y="641" on="0"/>
        <pt x="326" y="616" on="0"/>
      </contour>
    </TTGlyph>
    <TTGlyph name="dotaccent.case" xMin="244" yMin="780" xMax="356" yMax="900">
      <contour>
        <pt x="300" y="780" on="1"/>
        <pt x="271" y="780" on="0"/>
        <pt x="244" y="809" on="0"/>
        <pt x="244" y="833" on="1"/>
        <pt x="244" y="847" on="1"/>
        <pt x="244" y="871" on="0"/>
        <pt x="271" y="900" on="0"/>
        <pt x="300" y="900" on="1"/>
        <pt x="329" y="900" on="0"/>
        <pt x="356" y="871" on="0"/>
        <pt x="356" y="847" on="1"/>
        <pt x="356" y="833" on="1"/>
        <pt x="356" y="809" on="0"/>
        <pt x="329" y="780" on="0"/>
      </contour>
    </TTGlyph>
    <TTGlyph name="dotlessi" xMin="85" yMin="0" xMax="165" yMax="516">
      <contour>
        <pt x="85" y="0" on="1"/>
        <pt x="85" y="516" on="1"/>
        <pt x="165" y="516" on="1"/>
        <pt x="165" y="0" on="1"/>
      </contour>
    </TTGlyph>
    <TTGlyph name="e" xMin="47" yMin="-12" xMax="502" yMax="528">
      <contour>
        <pt x="279" y="-12" on="1"/>
        <pt x="226" y="-12" on="0"/>
        <pt x="141" y="26" on="0"/>
        <pt x="80" y="97" on="0"/>
        <pt x="47" y="196" on="0"/>
        <pt x="47" y="258" on="1"/>
        <pt x="47" y="319" on="0"/>
        <pt x="80" y="419" on="0"/>
        <pt x="141" y="490" on="0"/>
        <pt x="226" y="528" on="0"/>
        <pt x="279" y="528" on="1"/>
        <pt x="331" y="528" on="0"/>
        <pt x="413" y="490" on="0"/>
        <pt x="471" y="423" on="0"/>
        <pt x="502" y="331" on="0"/>
        <pt x="502" y="276" on="1"/>
        <pt x="502" y="238" on="1"/>
        <pt x="131" y="238" on="1"/>
        <pt x="131" y="214" on="1"/>
        <pt x="131" y="181" on="0"/>
        <pt x="152" y="124" on="0"/>
        <pt x="191" y="82" on="0"/>
        <pt x="248" y="58" on="0"/>
        <pt x="284" y="58" on="1"/>
        <pt x="333" y="58" on="0"/>
        <pt x="406" y="104" on="0"/>
        <pt x="426" y="147" on="1"/>
        <pt x="483" y="106" on="1"/>
        <pt x="458" y="53" on="0"/>
        <pt x="352" y="-12" on="0"/>
      </contour>
      <contour>
        <pt x="279" y="461" on="1"/>
        <pt x="246" y="461" on="0"/>
        <pt x="192" y="438" on="0"/>
        <pt x="153" y="396" on="0"/>
        <pt x="131" y="339" on="0"/>
        <pt x="131" y="305" on="1"/>
        <pt x="131" y="298" on="1"/>
        <pt x="416" y="298" on="1"/>
        <pt x="416" y="309" on="1"/>
        <pt x="416" y="378" on="0"/>
        <pt x="341" y="461" on="0"/>
      </contour>
    </TTGlyph>
    <TTGlyph name="eacute" xMin="47" yMin="-12" xMax="502" yMax="779">
      <component glyphName="e" x="0" y="0" flags="0x204"/>
      <component glyphName="acute" x="-20" y="0" flags="0x4"/>
    </TTGlyph>
    <TTGlyph name="ebreve" xMin="47" yMin="-12" xMax="502" yMax="743">
      <component glyphName="e" x="0" y="0" flags="0x204"/>
      <component glyphName="breve" x="-20" y="0" flags="0x4"/>
    </TTGlyph>
    <TTGlyph name="ecaron" xMin="47" yMin="-12" xMax="502" yMax="773">
      <component glyphName="e" x="0" y="0" flags="0x204"/>
      <component glyphName="caron" x="-20" y="0" flags="0x4"/>
    </TTGlyph>
    <TTGlyph name="ecircumflex" xMin="47" yMin="-12" xMax="502" yMax="765">
      <component glyphName="e" x="0" y="0" flags="0x204"/>
      <component glyphName="circumflex" x="-20" y="0" flags="0x4"/>
    </TTGlyph>
    <TTGlyph name="edieresis" xMin="47" yMin="-12" xMax="502" yMax="721">
      <component glyphName="e" x="0" y="0" flags="0x204"/>
      <component glyphName="dieresis" x="-20" y="0" flags="0x4"/>
    </TTGlyph>
    <TTGlyph name="edotaccent" xMin="47" yMin="-12" xMax="502" yMax="719">
      <component glyphName="e" x="0" y="0" flags="0x204"/>
      <component glyphName="dotaccent" x="-20" y="0" flags="0x4"/>
    </TTGlyph>
    <TTGlyph name="egrave" xMin="47" yMin="-12" xMax="502" yMax="779">
      <component glyphName="e" x="0" y="0" flags="0x204"/>
      <component glyphName="grave" x="-20" y="0" flags="0x4"/>
    </TTGlyph>
    <TTGlyph name="eight" xMin="58" yMin="-12" xMax="542" yMax="710">
      <contour>
        <pt x="300" y="-12" on="1"/>
        <pt x="240" y="-12" on="0"/>
        <pt x="150" y="19" on="0"/>
        <pt x="89" y="73" on="0"/>
        <pt x="58" y="147" on="0"/>
        <pt x="58" y="190" on="1"/>
        <pt x="58" y="262" on="0"/>
        <pt x="136" y="346" on="0"/>
        <pt x="199" y="363" on="1"/>
        <pt x="199" y="371" on="1"/>
        <pt x="144" y="390" on="0"/>
        <pt x="79" y="475" on="0"/>
        <pt x="79" y="535" on="1"/>
        <pt x="79" y="615" on="0"/>
        <pt x="195" y="710" on="0"/>
        <pt x="300" y="710" on="1"/>
        <pt x="405" y="710" on="0"/>
        <pt x="521" y="615" on="0"/>
        <pt x="521" y="535" on="1"/>
        <pt x="521" y="475" on="0"/>
        <pt x="456" y="390" on="0"/>
        <pt x="401" y="371" on="1"/>
        <pt x="401" y="363" on="1"/>
        <pt x="464" y="346" on="0"/>
        <pt x="542" y="262" on="0"/>
        <pt x="542" y="190" on="1"/>
        <pt x="542" y="147" on="0"/>
        <pt x="511" y="73" on="0"/>
        <pt x="450" y="19" on="0"/>
        <pt x="360" y="-12" on="0"/>
      </contour>
      <contour>
        <pt x="300" y="61" on="1"/>
        <pt x="373" y="61" on="0"/>
        <pt x="453" y="126" on="0"/>
        <pt x="453" y="186" on="1"/>
        <pt x="453" y="207" on="1"/>
        <pt x="453" y="267" on="0"/>
        <pt x="373" y="332" on="0"/>
        <pt x="300" y="332" on="1"/>
        <pt x="227" y="332" on="0"/>
        <pt x="147" y="267" on="0"/>
        <pt x="147" y="207" on="1"/>
        <pt x="147" y="186" on="1"/>
        <pt x="147" y="126" on="0"/>
        <pt x="227" y="61" on="0"/>
      </contour>
      <contour>
        <pt x="300" y="402" on="1"/>
        <pt x="366" y="402" on="0"/>
        <pt x="434" y="458" on="0"/>
        <pt x="434" y="512" on="1"/>
        <pt x="434" y="527" on="1"/>
        <pt x="434" y="581" on="0"/>
        <pt x="366" y="637" on="0"/>
        <pt x="300" y="637" on="1"/>
        <pt x="234" y="637" on="0"/>
        <pt x="166" y="581" on="0"/>
        <pt x="166" y="527" on="1"/>
        <pt x="166" y="512" on="1"/>
        <pt x="166" y="458" on="0"/>
        <pt x="234" y="402" on="0"/>
      </contour>
    </TTGlyph>
    <TTGlyph name="ellipsis" xMin="75" yMin="-12" xMax="728" yMax="117">
      <component glyphName="period" x="0" y="0" flags="0x4"/>
      <component glyphName="period" x="265" y="0" flags="0x4"/>
      <component glyphName="period" x="531" y="0" flags="0x4"/>
    </TTGlyph>
    <TTGlyph name="emacron" xMin="47" yMin="-12" xMax="502" yMax="705">
      <component glyphName="e" x="0" y="0" flags="0x204"/>
      <component glyphName="macron" x="-20" y="0" flags="0x4"/>
    </TTGlyph>
    <TTGlyph name="emdash" xMin="36" yMin="266" xMax="744" yMax="342">
      <contour>
        <pt x="36" y="266" on="1"/>
        <pt x="36" y="342" on="1"/>
        <pt x="744" y="342" on="1"/>
        <pt x="744" y="266" on="1"/>
      </contour>
    </TTGlyph>
    <TTGlyph name="endash" xMin="36" yMin="266" xMax="552" yMax="342">
      <contour>
        <pt x="36" y="266" on="1"/>
        <pt x="36" y="342" on="1"/>
        <pt x="552" y="342" on="1"/>
        <pt x="552" y="266" on="1"/>
      </contour>
    </TTGlyph>
    <TTGlyph name="eng" xMin="85" yMin="-200" xMax="488" yMax="528">
      <contour>
        <pt x="324" y="-130" on="1"/>
        <pt x="408" y="-130" on="1"/>
        <pt x="408" y="317" on="1"/>
        <pt x="408" y="456" on="0"/>
        <pt x="291" y="456" on="1"/>
        <pt x="267" y="456" on="0"/>
        <pt x="222" y="444" on="0"/>
        <pt x="186" y="420" on="0"/>
        <pt x="165" y="383" on="0"/>
        <pt x="165" y="358" on="1"/>
        <pt x="165" y="0" on="1"/>
        <pt x="85" y="0" on="1"/>
        <pt x="85" y="516" on="1"/>
        <pt x="165" y="516" on="1"/>
        <pt x="165" y="432" on="1"/>
        <pt x="169" y="432" on="1"/>
        <pt x="188" y="476" on="0"/>
        <pt x="257" y="528" on="0"/>
        <pt x="315" y="528" on="1"/>
        <pt x="395" y="528" on="0"/>
        <pt x="488" y="425" on="0"/>
        <pt x="488" y="331" on="1"/>
        <pt x="488" y="-82" on="1"/>
        <pt x="488" y="-136" on="0"/>
        <pt x="434" y="-200" on="0"/>
        <pt x="377" y="-200" on="1"/>
        <pt x="324" y="-200" on="1"/>
      </contour>
    </TTGlyph>
    <TTGlyph name="eogonek" xMin="47" yMin="-207" xMax="502" yMax="528">
      <contour>
        <pt x="356" y="-207" on="1"/>
        <pt x="317" y="-207" on="0"/>
        <pt x="262" y="-171" on="0"/>
        <pt x="262" y="-130" on="1"/>
        <pt x="262" y="-108" on="0"/>
        <pt x="280" y="-70" on="0"/>
        <pt x="310" y="-38" on="0"/>
        <pt x="346" y="-12" on="0"/>
        <pt x="364" y="0" on="1"/>
        <pt x="360" y="5" on="1"/>
        <pt x="347" y="-2" on="0"/>
        <pt x="308" y="-12" on="0"/>
        <pt x="279" y="-12" on="1"/>
        <pt x="226" y="-12" on="0"/>
        <pt x="141" y="26" on="0"/>
        <pt x="80" y="97" on="0"/>
        <pt x="47" y="196" on="0"/>
        <pt x="47" y="258" on="1"/>
        <pt x="47" y="319" on="0"/>
        <pt x="80" y="419" on="0"/>
        <pt x="141" y="490" on="0"/>
        <pt x="226" y="528" on="0"/>
        <pt x="279" y="528" on="1"/>
        <pt x="331" y="528" on="0"/>
        <pt x="413" y="490" on="0"/>
        <pt x="471" y="423" on="0"/>
        <pt x="502" y="331" on="0"/>
        <pt x="502" y="276" on="1"/>
        <pt x="502" y="238" on="1"/>
        <pt x="131" y="238" on="1"/>
        <pt x="131" y="214" on="1"/>
        <pt x="131" y="181" on="0"/>
        <pt x="152" y="124" on="0"/>
        <pt x="191" y="82" on="0"/>
        <pt x="248" y="58" on="0"/>
        <pt x="284" y="58" on="1"/>
        <pt x="333" y="58" on="0"/>
        <pt x="406" y="104" on="0"/>
        <pt x="426" y="147" on="1"/>
        <pt x="483" y="106" on="1"/>
        <pt x="475" y="89" on="0"/>
        <pt x="460" y="66" on="0"/>
        <pt x="449" y="53" on="1"/>
        <pt x="434" y="34" on="0"/>
        <pt x="392" y="-8" on="0"/>
        <pt x="353" y="-53" on="0"/>
        <pt x="326" y="-100" on="0"/>
        <pt x="326" y="-122" on="1"/>
        <pt x="326" y="-139" on="0"/>
        <pt x="343" y="-153" on="0"/>
        <pt x="357" y="-153" on="1"/>
        <pt x="386" y="-153" on="0"/>
        <pt x="405" y="-129" on="1"/>
        <pt x="444" y="-168" on="1"/>
        <pt x="435" y="-184" on="0"/>
        <pt x="391" y="-207" on="0"/>
      </contour>
      <contour>
        <pt x="416" y="298" on="1"/>
        <pt x="416" y="309" on="1"/>
        <pt x="416" y="378" on="0"/>
        <pt x="341" y="461" on="0"/>
        <pt x="279" y="461" on="1"/>
        <pt x="246" y="461" on="0"/>
        <pt x="192" y="438" on="0"/>
        <pt x="153" y="396" on="0"/>
        <pt x="131" y="339" on="0"/>
        <pt x="131" y="305" on="1"/>
        <pt x="131" y="298" on="1"/>
      </contour>
    </TTGlyph>
</ttFont>
